<?xml version="1.0" standalone="no"?>
<!DOCTYPE svg PUBLIC "-//W3C//DTD SVG 20010904//EN"
 "http://www.w3.org/TR/2001/REC-SVG-20010904/DTD/svg10.dtd">
<svg version="1.0" xmlns="http://www.w3.org/2000/svg"
 width="225.000000pt" height="225.000000pt" viewBox="0 0 225.000000 225.000000"
 preserveAspectRatio="xMidYMid meet">

<g transform="translate(0.000000,225.000000) scale(0.100000,-0.100000)"
fill="#000000" stroke="none">
<path d="M1894 2222 c-12 -9 -30 -30 -40 -47 -18 -28 -19 -70 -22 -955 -2
-509 0 -976 3 -1039 7 -108 9 -116 35 -143 l28 -28 142 0 142 0 29 29 29 29 0
1049 c0 1156 5 1074 -64 1107 -50 24 -252 23 -282 -2z"/>
<path d="M1262 1804 c-12 -8 -31 -33 -42 -54 -19 -38 -20 -60 -20 -687 0 -356
3 -727 7 -823 6 -174 7 -175 34 -202 27 -28 28 -28 170 -28 l142 0 33 36 34
35 0 825 c0 921 5 856 -71 895 -51 25 -252 28 -287 3z"/>
<path d="M634 1381 c-65 -40 -65 -38 -62 -709 l3 -604 33 -29 32 -29 140 0
c131 0 140 1 166 23 19 16 29 38 35 73 4 27 8 309 8 626 l1 576 -27 33 c-40
47 -78 59 -195 59 -84 0 -109 -4 -134 -19z"/>
<path d="M68 960 c-57 -44 -58 -53 -58 -485 l0 -397 34 -34 34 -34 140 0 140
0 31 31 31 31 0 412 c0 404 0 414 -21 440 -37 47 -68 56 -192 56 -99 0 -118
-3 -139 -20z"/>
</g>
</svg>
