<?xml version="1.0" encoding="UTF-8"?>
<svg width="19px" height="22px" viewBox="0 0 19 22" version="1.1" xmlns="http://www.w3.org/2000/svg" xmlns:xlink="http://www.w3.org/1999/xlink">
    <title>8732123B-42A5-4CAC-9A5C-D0B54FD692B4</title>
    <g id="FLow" stroke="none" stroke-width="1" fill="none" fill-rule="evenodd">
        <g id="Momotaro-home-Copy-28" transform="translate(-34.000000, -316.000000)" fill="#2D3142">
            <g id="Flash-Deal-Button" transform="translate(34.000000, 316.000000)">
                <path d="M9.33062301,0.449774446 C9.65675262,0.050273443 10.1859242,-0.101225639 10.6772227,0.068951412 C11.1695732,0.239128463 11.4872866,0.681173729 11.4872866,1.19585554 L11.4872866,1.19585554 L11.4872866,8.43356852 L17.7879003,8.43356852 C18.2571061,8.43356852 18.6758145,8.69298476 18.8788565,9.11012607 C19.0818985,9.52830504 19.0271928,10.0118569 18.7336762,10.374002 L18.7336762,10.374002 L9.66937699,21.5496534 C9.43267002,21.8412373 9.08865587,22 8.73096533,22 C8.59525333,22 8.45743727,21.9771714 8.3227773,21.9304764 C7.83042678,21.7602994 7.51271342,21.3182541 7.51271342,20.8035723 L7.51271342,20.8035723 L7.51271342,13.5658593 L1.21209968,13.5658593 C0.742893851,13.5658593 0.324185508,13.3064431 0.121143523,12.8893018 C-0.0818984625,12.4721605 -0.0271928498,11.987571 0.266323803,11.6264636 L0.266323803,11.6264636 Z" id="Flash-Icon"></path>
            </g>
        </g>
    </g>
</svg>