<?xml version="1.0" encoding="UTF-8"?>
<svg width="19px" height="22px" viewBox="0 0 19 22" version="1.1" xmlns="http://www.w3.org/2000/svg" xmlns:xlink="http://www.w3.org/1999/xlink">
    <title>998FC013-C33F-4DF3-BF2B-C3367D9EDCD3</title>
    <g id="FLow" stroke="none" stroke-width="1" fill="none" fill-rule="evenodd">
        <g id="Momotaro-home-Copy-30" transform="translate(-34.000000, -316.000000)" fill="#2D3142">
            <g id="Group-3" transform="translate(17.000000, 299.000000)">
                <g id="Flash-Deal-Button" transform="translate(17.000000, 17.000000)">
                    <path d="M8.77515063,20.8035723 L8.77515063,13.4371889 C8.77515063,12.8218536 8.26701965,12.3206614 7.64316526,12.3206614 L1.25312889,12.4036746 L10.2248494,1.19585554 L10.2248494,8.56223898 C10.2248494,9.17757429 10.7329803,9.67876646 11.3568347,9.67876646 L17.7468711,9.59575326 L8.77515063,20.8035723 Z M18.8788565,9.11012607 C18.6758145,8.69298476 18.2571061,8.43356852 17.7879003,8.43356852 L11.4872866,8.43356852 L11.4872866,1.19585554 C11.4872866,0.681173729 11.1695732,0.239128463 10.6772227,0.068951412 C10.1859242,-0.101225639 9.65675262,0.050273443 9.33062301,0.449774446 L0.266323803,11.6264636 C-0.0271928498,11.987571 -0.0818984625,12.4721605 0.121143523,12.8893018 C0.324185508,13.3064431 0.742893851,13.5658593 1.21209968,13.5658593 L7.51271342,13.5658593 L7.51271342,20.8035723 C7.51271342,21.3182541 7.83042678,21.7602994 8.3227773,21.9304764 C8.45743727,21.9771714 8.59525333,22 8.73096533,22 C9.08865587,22 9.43267002,21.8412373 9.66937699,21.5496534 L18.7336762,10.374002 C19.0271928,10.0118569 19.0818985,9.52830504 18.8788565,9.11012607 L18.8788565,9.11012607 Z" id="Flash-Icon"></path>
                </g>
            </g>
        </g>
    </g>
</svg>