<?xml version="1.0" encoding="UTF-8"?>
<svg width="21px" height="24px" viewBox="0 0 21 24" version="1.1" xmlns="http://www.w3.org/2000/svg" xmlns:xlink="http://www.w3.org/1999/xlink">
    <title>6BDE8F3C-4778-4BAE-AED2-8F2D208DEFF8</title>
    <g id="CLient-Landing" stroke="none" stroke-width="1" fill="none" fill-rule="evenodd" stroke-linejoin="round">
        <g id="Momotaro-home-Copy-50" transform="translate(-313.000000, -320.000000)">
            <g id="4620092_call-center_note_service_icon" transform="translate(314.000000, 321.000000)">
                <polyline id="Path" stroke="#000000" fill="#000000" points="11 1.46666667 5.13333333 1.46666667 0 1.46666667 0 12.4666667 0 22 16.1333333 22 16.1333333 19.0666667"></polyline>
                <polyline id="Path" stroke="#000000" fill="#000000" points="11 1.46666667 16.1333333 1.46666667 16.1333333 12.4666667 16.1333333 16.1333333 16.1333333 19.0666667"></polyline>
                <polygon id="Path" stroke="#FFFFFF" fill="#2D3142" points="7.33333333 19.0666667 16.1333333 19.0666667 19.0666667 19.0666667 19.0666667 16.1333333 16.1333333 16.1333333 7.33333333 16.1333333"></polygon>
                <polyline id="Path" stroke="#FFFFFF" points="7.33333333 16.1333333 3.66666667 17.6 7.33333333 19.0666667"></polyline>
                <polygon id="Path" stroke="#000000" fill="#FFFFFF" points="11 1.46666667 11 2.93333333 5.13333333 2.93333333 5.13333333 1.46666667 5.13333333 0 11 0"></polygon>
                <line x1="2.2" y1="6.6" x2="13.9333333" y2="6.6" id="Path" stroke="#FFFFFF"></line>
                <line x1="2.2" y1="9.53333333" x2="13.9333333" y2="9.53333333" id="Path" stroke="#FFFFFF"></line>
                <line x1="2.2" y1="12.4666667" x2="13.9333333" y2="12.4666667" id="Path" stroke="#FFFFFF"></line>
            </g>
        </g>
    </g>
</svg>