<?xml version="1.0" encoding="UTF-8"?>
<svg width="20px" height="16px" viewBox="0 0 20 16" version="1.1" xmlns="http://www.w3.org/2000/svg" xmlns:xlink="http://www.w3.org/1999/xlink">
    <title>CA7E2FF4-1B7A-4E1A-AF0D-5A93AB0EA519</title>
    <g id="FLow" stroke="none" stroke-width="1" fill="none" fill-rule="evenodd">
        <g id="1-Agent-Landing-Page" transform="translate(-30.000000, -67.000000)" fill="#888888">
            <g id="top-bar" transform="translate(29.000000, 64.000000)">
                <path d="M2.000011,9.99984 L20.000064,9.99984 C20.552225,9.99984 21.000058,10.44786 21.000058,10.9999 C21.000058,11.5523 20.552225,11.99998 20.000064,11.99998 L2.000011,11.99998 C1.447689,11.99998 1.000017,11.5523 1.000017,10.9999 C1.000017,10.44786 1.447689,9.99984 2.000011,9.99984 Z M2.000011,17.00002 L13.000037,17.00002 C13.552359,17.00002 14.000054,17.4477 14.000054,18.0001 C14.000054,18.55214 13.552359,19.00018 13.000037,19.00018 L2.000011,19.00018 C1.447689,19.00018 1.000017,18.55214 1.000017,18.0001 C1.000017,17.4477 1.447689,17.00002 2.000011,17.00002 Z M2.000011,3 L17.000059,3 C17.552358,3 18.000053,3.44768 18.000053,4.00006 C18.000053,4.55212 17.552358,5.00014 17.000059,5.00014 L2.000011,5.00014 C1.447689,5.00014 1.000017,4.55212 1.000017,4.00006 C1.000017,3.44768 1.447689,3 2.000011,3 Z" id="sidelist"></path>
            </g>
        </g>
    </g>
</svg>