<?xml version="1.0" standalone="no"?>
<!DOCTYPE svg PUBLIC "-//W3C//DTD SVG 20010904//EN"
 "http://www.w3.org/TR/2001/REC-SVG-20010904/DTD/svg10.dtd">
<svg version="1.0" xmlns="http://www.w3.org/2000/svg"
 width="256.000000pt" height="256.000000pt" viewBox="0 0 256.000000 256.000000"
 preserveAspectRatio="xMidYMid meet">

<g transform="translate(0.000000,256.000000) scale(0.100000,-0.100000)"
fill="#000000" stroke="none">
<path d="M2084 2475 c-30 -34 -54 -45 -54 -26 0 5 8 12 18 15 14 4 14 5 -2 3
-28 -3 -31 -26 -5 -35 l22 -9 -21 -21 c-12 -12 -22 -28 -22 -34 -1 -22 -26
-48 -36 -38 -5 5 -10 -2 -10 -18 -1 -15 -6 -43 -11 -63 -9 -30 -7 -38 8 -47
20 -13 23 -9 39 34 l10 29 -26 -30 -26 -30 16 32 c9 18 16 36 16 40 0 5 7 16
16 27 21 24 41 7 25 -22 -6 -11 -11 -32 -11 -47 0 -17 -4 -24 -11 -19 -8 4 -9
-1 -4 -17 13 -44 23 -41 51 16 56 111 64 125 74 125 6 0 10 8 10 18 0 9 7 25
14 35 12 15 15 15 25 3 14 -17 -2 -58 -21 -53 -6 1 -11 -11 -12 -26 -1 -16 -7
-32 -14 -36 -16 -10 -49 -75 -58 -114 l-6 -30 33 38 c19 21 34 41 34 44 1 3 4
16 9 29 8 23 21 29 31 12 3 -5 12 -10 18 -10 8 0 7 3 -2 9 -7 5 -10 14 -7 20
4 6 2 11 -4 11 -19 0 8 38 38 54 19 11 22 15 10 16 -16 0 -16 2 -1 29 16 27
16 30 -1 55 -20 32 -73 66 -101 66 -11 0 -34 -16 -51 -35z m35 -34 c13 -8 13
-12 0 -28 -8 -10 -19 -21 -26 -26 -7 -4 -10 -13 -8 -20 3 -6 -4 -23 -14 -36
-18 -24 -19 -24 -29 -4 -9 16 -7 25 11 44 12 13 22 26 22 29 2 16 17 50 23 50
4 0 13 -4 21 -9z"/>
<path d="M2230 2330 c-13 -8 -12 -10 3 -10 9 0 17 5 17 10 0 12 -1 12 -20 0z"/>
<path d="M2166 2203 c-6 -14 -5 -15 5 -6 7 7 10 15 7 18 -3 3 -9 -2 -12 -12z"/>
<path d="M2062 2190 c-7 -11 -12 -25 -12 -32 1 -7 8 0 16 15 18 33 14 46 -4
17z"/>
<path d="M1956 2172 c-4 -7 -11 -10 -16 -7 -4 3 -7 -3 -6 -13 0 -9 -4 -16 -11
-15 -7 2 -10 -4 -7 -12 4 -8 10 -15 15 -15 13 0 41 48 37 62 -3 9 -6 9 -12 0z"/>
<path d="M1968 2135 c-15 -28 -15 -31 5 -47 28 -25 34 -23 52 15 l16 32 -25
-30 c-29 -33 -35 -28 -10 9 8 13 11 27 6 30 -5 3 -14 -6 -21 -21 -6 -14 -14
-23 -18 -20 -3 4 0 13 7 21 6 9 10 21 8 28 -3 8 -11 1 -20 -17z"/>
<path d="M1905 2090 c-4 -6 -11 -8 -16 -5 -5 3 -6 -2 -2 -11 4 -11 3 -15 -5
-10 -6 3 -14 1 -18 -5 -4 -7 -3 -9 4 -5 5 3 13 0 15 -6 4 -9 12 -5 26 12 11
14 21 28 21 33 0 11 -18 9 -25 -3z"/>
<path d="M1926 2068 c-9 -12 -16 -28 -16 -35 0 -16 -2 -16 -34 -3 -21 7 -27 6
-34 -8 -14 -25 4 -61 30 -62 9 0 81 120 75 126 -3 3 -12 -5 -21 -18z m-75 -61
c-10 -9 -11 -8 -5 6 3 10 9 15 12 12 3 -3 0 -11 -7 -18z m29 -17 c-6 -12 -14
-20 -17 -17 -2 3 1 14 8 26 7 11 15 18 17 16 2 -2 -2 -13 -8 -25z"/>
<path d="M1942 2045 c-14 -31 -15 -35 -4 -35 8 0 32 43 32 55 0 15 -19 1 -28
-20z"/>
<path d="M1946 1994 c-21 -36 -36 -67 -34 -69 2 -3 21 25 42 61 21 36 36 67
34 69 -2 3 -21 -25 -42 -61z"/>
<path d="M1902 1980 c-19 -32 -13 -47 8 -20 11 14 20 28 20 33 0 14 -15 7 -28
-13z"/>
<path d="M1792 1945 c-3 -5 -13 -21 -21 -35 -12 -18 -13 -22 -2 -16 9 6 12 5
9 -5 -3 -8 -10 -13 -16 -12 -5 1 -65 -84 -133 -190 -67 -106 -123 -193 -124
-195 -1 -1 -33 12 -71 30 -193 90 -324 18 -370 -206 -23 -110 -45 -135 -176
-202 -169 -88 -276 -187 -335 -311 -33 -69 -35 -77 -32 -161 4 -79 8 -97 43
-168 59 -118 178 -235 306 -297 129 -64 202 -82 330 -82 101 0 108 1 168 34
77 42 135 104 172 184 50 108 62 169 64 332 1 107 5 157 15 175 8 14 51 63 96
110 96 100 121 152 112 231 -8 66 -44 126 -111 186 l-54 47 24 47 c17 34 20
49 11 52 -7 3 -5 6 5 6 22 1 43 37 25 44 -8 4 -7 6 3 6 20 2 75 101 56 101
-12 0 -26 -20 -25 -36 0 -4 -4 -10 -9 -13 -5 -3 -28 -37 -51 -75 -34 -54 -40
-71 -29 -78 10 -7 9 -8 -4 -4 -23 7 -42 -26 -25 -43 9 -10 8 -11 -5 -6 -23 9
-37 -23 -17 -37 11 -8 11 -9 -2 -5 -9 3 -21 1 -27 -5 -8 -8 -13 -7 -18 5 -3 9
-11 14 -17 10 -6 -4 -8 0 -4 10 3 10 2 17 -3 17 -14 0 -25 -23 -13 -27 6 -2
18 -10 28 -17 17 -12 17 -14 0 -44 -10 -17 -22 -29 -26 -26 -4 2 -5 -5 -2 -16
3 -11 10 -20 16 -20 6 0 8 -3 5 -6 -4 -3 -15 -1 -26 5 -16 9 -19 7 -18 -7 0
-9 5 -20 9 -23 5 -3 -1 -9 -13 -12 -13 -3 -23 0 -27 9 -3 8 -9 11 -14 8 -5 -3
3 -16 19 -30 15 -13 19 -21 10 -18 -11 3 -20 -2 -28 -16 -6 -11 -15 -18 -20
-15 -5 3 -8 -3 -8 -12 1 -10 -24 -59 -55 -110 -31 -50 -57 -97 -57 -103 0 -19
78 -6 109 18 44 33 65 79 63 141 -2 72 12 98 29 56 20 -49 13 -121 -17 -172
-33 -57 -114 -98 -176 -90 -38 5 -40 4 -70 -45 -21 -34 -34 -46 -41 -39 -7 7
-2 23 17 52 15 22 25 43 22 46 -2 3 -12 -9 -21 -27 -9 -18 -19 -29 -22 -26 -3
3 2 17 11 30 20 32 21 58 0 31 -23 -30 -154 -242 -154 -249 0 -23 25 7 75 90
31 52 59 93 62 91 2 -3 -21 -46 -51 -95 -31 -50 -56 -94 -56 -99 0 -4 5 0 11
10 6 9 14 15 20 12 5 -3 6 0 3 8 -6 17 12 32 21 17 7 -12 -19 -53 -28 -44 -3
3 -3 -2 -1 -13 3 -10 47 -43 97 -74 74 -44 92 -60 92 -79 0 -57 -23 -49 -261
92 -210 125 -229 138 -229 163 0 51 25 52 101 6 39 -22 73 -41 76 -41 3 0 44
62 91 138 l86 139 -14 41 c-29 82 14 181 95 222 22 11 49 20 60 20 31 0 11
-30 -36 -55 -54 -28 -84 -77 -84 -136 0 -27 2 -49 4 -49 4 0 114 177 201 321
94 156 147 239 152 239 3 0 1 -9 -2 -20 -4 -12 -2 -20 5 -20 16 0 25 31 11 39
-8 6 3 33 40 95 40 66 55 84 64 76 10 -8 17 -5 29 11 15 22 12 44 -5 34 -15
-10 -10 3 21 53 19 30 30 40 30 28 0 -12 5 -16 16 -12 8 3 12 2 9 -4 -3 -6 -2
-10 4 -10 10 0 31 31 31 46 0 3 -7 1 -15 -6 -13 -11 -14 -10 -9 5 4 10 1 20
-6 25 -10 6 -9 13 4 31 l17 24 -7 -27 c-8 -35 9 -37 24 -3 7 14 12 28 12 30 0
8 -42 0 -48 -10z m-100 -197 c-7 -7 -12 -8 -12 -2 0 6 3 14 7 17 3 4 9 5 12 2
2 -3 -1 -11 -7 -17z m-478 -1017 c-10 -16 -21 -28 -26 -25 -4 3 -5 -1 -2 -9 6
-17 -12 -32 -21 -17 -9 15 46 103 57 92 7 -7 4 -21 -8 -41z"/>
<path d="M1837 1924 c-15 -28 -14 -31 4 -42 16 -10 21 -8 34 18 9 17 11 30 6
30 -6 0 -15 -9 -21 -21 -7 -11 -14 -18 -17 -15 -3 3 0 12 7 20 6 9 10 21 8 28
-3 8 -11 0 -21 -18z"/>
<path d="M1880 1890 c-6 -12 -9 -24 -7 -27 3 -2 11 5 17 17 6 12 9 24 7 27 -3
2 -11 -5 -17 -17z"/>
<path d="M1910 1870 c-6 -11 -8 -20 -6 -20 3 0 10 9 16 20 6 11 8 20 6 20 -3
0 -10 -9 -16 -20z"/>
<path d="M1822 1849 c-20 -31 -13 -46 8 -19 21 27 26 21 9 -12 -8 -15 -8 -19
0 -14 24 15 30 42 12 53 -14 9 -20 7 -29 -8z"/>
<path d="M1730 1809 c-17 -31 -2 -37 21 -9 17 21 19 22 10 3 -17 -34 -12 -40
10 -14 15 19 17 26 7 32 -21 14 -37 10 -48 -12z"/>
<path d="M1872 1809 c-19 -30 -8 -34 12 -4 9 14 13 25 9 25 -5 0 -14 -9 -21
-21z"/>
<path d="M1779 1779 c-9 -17 -8 -23 2 -30 21 -13 25 -11 38 19 l11 27 -20 -24
c-22 -25 -26 -21 -10 10 7 12 7 19 1 19 -6 0 -15 -10 -22 -21z"/>
<path d="M1843 1758 c-19 -25 -24 -38 -14 -38 11 0 35 39 28 46 -2 3 -9 -1
-14 -8z"/>
<path d="M1722 1739 c-11 -18 -11 -23 5 -34 15 -12 20 -12 31 2 13 18 16 33 6
33 -4 0 -13 -8 -20 -17 -7 -10 -14 -13 -14 -6 0 6 5 15 10 18 6 3 10 10 10 16
0 16 -15 10 -28 -12z"/>
<path d="M1770 1710 c-6 -12 -9 -24 -7 -27 3 -2 11 5 17 17 6 12 9 24 7 27 -3
2 -11 -5 -17 -17z"/>
<path d="M1660 1699 c-14 -25 -6 -36 14 -20 12 10 14 9 9 -8 -4 -16 -11 -19
-28 -15 -18 4 -25 1 -30 -17 -4 -13 -14 -29 -21 -37 -16 -15 -18 -32 -5 -32 5
0 19 16 31 35 25 40 30 44 23 15 -9 -33 3 -23 32 25 23 40 24 47 11 60 -19 20
-23 19 -36 -6z"/>
<path d="M1800 1691 c-12 -24 -13 -31 -2 -31 5 0 14 11 20 25 14 29 -2 34 -18
6z"/>
<path d="M1710 1670 c-15 -29 -4 -39 16 -14 14 18 15 18 8 -6 -6 -24 -6 -24 9
-5 9 11 15 20 14 20 -1 1 -10 6 -19 13 -14 11 -18 10 -28 -8z"/>
<path d="M1676 1614 c-3 -8 1 -22 9 -30 12 -13 15 -12 25 5 15 29 12 38 -6 15
-15 -18 -15 -18 -9 4 7 25 -10 31 -19 6z"/>
<path d="M1622 1580 c-15 -24 -3 -34 15 -12 14 16 14 16 9 -1 -3 -10 1 -25 9
-33 12 -13 16 -12 26 8 11 22 11 22 -6 8 -16 -14 -17 -13 -12 5 10 29 -25 50
-41 25z"/>
<path d="M1592 1529 c-14 -21 -3 -25 17 -6 12 10 13 9 7 -7 -11 -30 27 -49 38
-20 6 15 4 15 -10 3 -15 -12 -16 -12 -11 6 10 30 -25 50 -41 24z"/>
<path d="M1529 1482 c-9 -15 -40 -64 -68 -110 -56 -91 -58 -97 -36 -88 20 7
19 -11 -2 -32 -16 -16 -16 -16 -10 1 4 11 2 17 -8 17 -8 0 -15 -6 -15 -14 0
-8 -4 -16 -8 -18 -6 -2 -111 -167 -158 -250 -3 -4 0 -9 5 -12 10 -6 161 232
161 253 0 8 7 10 19 6 13 -4 23 2 35 21 17 24 17 26 -1 40 -10 7 -13 14 -6 14
12 0 46 55 41 64 -2 3 6 11 16 19 12 9 16 19 11 27 -6 10 -2 11 17 7 19 -5 28
-2 32 9 4 11 2 15 -7 11 -8 -3 -14 1 -14 9 0 7 6 15 14 18 7 3 13 0 13 -6 0
-7 5 -6 15 2 20 16 19 34 -1 26 -8 -3 -12 -2 -9 4 3 6 0 10 -7 10 -7 0 -20
-12 -29 -28z"/>
<path d="M1587 1466 c-3 -8 1 -20 9 -27 13 -10 17 -10 25 2 15 24 10 34 -7 13
-15 -18 -15 -18 -9 4 7 24 -9 31 -18 8z"/>
<path d="M1567 1434 c-4 -4 -7 -14 -7 -23 0 -11 3 -12 11 -4 6 6 10 16 7 23
-2 6 -7 8 -11 4z"/>
<path d="M1587 1413 c-4 -3 -7 -11 -7 -17 0 -6 5 -5 12 2 6 6 9 14 7 17 -3 3
-9 2 -12 -2z"/>
<path d="M1510 1395 c-8 -9 -8 -15 -2 -15 12 0 26 19 19 26 -2 2 -10 -2 -17
-11z"/>
<path d="M1475 1340 c-17 -33 -18 -40 -7 -40 8 0 16 14 40 63 2 4 -1 7 -7 7
-6 0 -17 -13 -26 -30z"/>
<path d="M1497 1321 c-22 -37 -9 -49 15 -14 19 30 22 43 10 43 -4 0 -15 -13
-25 -29z"/>
<path d="M1527 1311 c-9 -16 -17 -33 -17 -38 0 -4 5 0 11 10 6 9 13 16 17 13
4 -2 8 7 8 20 1 13 1 24 0 24 -1 0 -9 -13 -19 -29z"/>
<path d="M1467 1273 c-12 -12 -7 -25 7 -20 8 3 17 1 20 -6 3 -8 5 -8 5 -1 1
15 -24 36 -32 27z"/>
<path d="M1440 1224 c0 -8 5 -12 10 -9 6 3 10 10 10 16 0 5 -4 9 -10 9 -5 0
-10 -7 -10 -16z"/>
<path d="M1334 1108 c-37 -62 -74 -123 -82 -135 -8 -13 -10 -23 -4 -23 6 0 45
57 88 128 94 154 87 142 75 142 -5 0 -40 -51 -77 -112z"/>
<path d="M1341 1068 c-44 -73 -78 -134 -76 -136 8 -9 24 11 74 93 29 47 55 85
57 85 6 0 -11 -32 -51 -95 -18 -27 -38 -61 -45 -75 -12 -22 -11 -24 2 -13 8 7
17 10 20 7 3 -3 5 3 4 13 0 10 4 17 11 16 8 -2 10 4 6 14 -4 10 -2 14 4 10 6
-4 10 1 9 11 0 9 4 16 11 15 7 -2 10 4 6 13 -3 9 0 14 8 12 9 -2 13 4 11 16
-2 10 1 15 7 11 7 -4 8 0 5 10 -4 10 -2 15 7 13 9 -2 13 4 11 16 -2 10 1 15 6
12 5 -3 9 2 8 12 0 9 4 16 11 15 8 -2 10 4 6 14 -4 11 -3 14 5 9 8 -5 10 -1 5
10 -6 15 -7 15 -20 -2 -37 -51 -42 -56 -24 -23 23 40 25 49 12 49 -5 0 -45
-59 -90 -132z"/>
<path d="M1111 804 c-46 -74 -80 -138 -77 -142 4 -3 11 0 17 8 42 65 159 259
159 264 0 23 -26 -11 -99 -130z"/>
<path d="M1141 790 c-45 -73 -81 -136 -79 -141 2 -5 41 52 86 127 46 74 82
138 79 140 -3 3 -42 -54 -86 -126z"/>
<path d="M961 662 c47 -51 303 -217 320 -207 5 4 9 14 9 23 0 16 -71 61 -289
185 l-84 47 44 -48z"/>
</g>
</svg>
