<?xml version="1.0" encoding="UTF-8"?>
<svg width="24px" height="24px" viewBox="0 0 24 24" version="1.1" xmlns="http://www.w3.org/2000/svg" xmlns:xlink="http://www.w3.org/1999/xlink">
    <title>925B5E61-8156-4BEC-B118-5EC1CCB29752</title>
    <g id="FLow" stroke="none" stroke-width="1" fill="none" fill-rule="evenodd">
        <g id="Momotaro-home-Copy-28" transform="translate(-125.000000, -163.000000)" fill="#000000" fill-rule="nonzero">
            <g id="Group-14" transform="translate(-128.000000, 117.000000)">
                <g id="Group-23" transform="translate(168.000000, 0.000000)">
                    <g id="9112915_guitar_solid_icon" transform="translate(85.000000, 46.000000)">
                        <path d="M21.773985,0 C21.6766136,0 21.5828491,0.0469877205 21.4854776,0.144578313 L20.7930599,0.838554217 L20.5045525,0.54939759 L20.1006422,0.925301205 L20.4180003,1.24337349 L20.01409,1.61927711 L19.7255826,1.33012048 L19.3216723,1.73493976 L19.6101796,2.02409639 L18.9466127,2.71807229 C18.7482636,2.9168677 18.7482636,3.09759013 18.9466127,3.29638554 L15.0806137,7.17108434 C14.2186977,6.48072266 13.2990811,5.95662651 12.4263458,5.69638554 C10.8034922,5.21566288 9.36095526,5.56265083 8.24298868,6.67951807 C7.74892001,7.17469856 7.44598726,7.77831325 7.31976504,8.50120482 C7.11780988,9.67228916 6.08639644,10.5867468 4.86745227,10.6698795 C3.53671219,10.7602407 2.36825728,11.2951805 1.49191587,12.173494 C-0.819749325,14.4903612 -0.401413616,18.6939759 2.44399024,21.5421687 C4.05963159,23.1614458 6.11885329,24 8.01218277,24 C9.45471969,24 10.7926729,23.4975901 11.7916295,22.4963855 C12.6679709,21.6180721 13.2017096,20.4469877 13.2918679,19.113253 C13.374814,17.8915667 14.2583677,16.8578313 15.4268226,16.6554217 C16.148091,16.5289154 16.7792012,16.225301 17.2732698,15.7301205 C18.3876294,14.6132532 18.7338382,13.1638559 18.2541949,11.5373494 C18.0955159,10.9951812 17.8106146,10.4421684 17.475225,9.88915663 L16.1192403,11.2481928 C16.263494,11.5265058 16.3861101,11.7939761 16.4654491,12.0578313 C16.7503504,13.0192776 16.5988836,13.8036147 15.9749866,14.4289157 C15.7513938,14.6493974 15.484524,14.7722894 15.1383152,14.8337349 C13.140402,15.1807229 11.5824621,16.9373499 11.4454207,18.9975904 C11.3877192,19.8759038 11.0487235,20.6349395 10.4933463,21.1951807 C8.89934344,22.7891564 5.8952596,22.3698793 3.77112421,20.2409639 C1.64698882,18.1120484 1.19980237,15.0686745 2.7901991,13.4746988 C3.34918239,12.9180728 4.10651381,12.5783133 4.98285523,12.5204819 C7.03847081,12.383133 8.7875466,10.8216872 9.13736157,8.81927711 C9.19866916,8.47228916 9.31767915,8.20481974 9.54127191,7.98072289 C9.97042688,7.55060218 10.4608894,7.34457831 11.0415103,7.34457831 C11.3047731,7.34457831 11.6077058,7.39879541 11.9070325,7.48915663 C12.4876533,7.6626506 13.136795,8.00602433 13.7534797,8.47228916 L10.6664507,11.5662651 C10.5005594,11.5265058 10.327455,11.5084337 10.1471374,11.5084337 C8.87409881,11.5084337 7.83907834,12.5457834 7.83907834,13.8216867 C7.83907834,15.0975901 8.87409881,16.1349398 10.1471374,16.1349398 C11.420176,16.1349398 12.4551965,15.0975901 12.4551965,13.8216867 C12.4551965,13.6807227 12.4227396,13.5506022 12.397495,13.4168675 L20.7930599,4.97349398 C20.991409,5.17228939 21.2005764,5.17228939 21.3989254,4.97349398 L22.0913432,4.27951807 L22.3798505,4.5686747 L22.7549101,4.19277108 L22.4664028,3.90361446 L22.8703131,3.49879518 L23.0722683,3.90361446 L23.4473279,3.49879518 L23.1588205,3.20963855 L23.8512382,2.51566265 C24.0495873,2.31686724 24.0495873,2.10722915 23.8512382,1.90843373 L22.0913432,0.144578313 C21.9939717,0.0469877205 21.8713565,0 21.773985,0 Z M21.8092308,0.923076923 L22.1538462,1.26769231 L20.6276923,2.76923077 L20.3076923,2.44923077 L21.8092308,0.923076923 Z M22.7323077,1.84615385 L23.0769231,2.19076923 L21.5507692,3.69230769 L21.2307692,3.34769231 L22.7323077,1.84615385 Z M5.0956341,14.7692308 L3.69230769,16.1725572 L6.9043659,19.3846154 L8.30769231,17.981289 L5.0956341,14.7692308 Z" id="Shape"></path>
                    </g>
                </g>
            </g>
        </g>
    </g>
</svg>