<?xml version="1.0" encoding="UTF-8"?>
<svg width="22px" height="22px" viewBox="0 0 22 22" version="1.1" xmlns="http://www.w3.org/2000/svg" xmlns:xlink="http://www.w3.org/1999/xlink">
    <title>FE37DD69-B0D7-47B9-9415-5717EC9EAF4A</title>
    <g id="FLow" stroke="none" stroke-width="1" fill="none" fill-rule="evenodd">
        <g id="Momotaro-home-Copy-28" transform="translate(-169.000000, -318.000000)" fill="#2D3142" fill-rule="nonzero">
            <g id="8111410_history_time_clock_watch_timer_icon" transform="translate(169.000000, 318.000000)">
                <path d="M22.0013392,10.9968453 C22.0022329,15.4468685 19.3220067,19.4591106 15.2107714,21.1621817 C11.099536,22.8652528 6.36719087,21.9236537 3.22099629,18.7765651 C1.15137282,16.7176058 -0.00844841058,13.9161914 4.63359749e-05,10.9968453 L1.48269966,10.9968453 C1.48269966,16.2449353 5.75262612,20.5148618 11.0007161,20.5148618 C16.2488061,20.5148618 20.5187325,16.2449353 20.5187325,10.9968453 C20.5187325,5.74875536 16.2488061,1.47882889 11.0007161,1.47882889 C8.38640795,1.4787871 5.88752121,2.5556277 4.09212669,4.4559344 L6.9869753,4.4559344 L6.9869753,5.93854088 L1.78397798,5.93854088 L1.78397798,0.739507747 L3.26707998,0.739507747 L3.26707998,3.18243887 C6.42075752,0.0602051397 11.141998,-0.860547851 15.2377669,0.847873227 C19.3335358,2.5562943 22.0010895,6.55905021 22.0013392,10.9968453 Z M10.703402,5.19921974 L10.703402,12.1861019 L16.7983417,12.1861019 L16.7983417,10.6995312 L12.1899726,10.6995312 L12.1899726,5.19921974 L10.703402,5.19921974 Z" id="Shape"></path>
            </g>
        </g>
    </g>
</svg>