<?xml version="1.0" encoding="UTF-8"?>
<svg width="17px" height="22px" viewBox="0 0 17 22" version="1.1" xmlns="http://www.w3.org/2000/svg" xmlns:xlink="http://www.w3.org/1999/xlink">
    <title>E4D927EF-14ED-4606-8547-E5BE4188EE40</title>
    <g id="Page-1" stroke="none" stroke-width="1" fill="none" fill-rule="evenodd">
        <g id="Momotaro-home-Copy-38" transform="translate(-244.000000, -316.000000)" fill="#152730" fill-rule="nonzero">
            <g id="3045438_agenda_handbook_note_notebook_office_icon" transform="translate(244.000000, 316.000000)">
                <path d="M16.5,0 L16.5,22 L1.83333333,22 L1.833,18.833 L3.66666667,18.8333333 L3.66666667,17.8333333 L1.833,17.833 L1.833,18.833 L0,18.8333333 L0,17.8333333 L1.833,17.833 L1.833,15.166 L3.66666667,15.1666667 L3.66666667,14.1666667 L1.833,14.166 L1.833,15.166 L0,15.1666667 L0,14.1666667 L1.833,14.166 L1.833,11.5 L3.66666667,11.5 L3.66666667,10.5 L1.833,10.5 L1.833,11.5 L0,11.5 L0,10.5 L1.833,10.5 L1.833,7.833 L3.66666667,7.83333333 L3.66666667,6.83333333 L1.833,6.833 L1.833,7.833 L0,7.83333333 L0,6.83333333 L1.833,6.833 L1.833,4.166 L3.66666667,4.16666667 L3.66666667,3.16666667 L1.833,3.166 L1.833,4.166 L0,4.16666667 L0,3.16666667 L1.833,3.166 L1.83333333,0 L16.5,0 Z M13.75,5 L5.5,5 L5.5,6 L13.75,6 L13.75,5 Z" id="Combined-Shape"></path>
            </g>
        </g>
    </g>
</svg>