<?xml version="1.0" encoding="UTF-8"?>
<svg width="24px" height="24px" viewBox="0 0 24 24" version="1.1" xmlns="http://www.w3.org/2000/svg" xmlns:xlink="http://www.w3.org/1999/xlink">
    <title>C309473E-DE8D-44E5-818A-FAD258F2EF1E</title>
    <g id="FLow" stroke="none" stroke-width="1" fill="none" fill-rule="evenodd">
        <g id="Momotaro-home-Copy-28" transform="translate(-100.000000, -315.000000)" stroke="#152730">
            <g id="Group-11" transform="translate(85.000000, 299.000000)">
                <g id="Bill-Button" transform="translate(16.000000, 17.000000)">
                    <path d="M15.53468,11.4546726 C15.9099248,11.4546726 16.214882,11.5663393 16.214882,11.7046726 C16.214882,11.843006 15.9099248,11.9546726 15.53468,11.9546726 L15.53468,11.9546726 L6.46532,11.9546726 C6.08894156,11.9546726 5.78625167,11.843006 5.78625167,11.7046726 C5.78625167,11.5663393 6.08894156,11.4546726 6.46532,11.4546726 L6.46532,11.4546726 Z M15.53468,6.91829882 C15.9099248,6.91829882 16.214882,7.02996549 16.214882,7.16829882 C16.214882,7.30663216 15.9099248,7.41829882 15.53468,7.41829882 L6.46532,7.41829882 C6.08894156,7.41829882 5.78625167,7.30663216 5.78625167,7.16829882 C5.78625167,7.02996549 6.08894156,6.91829882 6.46532,6.91829882 L15.53468,6.91829882 Z M17.918788,0 L4.081212,0 C1.83087705,0 0,1.8074986 0,4.02909905 L0,17.9977616 C0,18.0111919 0.00680201999,18.0235031 0.00793568999,18.0369334 C-0.00113367,18.2238388 0.0623518499,18.4118635 0.20859528,18.5517627 L3.64248171,21.8119754 C3.90662682,22.0615557 4.32268371,22.0626749 4.58569515,21.8119754 L7.55250953,18.9983212 L10.5204576,21.8119754 C10.783469,22.0626749 11.1983922,22.0626749 11.4625374,21.8119754 L14.4304854,18.9983212 L17.4052355,21.8130946 C17.5367412,21.9373251 17.705658,22 17.8757085,22 C18.0446254,22 18.2146759,21.9373251 18.3461816,21.8130946 L21.7902711,18.5528819 C21.9376482,18.4129827 22.0011337,18.2238388 21.9920643,18.0369334 C21.993198,18.0223839 22,18.0111919 22,17.9977616 L22,4.02909905 C22,1.8074986 20.169123,0 17.918788,0 L17.918788,0 Z" id="Bill-Icon"></path>
                </g>
            </g>
        </g>
    </g>
</svg>