<?xml version="1.0" encoding="UTF-8"?>
<svg width="22px" height="22px" viewBox="0 0 22 22" version="1.1" xmlns="http://www.w3.org/2000/svg" xmlns:xlink="http://www.w3.org/1999/xlink">
    <title>0A53759F-D68F-4E45-AA6C-054E877C344E</title>
    <g id="FLow" stroke="none" stroke-width="1" fill="none" fill-rule="evenodd">
        <g id="Momotaro-home-Copy-25" transform="translate(-101.000000, -316.000000)" fill="#2D3142">
            <g id="Bill-Button" transform="translate(101.000000, 316.000000)">
                <path d="M16.214882,12.2831561 C16.214882,12.6547286 15.9099248,12.9546726 15.53468,12.9546726 L6.46532,12.9546726 C6.08894156,12.9546726 5.78625167,12.6547286 5.78625167,12.2831561 C5.78625167,11.9115837 6.08894156,11.6116396 6.46532,11.6116396 L15.53468,11.6116396 C15.9099248,11.6116396 16.214882,11.9115837 16.214882,12.2831561 L16.214882,12.2831561 Z M16.214882,7.24678232 C16.214882,7.61835478 15.9099248,7.91829882 15.53468,7.91829882 L6.46532,7.91829882 C6.08894156,7.91829882 5.78625167,7.61835478 5.78625167,7.24678232 C5.78625167,6.87520985 6.08894156,6.57526581 6.46532,6.57526581 L15.53468,6.57526581 C15.9099248,6.57526581 16.214882,6.87520985 16.214882,7.24678232 L16.214882,7.24678232 Z M17.918788,0 L4.081212,0 C1.83087705,0 0,1.8074986 0,4.02909905 L0,17.9977616 C0,18.0111919 0.00680201999,18.0235031 0.00793568999,18.0369334 C-0.00113367,18.2238388 0.0623518499,18.4118635 0.20859528,18.5517627 L3.64248171,21.8119754 C3.90662682,22.0615557 4.32268371,22.0626749 4.58569515,21.8119754 L7.55250953,18.9983212 L10.5204576,21.8119754 C10.783469,22.0626749 11.1983922,22.0626749 11.4625374,21.8119754 L14.4304854,18.9983212 L17.4052355,21.8130946 C17.5367412,21.9373251 17.705658,22 17.8757085,22 C18.0446254,22 18.2146759,21.9373251 18.3461816,21.8130946 L21.7902711,18.5528819 C21.9376482,18.4129827 22.0011337,18.2238388 21.9920643,18.0369334 C21.993198,18.0223839 22,18.0111919 22,17.9977616 L22,4.02909905 C22,1.8074986 20.169123,0 17.918788,0 L17.918788,0 Z" id="Bill-Icon"></path>
            </g>
        </g>
    </g>
</svg>