<?xml version="1.0" encoding="UTF-8"?>
<svg width="32px" height="32px" viewBox="0 0 32 32" version="1.1" xmlns="http://www.w3.org/2000/svg" xmlns:xlink="http://www.w3.org/1999/xlink">
    <title>AF94C075-8E6C-4967-B56C-94F36950330E</title>
    <g id="FLow" stroke="none" stroke-width="1" fill="none" fill-rule="evenodd">
        <g id="Momotaro-home-Copy-64" transform="translate(-372.000000, -311.000000)" stroke="#343E4D" stroke-width="0.99600366">
            <g id="Daily-Gift-Button-Copy-3" transform="translate(372.973721, 311.973721)">
                <g id="Offers" transform="translate(4.026279, 4.026279)">
                    <path d="M18.3997144,3.25588991 L18.8977163,4.7491708 C19.0428838,5.22189375 19.3428303,5.63209801 19.7492994,5.91392989 L21.009244,6.76012239 C21.4322468,7.04389553 21.7450417,7.464055 21.8954881,7.95051613 C22.0459344,8.43697727 22.0249188,8.96027267 21.8359271,9.43309517 L21.3379252,10.6426527 C21.121145,11.1773966 21.121145,11.7754556 21.3379252,12.3101497 L21.8359271,13.4898416 C22.0244706,13.9531569 22.0513627,14.4664473 21.9122209,14.9469353 C21.7730792,15.4273735 21.4760211,15.8469357 21.0690042,16.1379263 L19.9485001,16.9393204 C19.537798,17.2311075 19.2390965,17.6543531 19.101897,18.1389227 L18.6985155,19.552562 C18.558079,20.0488788 18.2491187,20.4807854 17.8247215,20.7741653 C17.4003244,21.0675452 16.8869841,21.2040809 16.372847,21.1603277 L15.1627025,21.0607757 C14.5900004,21.0132396 14.0214317,21.1919355 13.5790567,21.558536 L12.4137324,22.4993029 C12.0164266,22.8231458 11.5195204,23 11.0068773,23 C10.4942342,23 9.99732796,22.8231458 9.6000221,22.4993029 L8.60401844,21.682976 C8.20477037,21.357839 7.70467693,21.181831 7.18969324,21.1852157 L5.44170682,21.1852157 C4.93867517,21.1865099 4.45013537,21.0167239 4.05646493,20.7037322 C3.66274468,20.3907405 3.38729987,19.9531595 3.27539885,19.4629651 L2.95667768,18.1090571 C2.83207763,17.5627652 2.50454182,17.0841687 2.04035432,16.7700819 L0.969650382,15.9836207 C0.564376492,15.7081103 0.261969861,15.3060693 0.109685881,14.8404146 C-0.0426030782,14.3747598 -0.0361489745,13.8718228 0.128027289,13.4101999 L0.626029119,12.0463367 C0.810289796,11.550219 0.810289796,11.0044249 0.626029119,10.5082574 L0.177827472,9.3136327 C-0.00139840682,8.83916759 -0.0126681882,8.31761435 0.145890614,7.83583216 C0.304449417,7.35404997 0.623290109,6.94105826 1.04933067,6.66554793 L2.22959501,5.90397468 C2.68591409,5.60900193 3.01882831,5.15763289 3.16583845,4.63468593 L3.51443973,3.38032998 C3.65412925,2.8808773 3.96393619,2.44593436 4.39042495,2.15051362 C4.81686392,1.85514266 5.33314242,1.71795993 5.85006832,1.76260903 L6.96559242,1.85718348 C7.53953952,1.90238012 8.10875562,1.7240326 8.55421825,1.35942319 L9.61496215,0.503290412 C10.0134134,0.177804955 10.512212,0 11.0267973,0 C11.5413826,0 12.0401813,0.177804955 12.4386325,0.503290412 L13.3649159,1.27978154 C13.8103786,1.64797483 14.3825827,1.82672055 14.9585218,1.77754183 L16.1288261,1.69292258 C16.6279733,1.66056817 17.1235349,1.79715359 17.5355319,2.08072763 C17.947479,2.36425189 18.2519075,2.77823913 18.3997144,3.25588991 L18.3997144,3.25588991 Z" id="Path"></path>
                    <path d="M8.2404771,9.43812255 C9.27736671,9.43812255 10.117944,8.59795295 10.117944,7.56156624 C10.117944,6.52512975 9.27736671,5.68500993 8.2404771,5.68500993 C7.20358749,5.68500993 6.3630102,6.52512975 6.3630102,7.56156624 C6.3630102,8.59795295 7.20358749,9.43812255 8.2404771,9.43812255 Z M13.9674981,17.3225461 C15.0043878,17.3225461 15.844965,16.4823765 15.844965,15.4459898 C15.844965,14.4096031 15.0043878,13.5694334 13.9674981,13.5694334 C12.9306085,13.5694334 12.0900312,14.4096031 12.0900312,15.4459898 C12.0900312,16.4823765 12.9306085,17.3225461 13.9674981,17.3225461 Z M15.8449152,6.62069973 L5.9545989,16.5111968" id="Shape" stroke-linecap="round" stroke-linejoin="round"></path>
                </g>
            </g>
        </g>
    </g>
</svg>