<?xml version="1.0" encoding="UTF-8"?>
<svg width="24px" height="24px" viewBox="0 0 24 24" version="1.1" xmlns="http://www.w3.org/2000/svg" xmlns:xlink="http://www.w3.org/1999/xlink">
    <title>9C4F569A-BFE1-4A1B-AD7E-65B8069F639E</title>
    <g id="Page-1" stroke="none" stroke-width="1" fill="none" fill-rule="evenodd">
        <g id="1-Agent-Landing-Page-Copy-33" transform="translate(-302.000000, -1060.000000)">
            <g id="Group-6" transform="translate(24.000000, 656.000000)">
                <g id="2-Speech-Bubbles-(Chat)" transform="translate(278.000000, 404.000000)">
                    <path d="M24,0 L24,24 L0,24 L0,0 L24,0 Z" id="Vector"></path>
                    <g id="Group" transform="translate(2.000000, 3.000000)" fill="#2D3142" fill-rule="nonzero">
                        <path d="M18,0 C18.55,0 19.021,0.189296575 19.413,0.567889724 C19.8043333,0.947127836 20,1.40279404 20,1.93488833 L20,13.5442183 C20,14.0763126 19.8043333,14.5319788 19.413,14.9112169 C19.021,15.28981 18.55,15.4791066 18,15.4791066 L4,15.4791066 L1.7,17.7042282 C1.38333333,18.0105855 1.02066667,18.0789516 0.612,17.9093264 C0.204,17.7403461 0,17.4381811 0,17.0028312 L0,1.93488833 C0,1.40279404 0.196,0.947127836 0.588,0.567889724 C0.979333333,0.189296575 1.45,0 2,0 L18,0 Z M18,1.93488833 L2,1.93488833 L2,14.6809652 L3.175,13.5442183 L18,13.5442183 L18,1.93488833 Z M14.5545455,9 C15.0516017,9 15.4545455,9.40294373 15.4545455,9.9 C15.4545455,10.3970563 15.0516017,10.8 14.5545455,10.8 L5.44545455,10.8 C4.94839827,10.8 4.54545455,10.3970563 4.54545455,9.9 C4.54545455,9.40294373 4.94839827,9 5.44545455,9 L14.5545455,9 Z M14.5545455,4.5 C15.0516017,4.5 15.4545455,4.90294373 15.4545455,5.4 C15.4545455,5.89705627 15.0516017,6.3 14.5545455,6.3 L5.44545455,6.3 C4.94839827,6.3 4.54545455,5.89705627 4.54545455,5.4 C4.54545455,4.90294373 4.94839827,4.5 5.44545455,4.5 L14.5545455,4.5 Z" id="Shape"></path>
                    </g>
                </g>
            </g>
        </g>
    </g>
</svg>