<?xml version="1.0" encoding="UTF-8"?>
<svg width="24px" height="24px" viewBox="0 0 24 24" version="1.1" xmlns="http://www.w3.org/2000/svg" xmlns:xlink="http://www.w3.org/1999/xlink">
    <title>B0DB6F95-A5A2-4EA1-891E-D158E41A8905</title>
    <g id="Page-1" stroke="none" stroke-width="1" fill="none" fill-rule="evenodd">
        <g id="1-Agent-Landing-Page-Copy-33" transform="translate(-302.000000, -970.000000)">
            <g id="Speech-Bubble" transform="translate(302.000000, 970.000000)">
                <path d="M24,0 L24,24 L0,24 L0,0 L24,0 Z" id="Vector"></path>
                <g id="Group-13" transform="translate(1.000000, 3.000000)">
                    <path d="M9.4183762,18.9643742 C9.1329708,18.9881242 8.84756393,19 8.56215853,19 C7.17080723,19 5.85080211,18.6674994 4.6735048,18.0856244 L0.0475595835,18.7506261 L0.749194996,14.1074998 L0.761080355,14.1074998 C0.285404672,13.0624998 0,11.9106245 0,10.6874995 C0,8.44312439 0.915669132,6.41249965 2.39026374,4.91624957" id="Vector" stroke="#2D3142" stroke-width="1.78378378" stroke-linecap="round" stroke-linejoin="round" stroke-dasharray="0,0" fill-rule="nonzero"></path>
                    <g id="Group" transform="translate(8.692970, 7.386252)" fill="#2D3142">
                        <path d="M0.95135498,1.85249948 C0.425938133,1.85249948 0,1.43780352 0,0.926249738 C0,0.414695953 0.425938133,0 0.95135498,0 C1.47677183,0 1.90270996,0.414695953 1.90270996,0.926249738 C1.90270996,1.43780352 1.47677183,1.85249948 0.95135498,1.85249948 Z" id="Vector"></path>
                        <path d="M4.75675676,1.85249948 C4.23133991,1.85249948 3.80540178,1.43780352 3.80540178,0.926249738 C3.80540178,0.414695953 4.23133991,0 4.75675676,0 C5.2821736,0 5.70811174,0.414695953 5.70811174,0.926249738 C5.70811174,1.43780352 5.2821736,1.85249948 4.75675676,1.85249948 Z" id="Vector"></path>
                        <path d="M8.55027317,1.85249948 C8.02485633,1.85249948 7.59891819,1.43780352 7.59891819,0.926249738 C7.59891819,0.414695953 8.02485633,0 8.55027317,0 C9.07569002,0 9.50162815,0.414695953 9.50162815,0.926249738 C9.50162815,1.43780352 9.07569002,1.85249948 8.55027317,1.85249948 Z" id="Vector"></path>
                    </g>
                    <path d="M21.9524404,16.3756271 L17.3264952,15.7106254 C16.4940628,16.1262504 15.5902739,16.4112513 14.6270307,16.5418763 C14.2464901,16.6012514 13.8421658,16.625001 13.4378415,16.625001 C8.70486847,16.625001 4.88756829,12.9081256 4.88756829,8.3125005 C4.88756829,6.02062542 5.82702345,3.97812512 7.37296934,2.47000006 C8.90702335,0.938125011 11.0594566,0 13.4497268,0 C18.1826998,0 22,3.71687536 22,8.3125005 C22,9.53562553 21.7145953,10.6875008 21.2389196,11.7325008 L21.250805,11.7325008 L21.250805,11.7325008 L21.9524404,16.3756271 Z" id="Vector" stroke="#2D3142" stroke-width="1.78378378" stroke-linecap="round" stroke-linejoin="round" stroke-dasharray="0,0" fill-rule="nonzero"></path>
                </g>
            </g>
        </g>
    </g>
</svg>