<?xml version="1.0" encoding="UTF-8"?>
<svg width="24px" height="24px" viewBox="0 0 24 24" version="1.1" xmlns="http://www.w3.org/2000/svg" xmlns:xlink="http://www.w3.org/1999/xlink">
    <title>C1061311-6F40-404B-B556-BDEF718FF6C9</title>
    <defs>
        <rect id="path-1" x="0" y="0" width="327" height="522" rx="20"></rect>
        <filter x="-15.3%" y="-7.7%" width="130.6%" height="119.2%" filterUnits="objectBoundingBox" id="filter-2">
            <feOffset dx="0" dy="10" in="SourceAlpha" result="shadowOffsetOuter1"></feOffset>
            <feGaussianBlur stdDeviation="15" in="shadowOffsetOuter1" result="shadowBlurOuter1"></feGaussianBlur>
            <feColorMatrix values="0 0 0 0 0.438018364   0 0 0 0 0.533983851   0 0 0 0 0.821880315  0 0 0 0.15 0" type="matrix" in="shadowBlurOuter1"></feColorMatrix>
        </filter>
    </defs>
    <g id="Page-1" stroke="none" stroke-width="1" fill="none" fill-rule="evenodd">
        <g id="1-Agent-Landing-Page-Copy-33" transform="translate(-302.000000, -800.000000)">
            <rect fill="#FFFFFF" x="0" y="0" width="375" height="1235"></rect>
            <g id="Group-6" transform="translate(24.000000, 656.000000)">
                <g id="BG">
                    <use fill="black" fill-opacity="1" filter="url(#filter-2)" xlink:href="#path-1"></use>
                    <use fill="#FFFFFF" fill-rule="evenodd" xlink:href="#path-1"></use>
                </g>
                <g id="Icon-" transform="translate(278.000000, 144.000000)" fill="#35D850">
                    <path d="M5.59223301,1 C6.51511004,1 7.33322929,1.39311113 7.89601234,2.16382252 L7.89601234,2.16382252 L10.2181915,5.43120932 C10.685319,6.09543726 10.9288026,6.69755321 10.9288026,7.32040926 C10.9288026,8.02790519 10.6266726,8.62536181 10.0391298,9.27089873 L10.0391298,9.27089873 L9.321,10.019 L9.38056261,10.1152351 C9.71547998,10.6345506 10.4177846,11.4602202 11.2504457,12.3084832 L11.2504457,12.3084832 L11.4448044,12.5045081 L11.8677697,12.9147283 C12.6728766,13.6806087 13.4208887,14.3050734 13.854503,14.5939466 L13.854503,14.5939466 L13.958,14.66 L14.5375298,14.0902015 C15.1883336,13.4545741 15.7736537,13.1025809 16.4679944,13.0483295 L16.4679944,13.0483295 L16.6601942,13.0409262 C17.27566,13.0409262 17.8710879,13.2772357 18.5558759,13.7429939 L18.5558759,13.7429939 L21.8546334,16.0892971 C22.6154803,16.6273596 23,17.4308681 23,18.3274098 C23,19.3052743 22.5632226,20.2763585 21.8113395,21.1119773 C20.6619006,22.3730564 19.1878517,23 17.4800431,23 C14.2578022,23 10.3142431,20.7391927 6.76272074,17.1934079 C3.23176499,13.6681564 1,9.76734263 1,6.544965 C1,4.86031773 1.60405252,3.37734232 2.8098933,2.22320027 C3.60696412,1.44113753 4.596409,1 5.59223301,1 Z M5.59223301,3 C5.14447004,3 4.64852455,3.22111405 4.20173186,3.65938717 C3.39027132,4.43612856 3,5.39426176 3,6.544965 C3,9.12333237 4.98443999,12.5918566 8.17579058,15.7780515 C11.3883192,18.9853902 14.9024323,21 17.4800431,21 C18.6348929,21 19.5696523,20.6024274 20.3288928,19.7694758 C20.7682696,19.2811484 21,18.7659438 21,18.3274098 C21,18.0582805 20.9104591,17.871172 20.69763,17.7206572 L20.69763,17.7206572 L17.4140983,15.3849113 C17.0485051,15.1363989 16.807943,15.0409262 16.6601942,15.0409262 C16.5142422,15.0409262 16.3070602,15.1575785 15.9377443,15.5182715 L15.9377443,15.5182715 L15.1768693,16.2671828 C14.874283,16.5692802 14.4711386,16.7318255 14.0604099,16.7318255 C13.7365504,16.7318255 13.5063603,16.6607908 13.1428994,16.4932199 C12.5003087,16.1461505 11.5391065,15.3624621 10.4823809,14.3571589 L10.4823809,14.3571589 L10.0421166,13.9300799 C8.84568441,12.7355805 7.86433557,11.567401 7.48704728,10.8370149 C7.33715275,10.5626522 7.24595469,10.255356 7.24595469,9.9267636 C7.24595469,9.51770915 7.39486969,9.12646068 7.68564573,8.83650491 L7.68564573,8.83650491 L8.57720376,7.90631067 C8.84342569,7.61358483 8.92880259,7.44475355 8.92880259,7.32040926 C8.92880259,7.17461447 8.83355055,6.93906365 8.58510955,6.5857736 L8.58510955,6.5857736 L6.27335245,3.33292814 C6.10476044,3.10208976 5.89229737,3 5.59223301,3 Z" id="Phone"></path>
                </g>
            </g>
        </g>
    </g>
</svg>