<?xml version="1.0" encoding="UTF-8"?>
<svg width="16px" height="13px" viewBox="0 0 16 13" version="1.1" xmlns="http://www.w3.org/2000/svg" xmlns:xlink="http://www.w3.org/1999/xlink">
    <title>Group 3</title>
    <g id="CLient-Landing" stroke="none" stroke-width="1" fill="none" fill-rule="evenodd">
        <g id="Momotaro-home-Copy-72" transform="translate(-23.000000, -420.000000)" fill="#2D3142" fill-rule="nonzero">
            <g id="Group-18" transform="translate(16.000000, 411.000000)">
                <g id="Group" transform="translate(7.000000, 9.000000)">
                    <path d="M4,1.02631579 C4,0.64843675 4.29847683,0.342105263 4.66666667,0.342105263 L15.3333333,0.342105263 C15.7015232,0.342105263 16,0.64843675 16,1.02631579 C16,1.40419483 15.7015232,1.71052632 15.3333333,1.71052632 L4.66666667,1.71052632 C4.29847683,1.71052632 4,1.40419483 4,1.02631579 Z M15.3333333,5.81578947 L4.66666667,5.81578947 C4.29847683,5.81578947 4,6.12212096 4,6.5 C4,6.87787904 4.29847683,7.18421053 4.66666667,7.18421053 L15.3333333,7.18421053 C15.7015232,7.18421053 16,6.87787904 16,6.5 C16,6.12212096 15.7015232,5.81578947 15.3333333,5.81578947 Z M15.3333333,11.2894737 L4.66666667,11.2894737 C4.29847683,11.2894737 4,11.5958052 4,11.9736842 C4,12.3515632 4.29847683,12.6578947 4.66666667,12.6578947 L15.3333333,12.6578947 C15.7015232,12.6578947 16,12.3515632 16,11.9736842 C16,11.5958052 15.7015232,11.2894737 15.3333333,11.2894737 Z M0,1.02631579 C0,1.59313435 0.44771525,2.05263158 1,2.05263158 C1.55228475,2.05263158 2,1.59313435 2,1.02631579 C2,0.45949723 1.55228475,0 1,0 C0.44771525,0 0,0.45949723 0,1.02631579 Z M0,6.5 C0,7.06681856 0.44771525,7.52631579 1,7.52631579 C1.55228475,7.52631579 2,7.06681856 2,6.5 C2,5.93318144 1.55228475,5.47368421 1,5.47368421 C0.44771525,5.47368421 0,5.93318144 0,6.5 Z M0,11.9736842 C0,12.5405028 0.44771525,13 1,13 C1.55228475,13 2,12.5405028 2,11.9736842 C2,11.4068657 1.55228475,10.9473684 1,10.9473684 C0.44771525,10.9473684 0,11.4068657 0,11.9736842 Z" id="Shape"></path>
                </g>
            </g>
        </g>
    </g>
</svg>