<?xml version="1.0" encoding="UTF-8"?>
<svg width="16px" height="13px" viewBox="0 0 16 13" version="1.1" xmlns="http://www.w3.org/2000/svg" xmlns:xlink="http://www.w3.org/1999/xlink">
    <title>Group 2</title>
    <g id="CLient-Landing" stroke="none" stroke-width="1" fill="none" fill-rule="evenodd">
        <g id="Momotaro-home-Copy-72" transform="translate(-23.000000, -722.000000)" fill="#35D850" fill-rule="nonzero">
            <g id="Group-6" transform="translate(16.000000, 714.000000)">
                <g id="Group" transform="translate(7.000000, 8.000000)">
                    <path d="M0,0.619047619 C0,0.27715706 0.275517077,0 0.615384615,0 L14.1538462,0 C14.4937137,0 14.7692308,0.27715706 14.7692308,0.619047619 C14.7692308,0.960938178 14.4937137,1.23809524 14.1538462,1.23809524 L0.615384615,1.23809524 C0.275517077,1.23809524 0,0.960938178 0,0.619047619 Z M0.615384615,6.19047619 L14.1538462,6.19047619 C14.4937137,6.19047619 14.7692308,5.91331913 14.7692308,5.57142857 C14.7692308,5.22953801 14.4937137,4.95238095 14.1538462,4.95238095 L0.615384615,4.95238095 C0.275517077,4.95238095 0,5.22953801 0,5.57142857 C0,5.91331913 0.275517077,6.19047619 0.615384615,6.19047619 Z M8.61538462,9.9047619 L0.615384615,9.9047619 C0.275517077,9.9047619 0,10.181919 0,10.5238095 C0,10.8657001 0.275517077,11.1428571 0.615384615,11.1428571 L8.61538462,11.1428571 C8.95525215,11.1428571 9.23076923,10.8657001 9.23076923,10.5238095 C9.23076923,10.181919 8.95525215,9.9047619 8.61538462,9.9047619 Z M12.8626929,11.4288311 L11.990974,10.5143965 C11.8374386,10.3478517 11.6165147,10.2886162 11.4135325,10.3595693 C11.2105502,10.4305224 11.0572849,10.620557 11.012934,10.8562737 C10.9685831,11.0919903 11.0400894,11.3364896 11.1998342,11.4953354 L12.467123,12.8254221 C12.5751269,12.9376588 12.7162469,12.9999383 12.8626929,13 C13.0114035,13.0004078 13.1549622,12.938204 13.2655882,12.8254221 L15.8001658,10.1652488 C15.9599106,10.006403 16.0314169,9.76190369 15.987066,9.52618704 C15.9427151,9.29047039 15.7894498,9.10043575 15.5864675,9.02948264 C15.3834853,8.95852954 15.1625614,9.01776505 15.009026,9.1843099 L12.8626929,11.4288311 Z" id="Shape"></path>
                </g>
            </g>
        </g>
    </g>
</svg>