<?xml version="1.0" encoding="UTF-8"?>
<svg width="16px" height="13px" viewBox="0 0 16 13" version="1.1" xmlns="http://www.w3.org/2000/svg" xmlns:xlink="http://www.w3.org/1999/xlink">
    <title>Group</title>
    <g id="CLient-Landing" stroke="none" stroke-width="1" fill="none" fill-rule="evenodd">
        <g id="Momotaro-home-Copy-72" transform="translate(-23.000000, -521.000000)" fill="#E8101B" fill-rule="nonzero">
            <g id="Group-17" transform="translate(16.000000, 512.000000)">
                <g id="Group" transform="translate(7.000000, 9.000000)">
                    <path d="M0,0.619047619 C0,0.27715706 0.275517077,0 0.615384615,0 L14.1538462,0 C14.4937137,0 14.7692308,0.27715706 14.7692308,0.619047619 C14.7692308,0.960938178 14.4937137,1.23809524 14.1538462,1.23809524 L0.615384615,1.23809524 C0.275517077,1.23809524 0,0.960938178 0,0.619047619 Z M0.615384615,6.19047619 L14.1538462,6.19047619 C14.4937137,6.19047619 14.7692308,5.91331913 14.7692308,5.57142857 C14.7692308,5.22953801 14.4937137,4.95238095 14.1538462,4.95238095 L0.615384615,4.95238095 C0.275517077,4.95238095 0,5.22953801 0,5.57142857 C0,5.91331913 0.275517077,6.19047619 0.615384615,6.19047619 Z M8.61538462,9.9047619 L0.615384615,9.9047619 C0.275517077,9.9047619 0,10.181919 0,10.5238095 C0,10.8657001 0.275517077,11.1428571 0.615384615,11.1428571 L8.61538462,11.1428571 C8.95525215,11.1428571 9.23076923,10.8657001 9.23076923,10.5238095 C9.23076923,10.181919 8.95525215,9.9047619 8.61538462,9.9047619 Z M15.2816222,11.3915047 L14.4113369,10.5212194 L15.2868025,9.64575385 C15.5285556,9.40400072 15.5297153,9.01320109 15.2893926,8.77287845 C15.04907,8.53255581 14.6582703,8.53371545 14.4165172,8.77546858 L13.5410517,9.65093412 L12.6707664,8.78064885 C12.4304438,8.54032621 12.0396441,8.54148585 11.797891,8.78323899 C11.5561379,9.02499212 11.5549782,9.41579175 11.7953009,9.65611439 L12.6655861,10.5263997 L11.7901206,11.4018652 C11.5483675,11.6436183 11.5472078,12.034418 11.7875305,12.2747406 C12.0278531,12.5150632 12.4186527,12.5139036 12.6604059,12.2721505 L13.5358714,11.3966849 L14.4061567,12.2669702 C14.6464793,12.5072928 15.0372789,12.5061332 15.2790321,12.2643801 C15.5207852,12.0226269 15.5219449,11.6318273 15.2816222,11.3915047 Z" id="Shape"></path>
                </g>
            </g>
        </g>
    </g>
</svg>