<?xml version="1.0" encoding="UTF-8"?>
<svg width="16px" height="15px" viewBox="0 0 16 15" version="1.1" xmlns="http://www.w3.org/2000/svg" xmlns:xlink="http://www.w3.org/1999/xlink">
    <title>CBBA06BA-0A0B-40BC-AD98-24F1F116237A</title>
    <g id="CLient-Landing" stroke="none" stroke-width="1" fill="none" fill-rule="evenodd">
        <g id="Momotaro-home-Copy-533" transform="translate(-23.000000, -464.000000)" fill="#2D3142" fill-rule="nonzero">
            <g id="Group-6-Copy" transform="translate(16.000000, 442.000000)">
                <g id="Group-18-Copy-4" transform="translate(0.000000, 14.000000)">
                    <g id="Group" transform="translate(7.000000, 8.000000)">
                        <path d="M14.7692308,2.5 L11.6923077,2.5 L11.6923077,1.875 C11.6880929,0.841244375 10.8640055,0.00428061657 9.84615385,0 L6.15384615,0 C5.13599446,0.00428061657 4.31190707,0.841244375 4.30769231,1.875 L4.30769231,2.5 L1.23076923,2.5 C0.551034154,2.5 0,3.05964406 0,3.75 L0,13.75 C0,14.4403559 0.551034154,15 1.23076923,15 L14.7692308,15 C15.4489658,15 16,14.4403559 16,13.75 L16,3.75 C16,3.05964406 15.4489658,2.5 14.7692308,2.5 Z M5.53846154,1.875 C5.53846154,1.52982203 5.81397862,1.25 6.15384615,1.25 L9.84615385,1.25 C10.1860214,1.25 10.4615385,1.52982203 10.4615385,1.875 L10.4615385,2.5 L5.53846154,2.5 L5.53846154,1.875 Z M14.7692308,3.75 L14.7692308,7 C12.6926904,8.14978541 10.3650919,8.75152251 8,8.75 C5.63490807,8.75152251 3.30730958,8.14978541 1.23076923,7 L1.23076923,3.75 L14.7692308,3.75 Z M14.7692308,13.75 L1.23076923,13.75 L1.23076923,8.40625 C3.33770168,9.45564393 5.65334962,10.0008409 8,10 C10.346744,10.0016735 12.662575,9.45643349 14.7692308,8.40625 L14.7692308,13.75 Z M6.46153846,6.875 C6.46153846,6.52982203 6.73705554,6.25 7.07692308,6.25 L8.92307692,6.25 C9.26294446,6.25 9.53846154,6.52982203 9.53846154,6.875 C9.53846154,7.22017797 9.26294446,7.5 8.92307692,7.5 L7.07692308,7.5 C6.73705554,7.5 6.46153846,7.22017797 6.46153846,6.875 Z" id="Shape"></path>
                    </g>
                </g>
            </g>
        </g>
    </g>
</svg>