<!-- Generated by IcoMoon.io -->
<svg version="1.1" xmlns="http://www.w3.org/2000/svg" width="32" height="32" viewBox="0 0 32 32">
<title>chat</title>
<path d="M12.833 26.667c-0.552 0-1-0.448-1-1v-0.666c0-0.552 0.448-1 1-1l14-0v-8.792c0-0.552 0.448-1 1-1h0.5c0.552 0 1 0.448 1 1v10.458c0 0.506-0.376 0.925-0.864 0.991l-0.136 0.009h-15.5zM20 5.333c1.473 0 2.667 1.194 2.667 2.667v9.291c0 1.473-1.194 2.667-2.667 2.667l-11.965-0.001-3.832 4.045-0.076-0.082c-0.123 0.052-0.257 0.080-0.398 0.080-0.587 0-1.062-0.494-1.062-1.104 0-0.152 0.029-0.296 0.083-0.428l-0.085-0.090v-4.87c0.005-0.070 0.002-0.143 0.002-0.217v-9.291c0-1.473 1.194-2.667 2.667-2.667h14.667zM20.168 7.998h-15.003v11.113l1.667-1.778h13.336v-9.335z"></path>
</svg>
