<?xml version="1.0" encoding="UTF-8"?>
<svg width="24px" height="24px" viewBox="0 0 24 24" version="1.1" xmlns="http://www.w3.org/2000/svg" xmlns:xlink="http://www.w3.org/1999/xlink">
    <title>ACF5B940-0E96-498C-BD68-F50E3698C1B2</title>
    <g id="Page-1" stroke="none" stroke-width="1" fill="none" fill-rule="evenodd">
        <g id="Customer-Landing-Page-Copy-79" transform="translate(-291.000000, -59.000000)">
            <g id="Group" transform="translate(291.000000, 59.000000)">
                <rect id="Rectangle" x="0" y="0" width="24" height="24"></rect>
                <g id="activity" transform="translate(2.000000, 2.000000)" fill="#2D3142" fill-rule="nonzero">
                    <path d="M12.5925927,2.22222222 C13.0016791,2.22222222 13.3333334,1.89057778 13.3333334,1.48148148 C13.3333334,1.07238519 13.0016791,0.740740566 12.5925927,0.740740566 L9.58498775,0.740740566 C7.77106184,0.740740566 6.34924456,0.740740566 5.22121494,0.86294321 C4.07006434,0.987664198 3.13734336,1.2467358 2.34097793,1.82533333 C1.85885448,2.17561481 1.43487424,2.59959506 1.08459276,3.08170864 C0.505995233,3.87808395 0.24692363,4.81080494 0.122202643,5.96195556 C0,7.08998519 0,8.51180247 0,10.3257284 L0,10.4150123 C0,12.2289383 0,13.6507654 0.122202643,14.7787654 C0.24692363,15.9299753 0.505995233,16.8626173 1.08459276,17.6590617 C1.43487424,18.1411358 1.85885448,18.5651358 2.34096806,18.915358 C3.13734336,19.4940247 4.07006434,19.7530864 5.22121494,19.8778272 C6.34922481,20 7.77106184,20 9.58488898,20 L9.67437046,20 C11.4881976,20 12.9100248,20 14.0380247,19.8778272 C15.1892346,19.7530864 16.1218766,19.4940247 16.918321,18.915358 C17.4003951,18.5651358 17.8243951,18.1411358 18.1746173,17.6590617 C18.753284,16.8626173 19.0123457,15.9299753 19.1370864,14.7787654 C19.2592593,13.6507654 19.2592593,12.2289383 19.2592593,10.4151111 L19.2592593,7.40740741 C19.2592593,6.99831111 18.9276049,6.66666667 18.5185185,6.66666667 C18.1094321,6.66666667 17.7777778,6.99831111 17.7777778,7.40740741 L17.7777778,10.3703704 C17.7777778,12.2386173 17.7767901,13.5802469 17.6641976,14.6192593 C17.5530864,15.6443457 17.340642,16.2865185 16.9760988,16.7882469 C16.7172346,17.1445926 16.4038519,17.4579753 16.0475062,17.7168395 C15.5457778,18.0813827 14.903605,18.2938272 13.8785186,18.4049383 C12.8395062,18.5175309 11.4978766,18.5185185 9.62962972,18.5185185 C7.76138282,18.5185185 6.41974333,18.5175309 5.38078037,18.4049383 C4.35568409,18.2938272 3.71350138,18.0813827 3.21176311,17.7168395 C2.85541743,17.4579753 2.5420446,17.1445926 2.2831409,16.7882469 C1.91860757,16.2865185 1.70612362,15.6443457 1.59506189,14.6192593 C1.48249893,13.5802469 1.48148164,12.2386173 1.48148164,10.3703704 C1.48148164,8.50212346 1.48249893,7.16048395 1.59506189,6.12153086 C1.70612362,5.09642469 1.91860757,4.45424198 2.2831409,3.9525037 C2.5420446,3.59615802 2.85541743,3.28278519 3.21176311,3.02388148 C3.71350138,2.65934815 4.35568409,2.4468642 5.38079025,2.33580247 C6.41974333,2.22323951 7.76138282,2.22222222 9.62962972,2.22222222 L12.5925927,2.22222222 Z" id="Path" stroke="#2D3142" stroke-width="0.5"></path>
                    <path d="M4.02632113,12.8659753 C3.84615323,13.233284 3.99784705,13.6771358 4.36513594,13.857284 C4.73242483,14.0374321 5.17622729,13.8857284 5.35639519,13.5184198 L6.79870629,10.5781728 C7.24574826,9.66676543 8.5597038,9.71130864 8.9440001,10.6508642 C9.81234577,12.7733333 12.780642,12.8738765 13.7906173,10.8150123 L15.2329877,7.87472593 C15.4131358,7.50742716 15.2614321,7.06362469 14.8941235,6.88346667 C14.5268149,6.70329877 14.0830618,6.85499259 13.9028149,7.22228148 L12.4605433,10.1625679 C12.0135309,11.0739753 10.6995556,11.0294321 10.3152593,10.0898765 C9.44691367,7.96738765 6.47856802,7.86683457 5.46862235,9.9257284 L4.02632113,12.8659753 Z" id="Path" stroke="#2D3142" stroke-width="0.5"></path>
                    <path d="M15.0617284,2.4691358 C15.0617284,3.8328 16.1672099,4.9382716 17.5308642,4.9382716 C18.8945185,4.9382716 20,3.8328 20,2.4691358 C20,1.1054716 18.8945185,0 17.5308642,0 C16.1672099,0 15.0617284,1.1054716 15.0617284,2.4691358 Z M16.5432099,2.4691358 C16.5432099,3.01459753 16.9853827,3.45679012 17.5308642,3.45679012 C18.0763457,3.45679012 18.5185185,3.01459753 18.5185185,2.4691358 C18.5185185,1.92367407 18.0763457,1.48148148 17.5308642,1.48148148 C16.9853827,1.48148148 16.5432099,1.92367407 16.5432099,2.4691358 Z" id="Shape"></path>
                </g>
            </g>
        </g>
    </g>
</svg>