<!-- Generated by IcoMoon.io -->
<svg version="1.1" xmlns="http://www.w3.org/2000/svg" width="32" height="32" viewBox="0 0 32 32">
<title>day</title>
<path d="M16.666 26.58c0.651 0 1.18 0.528 1.18 1.18v0 3.060c0 0.653-0.528 1.18-1.18 1.18s-1.18-0.526-1.18-1.18v0-3.060c0-0.651 0.528-1.18 1.18-1.18zM9.656 23.677c0.422 0.422 0.457 1.085 0.105 1.547l-0.105 0.121-2.163 2.166c-0.231 0.229-0.533 0.344-0.835 0.344s-0.604-0.116-0.833-0.344c-0.424-0.424-0.459-1.086-0.106-1.549l0.106-0.121 2.163-2.163c0.46-0.46 1.208-0.46 1.668 0zM25.224 23.571l0.121 0.105 2.163 2.163c0.462 0.462 0.462 1.208 0 1.67-0.229 0.229-0.531 0.344-0.833 0.344-0.252 0-0.503-0.080-0.714-0.239l-0.121-0.105-2.163-2.166c-0.46-0.46-0.46-1.208 0-1.668 0.422-0.422 1.085-0.457 1.547-0.105zM16.666 9.876c3.803 0 6.886 3.083 6.886 6.886s-3.083 6.886-6.886 6.886c-3.803 0-6.886-3.083-6.886-6.886s3.083-6.886 6.886-6.886zM5.573 15.487c0.651 0 1.18 0.528 1.18 1.18s-0.528 1.18-1.18 1.18v0h-3.060c-0.653 0-1.18-0.528-1.18-1.18s0.526-1.18 1.18-1.18v0zM30.82 15.487c0.651 0 1.18 0.528 1.18 1.18s-0.528 1.18-1.18 1.18v0h-3.060c-0.653 0-1.18-0.528-1.18-1.18s0.526-1.18 1.18-1.18v0zM27.509 5.824c0.422 0.422 0.457 1.085 0.105 1.547l-0.105 0.121-2.163 2.166c-0.231 0.229-0.533 0.344-0.835 0.344s-0.604-0.116-0.835-0.344c-0.422-0.424-0.457-1.086-0.105-1.549l0.105-0.121 2.166-2.163c0.46-0.46 1.208-0.46 1.668 0zM7.371 5.717l0.121 0.105 2.163 2.166c0.46 0.46 0.46 1.208 0 1.668-0.231 0.231-0.533 0.344-0.833 0.344-0.252 0-0.503-0.079-0.714-0.239l-0.121-0.106-2.163-2.163c-0.462-0.462-0.462-1.208 0-1.67 0.422-0.422 1.083-0.457 1.547-0.105zM16.666 1.333c0.651 0 1.18 0.526 1.18 1.18v0 3.060c0 0.651-0.528 1.18-1.18 1.18s-1.18-0.528-1.18-1.18v0-3.060c0-0.653 0.528-1.18 1.18-1.18z"></path>
</svg>
