<?xml version="1.0" encoding="UTF-8"?>
<svg width="20px" height="20px" viewBox="0 0 20 20" version="1.1" xmlns="http://www.w3.org/2000/svg" xmlns:xlink="http://www.w3.org/1999/xlink">
    <title>A9CB878A-2F94-4529-818F-562001088A50</title>
    <g id="Page-1" stroke="none" stroke-width="1" fill="none" fill-rule="evenodd">
        <g id="Customer-Landing-Page-Copy-40" transform="translate(-44.000000, -696.000000)">
            <g id="Group-2-Copy-2" transform="translate(16.000000, 664.000000)">
                <g id="Group-10" transform="translate(16.000000, 20.000000)">
                    <g id="Group" transform="translate(12.000000, 12.000000)">
                        <rect id="Rectangle" x="0" y="0" width="20" height="20"></rect>
                        <g transform="translate(3.333333, 2.500000)" id="Path" stroke="#9C9EB9" stroke-linecap="round" stroke-linejoin="round" stroke-width="1.4">
                            <path d="M6.27261037,1.47846842 L1.39391342,1.47846842 C0.624076294,1.47846842 0,2.10254472 0,2.87238184 L0,12.6297758 C0,13.3996129 0.624076294,14.0236892 1.39391342,14.0236892 L11.1513073,14.0236892 C11.9211445,14.0236892 12.5452207,13.3996129 12.5452207,12.6297758 L12.5452207,7.75107879"></path>
                            <path d="M11.4997857,0.433033359 C12.0771635,-0.144344462 13.013278,-0.144344452 13.5906558,0.433033381 C14.1680336,1.01041121 14.1680336,1.94652564 13.5906558,2.52390348 L6.96956708,9.14499221 L4.18174025,9.84194892 L4.87869696,7.05412209 L11.4997857,0.433033359 Z"></path>
                        </g>
                    </g>
                </g>
            </g>
        </g>
    </g>
</svg>