<!-- Generated by IcoMoon.io -->
<svg version="1.1" xmlns="http://www.w3.org/2000/svg" width="32" height="32" viewBox="0 0 32 32">
<title>Filter</title>
<path d="M9.333 2.667v4.168c2.3 0.592 4 2.68 4 5.165s-1.7 4.573-4 5.165v12.168h-2.667v-12.168c-2.3-0.592-4-2.68-4-5.165s1.7-4.573 4-5.165v-4.168h2.667zM25.333 2.663v12.168c2.3 0.592 4 2.68 4 5.165s-1.7 4.573-4 5.165v4.168h-2.667v-4.168c-2.3-0.592-4-2.68-4-5.165s1.7-4.573 4-5.165v-12.168h2.667zM24 17.329c-1.473 0-2.667 1.194-2.667 2.667s1.194 2.667 2.667 2.667c1.473 0 2.667-1.194 2.667-2.667s-1.194-2.667-2.667-2.667zM8 9.333c-1.473 0-2.667 1.194-2.667 2.667s1.194 2.667 2.667 2.667c1.473 0 2.667-1.194 2.667-2.667s-1.194-2.667-2.667-2.667z"></path>
</svg>
