<?xml version="1.0" encoding="UTF-8"?>
<svg width="24px" height="24px" viewBox="0 0 24 24" version="1.1" xmlns="http://www.w3.org/2000/svg" xmlns:xlink="http://www.w3.org/1999/xlink">
    <title>A8FA886B-B3AC-4BB3-9C17-6A50A3AC29E3</title>
    <g id="Page-1" stroke="none" stroke-width="1" fill="none" fill-rule="evenodd">
        <g id="1-Agent-Landing-Page-Copy-23" transform="translate(-303.000000, -378.000000)">
            <g id="Group-14" transform="translate(24.000000, 342.000000)">
                <g id="Group-37" transform="translate(279.000000, 36.000000)">
                    <rect id="Rectangle" x="0" y="0" width="24" height="24"></rect>
                    <path d="M15.7494624,21.6283102 C15.7994552,21.9949271 15.6744731,22.3859851 15.3870144,22.6426169 C15.1534921,22.8714202 14.8364801,23 14.5058907,23 C14.1753013,23 13.8582893,22.8714202 13.624767,22.6426169 L8.61298564,17.7421712 C8.33666407,17.4780507 8.20256481,17.1027755 8.2505376,16.7278645 L8.2505376,10.4709363 L2.26389598,2.97973119 C1.84137821,2.44937556 1.9363138,1.68492112 2.47636552,1.26885238 C2.71383147,1.0977645 2.97629383,1 3.25125441,1 L20.7487456,1 C21.0237062,1 21.2861685,1.0977645 21.5236345,1.26885238 C22.0636862,1.68492112 22.1586218,2.44937556 21.736104,2.97973119 L15.7494624,10.4709363 L15.7494624,21.6283102 M5.80088884,3.44411258 L10.7501792,9.62771742 L10.7501792,16.3734682 L13.2498208,18.8175807 L13.2498208,9.61549686 L18.1991112,3.44411258 L5.80088884,3.44411258 Z" id="Shape" fill="#9C9EB9" fill-rule="nonzero"></path>
                </g>
            </g>
        </g>
    </g>
</svg>