<!-- Generated by IcoMoon.io -->
<svg version="1.1" xmlns="http://www.w3.org/2000/svg" width="32" height="32" viewBox="0 0 32 32">
<title>Grid</title>
<path d="M25.333 2.667c2.209 0 4 1.791 4 4v0 18.667c0 2.209-1.791 4-4 4v0h-18.667c-2.209 0-4-1.791-4-4v0-18.667c0-2.209 1.791-4 4-4v0zM14.667 17.333h-9.333v8c0 0.736 0.597 1.333 1.333 1.333v0h8v-9.333zM26.667 17.333h-9.333v9.333h8c0.736 0 1.333-0.597 1.333-1.333v0-8zM25.333 5.333h-8v9.333h9.333v-8c0-0.736-0.597-1.333-1.333-1.333v0zM14.667 5.333h-8c-0.736 0-1.333 0.597-1.333 1.333v0 8h9.333v-9.333z"></path>
</svg>
