<?xml version="1.0" standalone="no"?>
<!DOCTYPE svg PUBLIC "-//W3C//DTD SVG 20010904//EN"
 "http://www.w3.org/TR/2001/REC-SVG-20010904/DTD/svg10.dtd">
<svg version="1.0" xmlns="http://www.w3.org/2000/svg"
 width="225.000000pt" height="225.000000pt" viewBox="0 0 225.000000 225.000000"
 preserveAspectRatio="xMidYMid meet">

<g transform="translate(0.000000,225.000000) scale(0.100000,-0.100000)"
fill="#000000" stroke="none">
<path d="M96 1160 c-21 -55 -41 -100 -45 -100 -5 0 -16 19 -27 41 -10 23 -20
37 -22 31 -3 -10 44 -112 52 -112 2 0 21 45 42 100 21 55 42 100 45 100 4 0
41 -51 83 -113 l77 -113 43 -269 c41 -261 43 -270 67 -276 67 -19 72 -15 114
79 24 52 57 106 83 134 l44 48 43 -26 43 -25 43 111 c36 94 49 117 84 145 24
20 57 37 81 41 40 6 42 5 82 -46 23 -28 60 -65 82 -81 35 -26 49 -30 92 -27
l51 3 36 102 c20 56 40 105 43 109 4 3 24 -7 45 -24 l38 -30 44 18 c32 12 54
31 81 68 20 29 39 55 43 58 12 12 85 -47 128 -102 23 -30 45 -51 50 -49 4 3
24 33 45 66 l37 61 43 -7 c43 -6 43 -6 80 44 20 28 39 51 42 51 4 0 24 -45 46
-100 l39 -99 44 30 c24 17 42 33 39 36 -3 3 -19 -5 -36 -17 -18 -13 -35 -19
-40 -14 -5 5 -26 53 -48 108 l-39 99 -43 -62 c-44 -62 -44 -62 -89 -60 -44 3
-44 3 -86 -59 l-41 -61 -39 50 c-39 52 -119 114 -134 105 -4 -3 -25 -30 -46
-60 -26 -39 -49 -59 -77 -71 -43 -17 -45 -17 -100 34 -15 13 -29 23 -31 20 -2
-2 -22 -56 -44 -119 l-41 -115 -40 -3 c-50 -4 -100 29 -166 110 l-45 55 -45
-7 c-30 -4 -59 -19 -89 -43 -37 -30 -49 -51 -83 -136 -21 -56 -43 -101 -49
-101 -5 1 -26 9 -45 19 l-34 19 -38 -42 c-21 -22 -61 -85 -88 -138 l-50 -98
-32 7 c-18 3 -35 7 -36 9 -2 1 -23 122 -46 268 l-42 266 -88 130 c-49 71 -89
130 -90 130 -1 0 -19 -45 -40 -100z"/>
</g>
</svg>
