<?xml version="1.0" standalone="no"?>
<!DOCTYPE svg PUBLIC "-//W3C//DTD SVG 20010904//EN"
 "http://www.w3.org/TR/2001/REC-SVG-20010904/DTD/svg10.dtd">
<svg version="1.0" xmlns="http://www.w3.org/2000/svg"
 width="225.000000pt" height="225.000000pt" viewBox="0 0 225.000000 225.000000"
 preserveAspectRatio="xMidYMid meet">

<g transform="translate(0.000000,225.000000) scale(0.100000,-0.100000)"
fill="#000000" stroke="none">
<path d="M942 2215 c-235 -43 -438 -148 -600 -311 -141 -143 -235 -308 -290
-513 -23 -85 -26 -115 -26 -266 0 -151 3 -181 26 -266 56 -205 150 -373 291
-513 144 -144 310 -238 516 -294 85 -23 115 -26 266 -26 152 0 180 3 267 26
320 87 570 286 718 574 98 192 142 445 109 644 -5 35 -12 66 -14 68 -2 2 -104
-18 -228 -44 l-225 -47 1 -106 c1 -186 -59 -335 -184 -460 -120 -120 -274
-184 -444 -184 -279 0 -509 168 -601 438 -23 68 -27 96 -27 190 0 94 4 122 27
190 66 191 192 325 379 399 37 15 91 30 119 33 l50 6 -6 51 c-3 28 -11 135
-18 239 -7 118 -16 187 -22 186 -6 0 -44 -7 -84 -14z"/>
<path d="M1060 2208 c0 -13 7 -113 15 -223 8 -110 15 -208 15 -217 0 -10 5
-18 10 -18 6 0 10 87 10 240 l0 240 -25 0 c-19 0 -25 -5 -25 -22z"/>
</g>
</svg>
