<?xml version="1.0" encoding="UTF-8"?>
<svg width="24px" height="25px" viewBox="0 0 24 25" version="1.1" xmlns="http://www.w3.org/2000/svg" xmlns:xlink="http://www.w3.org/1999/xlink">
    <title>C865E561-6F85-46B1-AFC8-2FB877303257</title>
    <g id="Page-1" stroke="none" stroke-width="1" fill="none" fill-rule="evenodd">
        <g id="1-Agent-Landing-Page-Copy-36" transform="translate(-45.000000, -226.000000)" fill="#7FE3F0">
            <g id="Group-4" transform="translate(25.000000, 117.000000)">
                <g id="Details" transform="translate(0.000000, 89.000000)">
                    <g id="icon3" transform="translate(20.032462, 20.000000)">
                        <path d="M9.12793625,16.278007 C9.50022311,16.278007 9.82149801,16.5415538 9.89784861,16.9094282 C10.1909641,18.3212547 11.2836813,19.4246848 12.6817052,19.7205775 C13.0460558,19.7977249 13.306996,20.1221495 13.306996,20.498038 C13.306996,20.8739264 13.046008,21.1983993 12.6817052,21.2754985 C11.2836335,21.5714394 10.1908685,22.6748695 9.89775299,24.0866478 C9.82140239,24.4546187 9.50007968,24.7180689 9.12784064,24.7180689 C8.75555378,24.7180689 8.43427888,24.4545221 8.35792829,24.0866478 C8.06486056,22.6748695 6.97209562,21.5713911 5.57411952,21.2754502 C5.20976892,21.1983511 4.94882869,20.8738781 4.94882869,20.4979897 C4.94882869,20.1221012 5.20981673,19.7976283 5.57411952,19.7205292 C6.97214343,19.4245882 8.06490837,18.3211582 8.3580239,16.9093799 C8.4343745,16.5414572 8.75569721,16.278007 9.12793625,16.278007 Z M18.7771793,7.93445184 C19.1494661,7.93445184 19.470741,8.19799859 19.5470916,8.56587298 C19.9431873,10.4740403 21.4201434,11.9655247 23.3098327,12.3655519 C23.6741355,12.442651 23.9350757,12.767124 23.9350757,13.1430124 C23.9350757,13.5189009 23.6740876,13.8433255 23.3097849,13.9204729 C21.4201434,14.3204036 19.9431873,15.8118397 19.546996,17.7200553 C19.4706454,18.0880262 19.1493227,18.3514764 18.7770837,18.3514764 C18.4047968,18.3514764 18.0835219,18.0879297 18.0071713,17.7200553 C17.6110757,15.8118397 16.1341195,14.3204036 14.2444781,13.9203764 C13.8801275,13.843229 13.6191873,13.5188043 13.6191873,13.1429159 C13.6191873,12.7670274 13.8801753,12.4425545 14.2444781,12.3654554 C16.1341673,11.9654764 17.6111235,10.4740403 18.0072669,8.5658247 C18.0836175,8.19790204 18.4049402,7.93445184 18.7771793,7.93445184 Z M7.30369721,-9.76996262e-15 C7.67598406,-9.76996262e-15 7.99725896,0.263498477 8.07365737,0.631324584 C8.69560159,3.62771455 11.0148526,5.9697033 13.9821036,6.59784157 C14.3463586,6.67494071 14.6073466,6.99941364 14.6073466,7.37530209 C14.6073466,7.75123881 14.3463586,8.07566346 13.9820558,8.1527626 C11.0148048,8.78075603 8.69550598,11.1226965 8.07346614,14.1190382 C7.99711554,14.4869609 7.67579283,14.7504593 7.30355378,14.7504593 C6.93126693,14.7504593 6.60999203,14.4869126 6.53364143,14.1190382 C5.9116494,11.1226965 3.59249402,8.78075603 0.625290837,8.15261776 C0.260940239,8.07551863 -2.66453526e-15,7.7510457 -2.66453526e-15,7.37515725 C-2.66453526e-15,6.99926881 0.260988048,6.67479588 0.625290837,6.59769674 C3.59254183,5.96965503 5.91179283,3.62771455 6.53378486,0.631372861 C6.61013546,0.263498477 6.93141036,-9.76996262e-15 7.30369721,-9.76996262e-15 Z" id="Shape"></path>
                    </g>
                </g>
            </g>
        </g>
    </g>
</svg>