<?xml version="1.0" encoding="UTF-8"?>
<svg width="246px" height="234px" viewBox="0 0 246 234" version="1.1" xmlns="http://www.w3.org/2000/svg" xmlns:xlink="http://www.w3.org/1999/xlink">
    <title>F8A2BF9F-CD4D-4AB9-A32B-93BBFBFC7007</title>
    <g id="Page-1" stroke="none" stroke-width="1" fill="none" fill-rule="evenodd">
        <g id="1-Agent-Landing-Page-Copy-8" transform="translate(-64.000000, -529.000000)" fill-rule="nonzero">
            <g id="09_loading" transform="translate(64.000000, 529.000000)">
                <g id="yellow" transform="translate(40.000000, 1.000000)" fill="#B8BEFA">
                    <g id="Group">
                        <path d="M173.997719,71.8318877 C173.72796,69.2408477 173.242394,66.6633027 172.581485,64.1532328 C171.947551,61.7511228 171.151762,59.3894978 170.18063,57.0953479 C169.492744,55.4489579 168.750907,53.7485879 167.847215,52.1561779 C167.658383,51.2385179 167.321185,50.3883329 166.822131,49.767563 C166.673763,49.578633 166.49842,49.484168 166.309589,49.457178 C161.858565,41.6705631 157.232199,33.9244331 151.391917,27.0959632 C148.276201,23.4523133 144.809798,20.1325433 140.938756,17.3120883 C137.323986,14.6805634 133.358529,12.5888384 129.190753,10.9694384 C128.610771,10.5375984 128.017301,10.1327484 127.423831,9.72789844 C126.088524,8.85072345 124.699266,8.06801346 123.256055,7.37976847 C120.666369,6.13822848 117.928315,5.2070735 115.109334,4.6807685 C114.205641,4.28941351 113.301949,3.92504851 112.384768,3.60116852 C112.101521,3.49320852 111.831762,3.60116852 111.656419,3.79009851 C110.159256,3.23680352 108.594654,2.79146853 107.097492,2.37312353 C104.683149,1.69837354 102.24183,1.17206854 99.7735357,0.78071355 C94.8369463,0.011498559 89.8194293,-0.204421438 84.8423761,0.200428557 C82.3201296,0.402853554 79.7439313,0.699743551 77.2621487,1.26653354 C73.472035,1.50944354 69.7088972,2.02225353 66.0131992,2.81845852 C64.1113983,3.22330852 62.1961096,3.68213851 60.3347726,4.26242351 C60.1729172,4.05999851 59.9031582,3.95203851 59.5524716,4.07349351 C53.7796294,6.07075349 48.2091064,8.90470345 43.002758,12.0895234 C37.8233856,15.2473534 32.940748,18.9044983 28.449261,22.9664933 C25.9135266,25.2606433 23.3643042,27.6762482 21.2062323,30.3482582 C20.8960095,30.7261182 21.0039131,31.1849482 21.2601841,31.4548482 C19.7225579,33.1552182 18.2523715,34.9230631 16.8496248,36.7448881 C11.4004934,43.883743 7.13830144,51.8997729 4.25188034,60.3881278 C1.2440677,69.2543427 -0.172166957,78.6738526 0.0166643305,88.0393825 C0.218983567,97.8097624 2.03985669,107.526162 5.29045242,116.743247 C8.56802405,126.027807 13.2618303,134.813052 19.2639677,142.613162 C20.7071782,144.502462 22.2313165,146.337782 23.8094065,148.105627 C23.8768462,148.186597 23.9577739,148.240577 24.0387016,148.294557 C24.3354365,148.645427 24.9154183,148.820862 25.2391291,148.389022 C28.1525261,144.623917 31.0389472,140.831822 33.9253683,137.053222 C34.1951273,136.702352 34.006296,136.176047 33.6825852,135.933137 C34.2221032,135.784692 34.5997658,135.082952 34.0737358,134.597132 C30.3375739,131.128917 27.0330263,127.228862 24.1870691,123.018422 C24.214045,122.869977 24.1870691,122.708037 24.1061414,122.532602 C23.148497,120.440877 22.082949,118.430122 21.1927444,116.311407 C20.3025397,114.165702 19.5202387,111.979512 18.8458412,109.752837 C17.5105343,105.326477 16.6338176,100.792157 16.1347635,96.2038574 C16.0942996,95.7855124 15.7975648,95.5291074 15.460366,95.4481374 C15.1231673,90.8058575 15.1636311,86.1230925 15.5817576,81.4673176 C15.7571009,79.4160776 16.0133719,77.3783326 16.3370827,75.3405876 C17.321703,70.5768527 18.6974738,65.9075828 20.4509072,61.3732628 C21.3276239,59.1061028 22.2987562,56.8794279 23.3373283,54.6797429 C23.3777921,54.5852779 23.404768,54.4908129 23.418256,54.4098429 C24.3624124,52.7499579 25.3065688,51.0900729 26.3046771,49.470673 C27.8018394,47.055068 29.3664415,44.693443 30.9849954,42.385798 C31.1738267,42.115898 31.3761459,41.845998 31.5649772,41.5626031 C34.2221032,39.6463131 36.7038858,37.4331331 39.1586926,35.2874281 C41.1414211,33.5465732 43.0971737,31.7517382 45.0664142,29.9838932 C45.7408117,29.4710832 46.4286971,28.9582732 47.1165825,28.4589582 C50.164859,26.2322832 53.3075511,24.1270633 56.517683,22.1567933 C56.6795384,22.2512583 56.8818576,22.2917433 57.0976648,22.2242683 C57.32696,22.1567933 57.5427671,22.0758233 57.7585743,21.9948533 C57.8664779,21.9543683 57.9474056,21.9003883 58.0148454,21.8464083 C65.514145,18.7155683 73.3506435,16.4619034 81.3624852,15.2338584 C81.4569009,15.5577384 81.6996839,15.8276384 82.0908345,15.8141434 C84.6940086,15.6791934 87.2702069,15.4497784 89.886869,15.4362834 C92.017965,15.4227884 94.1490609,15.5037584 96.2801569,15.6522034 C96.3206207,15.9355984 96.4959641,16.1785084 96.8331628,16.2324884 C101.985559,17.0017034 106.976101,18.0543133 111.885714,19.8221583 C116.781839,21.5900033 121.475646,23.8976483 125.886205,26.6506282 C127.113608,27.4198432 128.314036,28.2160482 129.487488,29.0527382 C130.687915,29.9029232 131.820903,30.9015532 133.102258,31.6302832 C133.264113,31.7247482 133.439457,31.7652332 133.587824,31.7517382 C133.6148,31.7787282 133.641776,31.8057182 133.668752,31.8192132 C139.724841,37.0012931 144.998629,43.087538 149.220357,49.862028 C150.245441,51.5084179 151.216573,53.1952929 152.106778,54.9091579 C152.120266,54.9496429 152.147242,54.9766329 152.16073,55.0036229 C152.187706,55.0710979 152.214682,55.1520679 152.255146,55.2195429 C152.376537,55.4354629 152.511417,55.6378879 152.646296,55.8538079 C152.214682,55.9482729 151.850507,56.4205979 152.133754,56.9334079 C155.600157,63.1546028 158.891217,70.4688927 159.619566,77.5537676 C159.767933,79.0247226 159.848861,81.0354776 161.642758,81.4403276 C163.463631,81.8586726 164.205468,79.8884026 164.380812,78.4849226 C164.798938,74.9492326 163.66595,71.0356827 163.166896,67.5134877 C163.13992,67.3650427 163.126433,67.2031027 163.099457,67.0546577 C163.585023,66.7307777 164.448252,67.1356277 164.78545,67.4864977 C165.554263,68.2827027 165.931926,69.4837577 166.296101,70.4958827 C167.145841,72.8305177 167.671871,75.2866076 168.022558,77.7426976 C168.373245,80.2797576 168.656492,87.5805525 168.804859,90.1446025 C168.872299,91.3996374 168.953227,92.6546724 169.034154,93.9097074 C169.101594,94.8273674 169.155546,95.8394924 169.749016,96.5952124 C170.369461,97.3779224 171.435009,97.5533574 172.298238,97.0540424 C173.296346,96.4737574 173.647033,95.3266824 173.943768,94.2740724 C174.645141,91.8314774 174.887924,84.5576725 174.968852,82.0206126 C175.117219,78.5658926 174.726069,75.1651526 173.997719,71.8318877 Z" id="Path" opacity="0.20236642"></path>
                        <path d="M162.991553,84.0718525 C162.209252,84.1393275 161.818101,84.7466025 161.76415,85.2998975 C161.683222,86.1230925 161.804614,86.9867725 161.899029,87.8099675 C161.899029,87.9179275 161.899029,88.0258875 161.899029,88.1473425 C161.899029,88.5386975 161.899029,88.9300525 161.899029,89.3214075 C161.899029,89.7262575 161.845077,90.1715925 161.966469,90.5629475 C162.1553,91.1702224 162.951089,91.5885674 163.73339,91.2376974 C164.461739,90.9003225 164.637083,90.0906225 164.798938,89.4968425 C165.203577,88.0123925 165.122649,86.3794975 164.448252,85.0030075 C164.205468,84.5171875 163.73339,84.0178725 162.991553,84.0718525 Z" id="Path"></path>
                    </g>
                    <path d="M46.6984561,164.137687 C43.0567098,165.095832 39.3744997,164.475062 36.0969281,162.680227 C32.954236,160.952867 29.4338813,158.564252 25.6842314,159.765307 C25.0907617,159.954237 25.009834,160.561512 25.2526171,160.966362 C24.6456593,162.180912 24.2545088,163.462937 24.0656775,164.812437 C23.9712619,165.487187 24.5107799,166.418342 25.3335447,166.080967 C26.9655866,165.419712 28.705532,165.122822 30.4589654,165.392722 C32.2933265,165.676117 33.8579286,166.499312 35.2876512,167.646387 C36.7713256,168.820452 38.1740723,170.035001 39.9409936,170.750236 C41.7483788,171.478966 43.6636675,171.640906 45.5924443,171.384501 C45.9431309,171.330521 46.2128899,170.966156 46.3207935,170.655771 C46.8737994,168.914917 47.4268053,167.160567 47.9932992,165.419712 C48.2225943,164.637002 47.4402933,163.935262 46.6984561,164.137687 Z" id="Path" opacity="0.20236642"></path>
                    <path d="M140.291335,153.571102 C138.052335,151.762772 135.138938,152.262087 132.711107,153.382172 C127.653126,155.730302 124.429507,160.507532 119.897556,163.597887 C117.348333,165.338742 114.232617,166.512807 111.130389,165.811067 C110.631335,165.703107 110.051353,166.053977 110.078329,166.607272 C110.132281,167.767842 110.172744,168.914917 110.240184,170.075486 C110.253672,170.237426 110.294136,170.358881 110.361576,170.466841 C110.240184,170.898681 110.455991,171.344016 110.833654,171.613916 C114.54284,174.326411 119.425478,172.653031 122.662585,170.061991 C126.155964,167.282022 128.651235,163.058087 132.859475,161.209272 C135.341257,160.129672 138.038847,160.251127 140.507142,161.290242 C140.992708,161.492667 141.748033,161.060827 141.828961,160.534522 C142.193136,158.132412 142.408943,155.298462 140.291335,153.571102 Z" id="Path" opacity="0.20236642"></path>
                    <path d="M103.833408,123.099392 C102.255318,127.552742 99.3554093,131.709202 95.4843679,134.435192 C91.5593747,137.201667 86.6092974,138.618642 81.8210755,137.795447 C79.4337085,137.390597 77.181221,136.513422 75.1445407,135.231397 C74.8343179,135.028972 74.537583,134.826547 74.2408481,134.624122 C74.1464325,134.556647 74.0385289,134.502667 73.9441132,134.489172 C73.6473783,134.178787 73.3641314,133.868402 73.0943724,133.544522 C71.0442042,131.061442 69.7898249,128.038562 68.6568372,125.042672 C68.4814938,124.475882 68.2926626,123.909092 68.1173192,123.342302 C67.7801205,122.249207 66.053663,122.708037 66.3908617,123.814627 C67.5508254,127.633712 68.7782287,131.560757 71.2195475,134.786062 C73.4450591,137.741467 76.5068235,139.765717 80.1485698,140.467457 C83.7768281,141.182692 87.5534538,140.764347 91.0738085,139.725232 C94.661603,138.659127 98.10103,136.904777 100.690716,134.151797 C103.469234,131.196392 105.168715,127.390802 105.586842,123.355797 C105.708233,122.276197 104.143631,122.195227 103.833408,123.099392 Z" id="Path" opacity="0.20236642"></path>
                </g>
                <g id="Black" fill="#9C9EB9">
                    <path d="M237.306369,153.622415 C231.722839,160.043584 226.247203,166.559182 220.677159,172.980351 C217.952828,176.123486 215.21501,179.266621 212.463705,182.396266 C209.847268,185.364033 207.271292,188.37227 204.46604,191.178159 C199.233166,196.425711 192.813455,201.160648 185.247366,202.077958 C178.22075,202.914329 171.558276,199.825153 166.527704,195.076725 C160.607004,189.491927 157.100439,181.937611 153.998478,174.518194 C154.875119,174.680072 155.792221,174.707051 156.695836,174.612623 C159.285299,174.329336 161.605027,173.07478 163.641532,171.509957 C167.728028,168.366822 171.261567,163.14625 176.737203,162.444778 C177.263188,163.618395 177.92404,164.738052 178.517459,165.8712 C179.137851,167.044817 179.77173,168.231923 180.392123,169.40554 C181.012515,170.579157 181.646394,171.766264 182.266786,172.939881 C182.914152,174.167457 183.507571,175.489463 184.289804,176.64959 C183.305269,177.243143 182.307247,177.809717 181.282251,178.322331 C180.365149,178.780986 181.174356,180.116481 182.077971,179.684806 C191.100633,175.368054 197.897974,167.584411 204.196304,160.043584 C207.460107,156.118038 210.696936,152.165512 214.257448,148.496272 C216.010731,146.688632 217.844934,144.961932 219.787031,143.370129 C220.75808,142.574228 221.769589,141.805307 222.808072,141.090344 C223.765634,140.429342 224.763656,139.646931 225.869573,139.255725 C226.355097,139.080357 227.002463,138.891499 227.474501,139.215255 C227.933051,139.512032 227.933051,140.119075 227.852131,140.60471 C227.636342,141.845776 226.840622,143.046373 226.152795,144.085091 C224.642275,146.391856 222.673204,148.361374 220.434397,149.966666 C219.638677,150.53324 220.366963,151.855245 221.216631,151.302161 C223.401491,149.885727 225.249181,148.064597 226.800161,145.97367 C227.555421,144.948442 228.243248,143.855764 228.796206,142.709127 C229.295217,141.670408 229.713308,140.442832 229.389625,139.296194 C229.065942,138.149557 228.013972,137.434595 226.854108,137.421105 C225.721218,137.407615 224.628788,137.960699 223.6982,138.554253 C221.378472,140.011156 219.207099,141.683898 217.157108,143.491538 C209.051548,150.627669 203.009467,159.692848 195.524299,167.436022 C192.489772,170.565667 189.225969,173.452495 185.61151,175.826709 C185.099012,174.639602 184.424672,173.506455 183.80428,172.373307 C183.170401,171.19969 182.550009,170.026073 181.91613,168.838967 C181.727315,168.474741 181.525013,168.110515 181.336198,167.746289 C182.158892,167.301124 182.752311,166.491733 182.941126,165.547443 C183.04902,165.021339 183.156914,164.549194 183.197375,163.834232 C183.507571,158.802518 182.037511,153.730334 180.095413,149.116805 C177.991474,144.112071 174.781619,139.539012 170.722095,135.937222 C168.712564,134.156561 166.514217,132.605229 164.140543,131.350673 C161.21391,129.79934 158.071488,128.706662 154.95604,127.587004 C149.210668,125.536547 142.885364,123.175823 139.324852,117.887802 C135.022567,111.493613 135.615985,103.413193 136.344272,96.1151835 C137.126506,96.0072647 137.895253,95.6160591 138.380777,95.0359955 C138.637026,94.7257289 138.866301,94.3884827 139.04163,94.0107669 C139.189984,93.9837872 139.338339,93.9028481 139.473207,93.7544597 C142.979772,89.6805249 145.434367,84.7567296 146.621205,79.5091778 C147.835016,74.1402174 147.888963,68.1642137 145.731077,63.0245807 C144.854435,60.9471437 143.586677,58.8831966 141.900829,57.318374 C142.993259,56.3066352 143.91036,55.0925487 144.571213,53.7570535 C146.418903,50.020365 146.284035,45.3528768 144.126149,41.7645766 C142.049183,38.3111749 138.299856,36.0179004 134.307767,35.6536744 C130.383112,35.2894484 126.310101,37.0161493 123.747612,39.9974062 C121.104201,43.0730921 120.160126,47.3493746 121.144662,51.2344515 C120.591703,51.1535124 120.038745,51.0860632 119.499273,51.0455936 C116.100603,50.829756 112.647985,51.6661267 109.734839,53.446787 C103.760191,57.0890466 100.361521,63.9553804 100.469415,70.8756736 C100.523362,75.1249764 101.804607,79.3338097 103.97598,82.9625795 C103.962493,88.3989891 104.69078,93.8623785 106.120379,99.0694608 C106.970047,102.172126 108.224318,105.396201 110.773321,107.514107 C111.528582,108.13464 112.351276,108.660744 113.21443,109.07893 C113.146996,109.240808 113.120023,109.416176 113.160483,109.632014 C114.131532,114.259032 112.216408,119.263767 108.615435,122.272003 C104.205255,125.968222 98.0148196,125.334199 92.6740514,126.15708 C89.9497202,126.575266 87.3602568,127.452106 85.0270425,128.935989 C82.761262,130.365913 80.7787041,132.227513 79.0389084,134.25099 C75.2760945,138.662171 72.3224879,143.842274 69.8004585,149.035866 C66.8198782,155.173748 64.4462035,161.689346 62.9896304,168.366822 C62.9087096,168.717558 62.94917,169.44601 63.137985,170.039563 C63.650483,171.604386 65.1744901,172.562165 66.8063914,173.317597 C66.5366557,173.9786 66.2804067,174.639602 66.0511313,175.314095 C58.1343866,170.525198 53.198222,162.080552 48.9094233,153.986641 C46.0906846,148.67164 43.2314855,143.410599 40.1295242,138.257476 C38.5785435,135.680915 36.9736157,133.131333 35.3282275,130.608731 C34.0065223,128.585253 32.6038963,125.819834 30.0414065,125.212791 C28.800622,124.916014 27.397996,125.145341 26.5213547,126.1301 C25.6716871,127.07439 25.5098456,128.355926 25.6716871,129.570012 C25.8605021,131.080876 26.4269472,132.52429 26.8989848,133.967704 C27.4384563,135.653935 27.9914147,137.340166 28.544373,139.026397 C28.8680559,140.011156 30.4190366,139.592971 30.0953536,138.594722 C29.2321992,135.842793 28.1802297,133.104353 27.4789167,130.311954 C27.2496413,129.408134 27.0203659,128.221027 27.6002978,127.398146 C28.2206901,126.507816 29.4749614,126.588755 30.3381158,127.04741 C31.4170589,127.627474 32.1318587,128.720152 32.7927113,129.704911 C33.6019186,130.918997 34.3976391,132.146574 35.1933596,133.37415 C36.7308535,135.761854 38.2144002,138.176537 39.6709734,140.6182 C42.5976064,145.555485 45.2949641,150.614179 47.9923217,155.672873 C50.5278379,160.43479 53.2117088,165.156237 56.704787,169.284132 C60.1978652,173.425516 64.5810714,177.054285 69.7465113,178.875415 C70.7445336,179.226151 71.1356505,177.674819 70.1780885,177.310593 C69.2609869,176.946367 68.3708589,176.541671 67.5211912,176.096506 C68.0741495,174.585643 68.681055,173.088269 69.3688812,171.631366 C69.7195377,170.889424 70.083681,170.160972 70.4747979,169.43252 C70.8119676,168.811987 71.1895976,168.204944 71.5132806,167.557431 C74.5073476,168.825477 76.9754298,171.28063 79.9425233,172.602635 C81.7497529,173.412026 83.8132315,173.93813 85.7823026,173.533435 C85.7283555,174.666582 85.7418422,175.78624 85.8362498,176.919387 C86.267827,182.086 88.1424906,186.915366 89.8148523,191.785202 C89.6530109,191.839161 89.4911694,191.96057 89.3697883,192.135938 C88.9112375,192.86439 88.4122263,193.552372 87.8862416,194.226865 C87.7918341,194.267334 86.2543402,196.007525 85.566514,196.789936 C83.0444846,199.447437 79.9964704,202.631042 77.3665467,203.993517 C72.8754462,206.300281 67.4942176,206.502629 62.6389739,205.194113 C56.5699191,203.561841 51.4044792,199.582335 47.0887069,195.144175 C37.526574,185.283094 30.8641006,172.966861 24.2825479,161.028343 C20.1825642,153.595436 16.1095542,146.149038 11.9825969,138.729621 C11.4835858,137.839291 10.1214201,138.635192 10.6069445,139.525522 C14.3292981,146.364876 18.092112,153.19074 21.8414392,160.016604 C25.3075438,166.329854 28.7601616,172.670084 32.5904095,178.780986 C36.2857895,184.676051 40.3587996,190.422727 45.1196358,195.508401 C49.4758685,200.162399 54.6413084,204.330763 60.7643103,206.38122 C67.1975083,208.539596 74.7905701,208.18886 80.3606137,204.033986 C80.4819948,203.953047 83.4895486,201.349506 84.7977671,200.04099 C85.3237518,199.514886 85.8362498,198.988782 86.3352609,198.449188 C87.414204,197.450939 88.3987395,196.371751 89.3023544,195.211624 C89.6934712,194.69901 90.0711013,194.172906 90.4217578,193.646801 C90.4622182,193.75472 90.4891917,193.876129 90.5296521,193.984048 C91.554648,197.167652 92.2964214,200.378237 92.5931307,203.72372 C92.6875382,204.735458 94.1980585,204.762438 94.1845717,203.72372 C94.1171378,197.963553 91.7299763,192.419225 89.9092598,187.050265 C88.048083,181.559895 86.6589438,175.894158 87.859268,170.107013 C88.1829509,168.5287 88.6684753,166.990857 89.3023544,165.506974 C89.7878787,164.387316 90.3947842,163.362087 91.0151765,162.323369 C91.0691236,162.782024 91.0826104,163.240679 91.0691236,163.739803 C91.04215,164.751542 92.4717496,164.684093 92.5931307,163.739803 C92.8493797,161.783775 92.3503685,159.53097 91.2309651,157.898698 C90.66452,157.075817 89.4237355,157.777289 89.8822863,158.681109 C90.152022,159.193724 90.3678106,159.706338 90.5431389,160.218952 C88.6684753,162.431288 87.4276908,165.345095 86.6454571,168.110515 C86.2948006,169.351581 86.0385516,170.619627 85.8901969,171.887673 C85.8632233,171.887673 85.8497365,171.887673 85.822763,171.901163 C80.9944928,172.778003 77.4339806,168.879436 73.5632724,166.74804 C71.6211749,165.682342 69.3553944,164.872951 67.1165876,165.183217 C66.5096821,165.264156 65.8892898,165.453014 65.3363315,165.736301 C66.7119839,160.745056 68.424806,155.861731 70.6231525,151.153773 C73.0912348,145.879241 75.9908943,140.57773 79.6862743,136.05863 C81.3721228,133.981193 83.3007336,132.052145 85.5395404,130.568261 C87.9267019,128.989949 90.5431389,128.113108 93.3618776,127.708413 C98.9184344,126.912512 104.879595,127.371167 109.546024,123.688438 C113.672981,120.410404 115.81738,114.933525 114.967713,109.739932 C116.410799,110.185097 117.921319,110.387445 119.431839,110.319996 C123.343008,110.171608 126.970954,108.431417 130.005481,106.030224 C130.720281,105.46365 129.762719,104.195604 129.020946,104.748688 C126.471943,106.664246 123.50485,108.202089 120.294994,108.525846 C117.462768,108.822623 114.455215,108.17511 112.175947,106.407939 C109.721352,104.51936 108.574975,101.484144 107.779254,98.597316 C106.848666,95.2113636 106.214787,91.744472 105.891104,88.2506008 C105.540447,84.4194833 105.580908,80.5883658 105.918078,76.7572483 C107.563466,73.452235 109.869707,70.6733258 113.093049,68.7577671 C116.667048,66.6263707 120.955847,65.8709391 125.042343,66.599391 C126.202207,66.8017388 127.348584,67.1254952 128.441014,67.5436806 C129.412063,67.9213964 130.288704,68.4205208 131.192319,68.9196453 C130.720281,70.4979578 130.504493,72.1706992 130.504493,73.7759914 C130.491006,77.6475784 131.610409,81.5731249 132.972575,85.1614251 C132.986062,85.1884048 132.986062,85.2018946 132.999549,85.2288743 C132.810733,85.6470597 132.716326,86.1192044 132.716326,86.6183289 C132.716326,87.6435575 134.280793,87.6435575 134.307767,86.6183289 C134.334741,85.2963236 135.696906,84.3520341 136.910717,85.0130367 C138.138015,85.6605495 138.218936,87.5626184 138.259396,88.7632151 C138.313343,90.2605885 138.205449,92.0007792 137.531109,93.3632541 C137.27486,93.8758684 136.870257,94.4154624 136.263351,94.4964015 C135.8048,94.5638507 135.38671,94.4289522 135.170921,94.0107669 C134.698884,93.0664774 133.390665,93.9028481 133.795269,94.8201579 C134.011058,95.3327722 134.361714,95.6700185 134.766318,95.8858561 C134.051518,102.590312 133.57948,109.605034 136.384732,115.918284 C138.947222,121.70543 144.234043,125.118362 149.898494,127.438616 C155.738274,129.839809 161.901736,131.377652 167.094149,135.127831 C171.490842,138.297945 175.037868,142.601208 177.492463,147.417084 C178.881602,150.128544 179.893111,153.015372 180.540477,155.983139 C180.945081,157.885208 181.147383,159.787277 181.214817,161.716326 C179.043444,160.191973 175.941483,160.664117 173.621755,161.621897 C168.092172,163.915171 164.976724,169.540439 159.608982,172.063041 C156.965571,173.317597 153.539927,173.465985 151.206713,171.455998 C150.451453,170.808485 149.37251,171.847203 150.100796,172.562165 C150.680728,173.128739 151.341581,173.587394 152.05638,173.92464 C152.05638,174.005579 152.083354,174.086518 152.123814,174.180947 C153.836636,178.349311 155.643866,182.558144 157.909647,186.497181 C157.828726,186.618589 157.774779,186.766978 157.761292,186.942346 C157.666884,189.559377 157.585964,192.162918 157.505043,194.779949 C157.424122,197.38349 157.22182,200.014011 157.356688,202.617552 C157.410635,203.629291 158.799775,203.602311 158.907669,202.617552 C159.190891,200.027501 159.123457,197.38349 159.190891,194.779949 C159.244839,192.796941 159.285299,190.827423 159.325759,188.844415 C160.593517,190.813933 161.996143,192.689022 163.574098,194.442703 C168.213553,199.541866 174.56583,203.453923 181.565473,203.872108 C189.401297,204.344253 196.711137,200.364747 202.456508,195.373502 C205.450575,192.769961 208.120959,189.842664 210.750883,186.888386 C213.596595,183.677802 216.415334,180.453728 219.234073,177.216164 C225.694245,169.810236 232.18139,162.390818 238.452746,154.823012 C239.113599,153.973152 237.994196,152.826514 237.306369,153.622415 Z M111.097004,56.8866988 C109.384182,58.3436026 107.846688,59.9623847 106.619391,61.8509637 C105.378606,63.7800123 104.623346,65.8034899 103.895059,67.9618659 C103.571376,68.9061554 102.249671,68.5149498 102.424999,67.5571704 C102.856577,65.2369161 104.01644,62.9166619 105.297685,60.9471437 C106.619391,58.9236662 108.237805,57.1160263 110.152929,55.6591224 C110.854242,55.1060386 111.757857,56.3066352 111.097004,56.8866988 Z M117.125599,54.1077896 C116.694021,54.3236272 116.262444,54.4989953 115.830867,54.6608735 C115.48021,54.795772 115.075607,54.5394648 114.940739,54.2291983 C114.805871,53.9054419 114.913765,53.4602768 115.250935,53.2849088 C115.669026,53.0690712 116.100603,52.8667234 116.53218,52.6913554 C116.896323,52.542967 117.314414,52.812764 117.449282,53.1365204 C117.584149,53.4602768 117.476255,53.9324216 117.125599,54.1077896 Z M128.845618,40.105325 C127.20023,41.1710232 126.040366,42.8572545 125.500894,44.7323437 C125.231158,45.690123 123.788072,45.2854275 124.017347,44.3276482 C125.217672,39.4308325 130.477519,36.1123293 135.413684,37.5017839 C136.398219,37.7850707 135.980129,39.201505 134.995593,39.026137 C132.851194,38.6214415 130.693308,38.8912385 128.845618,40.105325 Z M132.797247,70.4439984 C132.770273,69.9448739 132.756786,69.4457494 132.797247,68.946625 C132.891654,67.9483761 134.25382,67.9483761 134.348227,68.946625 C134.388688,69.4457494 134.375201,69.9448739 134.348227,70.4439984 C134.29428,71.4422473 132.851194,71.4422473 132.797247,70.4439984 Z M134.901186,81.829432 C133.768295,79.2663605 133.228824,76.514431 133.20185,73.7085421 C133.188364,72.7102932 134.698884,72.7237831 134.739344,73.7085421 C134.847239,76.2985934 135.440657,78.7942157 136.303812,81.2358786 C136.614008,82.0587595 135.251842,82.6253332 134.901186,81.829432 Z M138.070581,39.5522411 C137.733411,39.3364035 137.61203,38.9451979 137.746898,38.5809719 C137.881766,38.2572155 138.313343,37.9874185 138.664,38.1358069 C139.176498,38.3516445 139.662022,38.6214415 140.147546,38.8912385 C140.51169,39.0935862 140.633071,39.6062005 140.430769,39.9569366 C140.201493,40.3346525 139.742943,40.4290814 139.365313,40.2402235 C138.947222,40.0378758 138.488671,39.8220381 138.070581,39.5522411 Z" id="Shape"></path>
                    <path d="M234.217895,139.431093 C233.085005,138.486803 231.453103,138.837539 230.279753,139.512032 C229.524492,139.943707 230.023504,141.157794 230.873171,140.928466 C231.50705,140.753098 232.275797,140.321423 232.950137,140.57773 C233.799804,140.901487 233.233359,141.845776 232.882703,142.331411 C232.356718,143.059863 233.530069,143.963683 234.123487,143.28919 C235.081049,142.223492 235.472166,140.469811 234.217895,139.431093 Z" id="Path"></path>
                    <path d="M236.213939,134.062132 C233.557042,132.996434 230.75179,134.116092 228.52647,135.640445 C227.676802,136.220509 228.472523,137.596473 229.335677,137.01641 C230.967579,135.923732 232.950137,134.925483 234.973155,135.384138 C236.618543,135.761854 238.169524,137.421105 237.400777,139.188276 C236.996173,140.105585 238.304392,140.928466 238.776429,139.997667 C239.963267,137.650433 238.533667,134.992932 236.213939,134.062132 Z" id="Path"></path>
                    <path d="M245.425416,141.791817 C240.030701,140.672159 233.988619,143.356639 231.345209,148.239965 C230.859685,149.130295 232.154416,149.885727 232.707375,149.035866 C233.975133,147.079838 235.58006,145.474546 237.683999,144.408848 C239.94978,143.2757 242.51227,142.978924 244.993839,143.31617 C245.978374,143.451068 246.450412,142.007654 245.425416,141.791817 Z" id="Path"></path>
                    <path d="M243.631673,147.727351 C241.446813,147.147287 239.059652,147.457554 237.00966,148.388354 C235.269864,149.184255 233.368227,150.654648 232.55902,152.448798 C232.235337,153.150271 233.152439,154.08107 233.73237,153.366108 C234.271842,152.705106 234.74388,152.017123 235.364272,151.43706 C236.011638,150.830016 236.739924,150.330892 237.535645,149.939686 C239.315901,149.062846 241.284972,148.941437 243.213583,149.265194 C244.198118,149.400092 244.629695,147.983658 243.631673,147.727351 Z" id="Path"></path>
                    <path d="M141.469252,126.467347 C139.149524,131.472081 135.090001,135.370648 129.762719,136.98943 C124.543332,138.581232 118.083161,138.055128 114.198966,133.846295 C112.108513,131.58 110.935163,128.625723 109.788786,125.806344 C109.411156,124.862055 107.860175,125.26675 108.237805,126.238019 C109.330235,129.016928 110.463125,131.822817 112.324302,134.183541 C114.212452,136.571245 116.842376,138.163047 119.782496,138.918479 C125.784117,140.456322 132.392643,138.743111 137.153479,134.858034 C139.675509,132.807576 141.712014,130.096116 142.952798,127.10137 C143.303455,126.251509 141.860368,125.630976 141.469252,126.467347 Z" id="Path"></path>
                    <path d="M140.673531,133.38764 C139.028143,135.330178 137.2344,137.056879 135.116974,138.486803 C134.280793,139.053377 135.036054,140.388872 135.912695,139.849278 C138.218936,138.419354 140.309388,136.544265 141.873855,134.30495 C142.372866,133.603478 141.239976,132.713147 140.673531,133.38764 Z" id="Path"></path>
                    <path d="M26.0897775,123.850316 C24.8220194,122.447371 22.7045936,120.990468 20.8299301,122.245024 C18.8743458,123.553539 19.7240134,126.251509 20.897364,127.762372 C21.4772959,128.517804 22.4348579,127.560025 22.111175,126.818083 C21.7470317,125.981712 20.4927604,124.120113 21.8818996,123.49958 C23.0552501,122.973476 24.2016272,124.268501 24.9703741,124.956484 C25.7256342,125.657956 26.7776037,124.605747 26.0897775,123.850316 Z" id="Path"></path>
                    <path d="M30.0279197,123.202803 C28.5039126,119.493094 24.5522836,115.284261 20.1825642,116.28251 C16.0286334,117.240289 13.7223926,121.840328 14.8283093,125.819834 C15.098045,126.804593 16.6085653,126.386408 16.3658031,125.401649 C15.5565958,122.191064 17.3368519,118.548805 20.7220358,117.833843 C24.3769554,117.064921 27.0877999,121.084896 28.5713466,123.809846 C28.989437,124.592258 30.3785762,124.052664 30.0279197,123.202803 Z" id="Path"></path>
                    <path d="M11.9016762,133.697907 C10.9306274,131.472081 8.86714884,129.623972 6.74972307,128.517804 C5.03690095,127.627474 0.882970152,125.981712 0.0333024882,128.774111 C-0.22294649,129.596992 1.07178519,130.177056 1.44941526,129.367665 C1.89447928,128.436865 3.32407884,128.949479 4.07933898,129.178807 C5.00992738,129.448604 5.88656862,129.853299 6.7092627,130.365913 C8.36813767,131.404632 9.52800146,132.834556 10.5664842,134.480318 C11.1059557,135.343668 12.2927931,134.588237 11.9016762,133.697907 Z" id="Path"></path>
                    <path d="M17.3368519,129.381154 C15.5026487,127.222778 13.0345664,125.509567 10.4720766,124.322461 C9.19083176,123.728907 7.80169256,123.135354 6.38557979,122.919516 C5.1043349,122.730658 3.49940709,123.027435 2.85204125,124.295481 C2.47441117,125.037423 3.47243351,125.941243 4.06585219,125.226281 C4.92900665,124.201052 6.06189687,124.430379 7.22176066,124.794605 C8.35465088,125.158831 9.46056752,125.630976 10.512537,126.18406 C12.6569364,127.317207 14.4776528,128.801091 16.2174485,130.460342 C16.9861954,131.175305 17.9842177,130.136586 17.3368519,129.381154 Z" id="Path"></path>
                    <path d="M118.959802,91.9333299 C116.720995,92.5403732 117.24698,88.8306644 117.314414,87.6300677 C117.381848,86.4429609 117.462768,85.2693439 117.570663,84.082237 C117.678557,82.8681505 117.894346,81.6405741 117.907832,80.4264876 C117.921319,79.576627 116.613101,79.3877691 116.424286,80.2241399 C116.073629,81.6810437 116.006195,83.2458663 115.884814,84.7432397 C115.749946,86.2945725 115.642052,87.8459053 115.588105,89.3972381 C115.547644,90.5843449 115.682512,91.9063502 116.545667,92.8101702 C117.273953,93.552112 118.636119,94.0512364 119.553221,93.3497642 C120.214073,92.8371499 119.876903,91.6905126 118.959802,91.9333299 Z" id="Path"></path>
                    <path d="M122.41242,96.2905516 C121.711107,97.2753107 120.807492,98.0442321 119.620654,98.3679885 C118.285462,98.7322145 117.017704,98.3949682 115.844354,97.7474554 C114.940739,97.248331 114.2664,98.5163769 115.048633,99.0964405 C117.799938,101.146898 122.196631,100.094689 123.774585,97.0864528 C124.26011,96.1826328 122.992352,95.4676707 122.41242,96.2905516 Z" id="Path"></path>
                    <path d="M112.634498,83.0300287 C112.216408,83.5291532 111.730883,84.0957269 111.056544,84.2036457 C110.436152,84.3115645 110.045035,83.9878081 109.883193,83.4077445 C109.653918,82.5713738 108.38616,82.7467419 108.38616,83.6100923 C108.372673,84.8241788 109.451616,85.7414886 110.61148,85.8359176 C111.987132,85.9573262 113.146996,85.0669961 113.861796,83.9608284 C114.333833,83.2458663 113.21443,82.3420464 112.634498,83.0300287 Z" id="Path"></path>
                    <path d="M126.660758,84.0147878 C126.350562,84.4869326 125.824577,84.7027702 125.312079,84.3925036 C124.745634,84.0552573 124.502872,83.3807648 124.165702,82.8411708 C123.720638,82.1262087 122.439393,82.5848637 122.749589,83.4347242 C123.16768,84.5813615 123.936427,85.795448 125.190698,86.1192044 C126.431483,86.4429609 127.61832,85.7684683 128.090358,84.6083412 C128.454501,83.7584806 127.132796,83.3133156 126.660758,84.0147878 Z" id="Path"></path>
                    <path d="M127.159769,75.5161821 C126.364049,74.7067911 124.651227,73.5466639 123.477876,74.2211565 C122.87097,74.5718926 122.695642,75.3138343 122.938404,75.9478573 C123.086759,76.339063 123.383468,76.6493295 123.747612,76.8516773 C124.394978,77.5396596 125.285106,78.0387841 126.202207,78.1871725 C126.917007,78.3085811 127.726214,78.0927435 127.928516,77.2968423 C128.103844,76.60886 127.61832,75.974837 127.159769,75.5161821 Z" id="Path"></path>
                    <path d="M113.052589,74.8281997 C112.890747,74.1402174 112.202921,73.8569305 111.555555,73.9378696 C110.490099,74.0727681 108.413133,74.7742403 108.156884,75.9883269 C108.00853,76.6763092 108.494054,77.3642916 109.195367,77.418251 C109.249314,77.418251 109.303261,77.418251 109.343722,77.418251 C110.260823,77.5666393 111.717397,76.7977179 112.243381,76.4334919 C112.782853,76.069266 113.227917,75.5161821 113.052589,74.8281997 Z" id="Path"></path>
                    <path d="M144.800488,212.505612 C144.571213,212.505612 144.328451,212.573061 144.153122,212.69447 C143.8699,212.896818 143.627138,213.207084 143.654111,213.57131 C143.654111,213.57131 143.654111,213.5848 143.654111,213.5848 C143.627138,213.881577 143.721545,214.178354 143.950821,214.394191 C144.166609,214.610029 144.436345,214.717948 144.746541,214.744927 C145.366933,214.785397 145.879431,214.232313 145.892918,213.62527 C145.892918,213.045206 145.420881,212.505612 144.800488,212.505612 Z" id="Path"></path>
                    <path d="M150.478426,210.090929 C149.305076,208.566576 147.56528,207.581817 145.623182,207.595307 C143.681085,207.608796 141.819908,208.539596 140.538663,209.98301 C138.974196,211.76367 138.421237,213.935536 138.111041,216.215321 C137.854792,218.11739 137.504136,220.77489 135.494604,221.638241 C133.525533,215.055194 128.130818,209.537845 121.684133,207.31202 C113.861796,204.60056 104.933542,206.570078 99.0398155,212.384203 C95.9783146,215.39244 93.7934549,219.291007 92.8763533,223.48635 C92.7819457,223.945005 93.0381947,224.295741 93.3753644,224.44413 C93.4427984,224.552048 93.5237191,224.646477 93.658587,224.727416 C95.8434467,226.049422 98.1631743,227.15559 100.563823,228.01894 C99.9299436,230.163826 100.091785,233.118103 102.573354,233.887025 C103.665784,234.224271 104.798674,233.779106 105.499987,232.915756 C106.24176,232.011936 106.471036,230.811339 106.498009,229.664702 C112.378249,230.851809 118.541711,230.797849 124.354517,229.543293 C124.799581,231.472342 126.404509,233.779106 128.656803,232.807837 C130.531466,231.998446 130.97653,229.583763 130.477519,227.735653 C130.909096,227.573775 131.327187,227.411897 131.745277,227.236529 C131.758764,227.276998 131.772251,227.303978 131.799224,227.344447 C133.781782,231.148585 139.257418,230.824829 142.696549,229.597252 C146.445876,228.248267 149.507377,225.442379 151.071845,221.773139 C152.609339,218.198329 152.973482,213.341983 150.478426,210.090929 Z M104.906568,229.340945 C104.798674,230.325704 104.555912,233.064144 102.856577,232.254753 C101.494411,231.59375 101.858554,229.82658 102.101316,228.545044 C103.018418,228.841821 103.962493,229.098128 104.906568,229.340945 C104.906568,229.327455 104.906568,229.340945 104.906568,229.340945 Z M128.171278,231.229524 C126.930494,232.011936 126.269641,230.150336 125.932471,229.206047 C126.161747,229.152087 126.391022,229.084638 126.633784,229.017189 C127.389045,228.814841 128.130818,228.585514 128.872591,228.342696 C128.980486,229.394905 129.196274,230.582012 128.171278,231.229524 Z M102.924011,227.034181 C101.952962,226.737404 101.008887,226.400158 100.078298,226.022442 C99.7546153,225.901033 98.500344,225.361439 98.500344,225.361439 C97.1786387,224.781376 95.8973938,224.133863 94.616149,223.445881 C96.2750239,216.646996 101.453951,210.846361 108.170371,208.728454 C110.193389,208.080941 112.283842,207.784164 114.374294,207.784164 C114.711464,207.770675 115.979222,207.784164 116.95027,207.946043 C117.503229,208.013492 118.0427,208.107921 118.582172,208.21584 C119.634141,208.458657 121.252556,208.984761 122.520314,209.443416 C124.974909,210.495624 127.24069,212.033467 129.142327,214.016475 C131.866658,216.862834 133.606454,220.356705 134.483095,224.160843 C124.732147,229.165577 113.416732,230.285235 102.924011,227.034181 Z M150.559347,217.092161 C150.451453,217.119141 150.343558,217.1731 150.249151,217.267529 C149.628758,217.847593 148.833038,218.225309 147.969884,218.009471 C147.133703,217.793633 146.688639,217.15961 146.324495,216.431159 C145.919892,215.635257 144.746541,216.201831 144.921869,217.024712 C145.461341,219.425905 148.212646,220.208317 150.16823,219.264027 C149.291589,222.64998 147.066269,225.523318 144.004768,227.196059 C142.318919,228.113369 140.403795,228.666453 138.475185,228.747392 C136.492627,228.828331 134.334741,228.410146 133.242311,226.602506 C134.051518,226.22479 134.860725,225.820094 135.642959,225.401909 C136.007102,225.199561 136.10151,224.875805 136.020589,224.565538 C136.061049,224.44413 136.074536,224.309231 136.047563,224.160843 C135.993616,223.837086 135.939668,223.51333 135.872234,223.203063 C137.369268,222.64998 138.353803,221.395423 138.947222,219.93852 C139.662022,218.171349 139.608075,216.215321 140.053139,214.380701 C140.457742,212.748429 141.334384,211.143137 142.750496,210.158378 C144.153122,209.200599 146.068246,208.876842 147.592253,209.726703 C150.16823,211.143137 150.802109,214.286272 150.559347,217.092161 Z" id="Shape"></path>
                    <path d="M194.593711,60.650367 C190.925304,51.9898831 185.678944,44.2062395 179.002983,37.5152737 C172.327023,30.8377978 164.545146,25.5902461 155.873141,21.9210068 C146.904427,18.1303588 137.382755,16.2013102 127.550886,16.2013102 C117.719017,16.2013102 108.197345,18.1303588 99.2286306,21.9210068 C90.5835992,25.5902461 82.8017224,30.8377978 76.1257622,37.5152737 C69.449802,44.1927496 64.2034413,51.9763933 60.5350349,60.650367 C56.7452474,69.6211175 54.8166366,79.1449518 54.8166366,88.9790527 C54.8166366,98.8131536 56.7452474,108.336988 60.5350349,117.307738 C63.6235094,124.592258 67.8179006,131.256244 73.0507744,137.164798 C73.4823517,137.650433 74.2645854,137.596473 74.6422155,137.056879 C74.6557022,137.043389 74.6557022,137.0299 74.669189,137.01641 C74.925438,136.638694 74.8984644,136.12608 74.5882683,135.788833 C63.5560755,123.310722 56.8531417,106.907064 56.8531417,88.9790527 C56.8531417,49.7910375 88.8842639,17.9415009 128.130818,18.2382776 C166.878361,18.5350543 198.639747,50.8567357 198.302578,89.6130757 C198.127249,108.957521 190.156557,126.467347 177.384569,139.147806 C177.047399,139.471562 176.993452,139.997667 177.236214,140.388872 L177.249701,140.415852 C177.586871,140.982426 178.369104,141.076855 178.827655,140.6182 C178.895089,140.55075 178.949036,140.496791 179.01647,140.429342 C185.69243,133.751866 190.938791,125.968222 194.607198,117.294249 C198.396985,108.323498 200.325596,98.7996637 200.325596,88.9655629 C200.325596,79.131462 198.383498,69.6211175 194.593711,60.650367 Z" id="Path"></path>
                    <path d="M194.593711,60.650367 C190.925304,51.9898831 185.678944,44.2062395 179.002983,37.5152737 C172.327023,30.8377978 164.545146,25.5902461 155.873141,21.9210068 C146.904427,18.1303588 137.382755,16.2013102 127.550886,16.2013102 C117.719017,16.2013102 108.197345,18.1303588 99.2286306,21.9210068 C90.5835992,25.5902461 82.8017224,30.8377978 76.1257622,37.5152737 C69.449802,44.1927496 64.2034413,51.9763933 60.5350349,60.650367 C56.7452474,69.6211175 54.8166366,79.1449518 54.8166366,88.9790527 C54.8166366,98.8131536 56.7452474,108.336988 60.5350349,117.307738 C63.6235094,124.592258 67.8179006,131.256244 73.0507744,137.164798 C73.4823517,137.650433 74.2645854,137.596473 74.6422155,137.056879 C74.6557022,137.043389 74.6557022,137.0299 74.669189,137.01641 C74.925438,136.638694 74.8984644,136.12608 74.5882683,135.788833 C63.5560755,123.310722 56.8531417,106.907064 56.8531417,88.9790527 C56.8531417,49.7910375 88.8842639,17.9415009 128.130818,18.2382776 C166.878361,18.5350543 198.639747,50.8567357 198.302578,89.6130757 C198.127249,108.957521 190.156557,126.467347 177.384569,139.147806 C177.047399,139.471562 176.993452,139.997667 177.236214,140.388872 L177.249701,140.415852 C177.586871,140.982426 178.369104,141.076855 178.827655,140.6182 C178.895089,140.55075 178.949036,140.496791 179.01647,140.429342 C185.69243,133.751866 190.938791,125.968222 194.607198,117.294249 C198.396985,108.323498 200.325596,98.7996637 200.325596,88.9655629 C200.325596,79.131462 198.383498,69.6211175 194.593711,60.650367 Z" id="Path"></path>
                    <path d="M209.67194,54.3775866 C205.194326,43.7745643 198.774615,34.25073 190.601621,26.0758807 C182.428628,17.9010314 172.906955,11.4798626 162.30634,7.00123232 C151.328094,2.36072381 139.675509,0 127.65878,0 C115.642052,0 103.97598,2.34723396 92.9977344,6.98774247 C82.3971187,11.4798626 72.8754462,17.8875415 64.7024525,26.0758807 C56.5294587,34.2642198 50.1097475,43.7745643 45.6321338,54.3775866 C40.9926786,65.3583248 38.6324907,77.0135555 38.6324907,89.0330121 C38.6324907,101.052469 40.9926786,112.707699 45.6321338,123.688438 C49.9209325,133.846295 55.9899872,143.005903 63.6774566,150.937935 C64.1225206,151.39659 64.8912675,151.329141 65.241924,150.789547 C65.241924,150.789547 65.2554108,150.776057 65.2554108,150.776057 C65.5251466,150.371362 65.4846862,149.845257 65.1475165,149.494521 C50.0962607,133.940724 40.7903768,112.802128 40.6555089,89.5321366 C40.3857731,41.6431679 79.0928556,2.38770351 126.970954,2.02347755 C175.253656,1.65925159 214.648565,40.8337769 214.648565,89.0330121 C214.648565,115.243791 202.99598,138.78358 184.613487,154.755563 C184.316778,155.01187 184.195397,155.430055 184.303291,155.807771 L184.303291,155.834751 C184.505593,156.549713 185.395721,156.81951 185.962166,156.333875 C187.553607,154.944421 189.104588,153.501007 190.601621,152.003633 C198.774615,143.828784 205.194326,134.30495 209.67194,123.701927 C214.311395,112.721189 216.671583,101.065959 216.671583,89.046502 C216.671583,77.0270453 214.311395,65.344835 209.67194,54.3775866 Z" id="Path"></path>
                </g>
                <g id="yellow_1_" transform="translate(19.000000, 9.000000)" fill="#B8BEFA">
                    <path d="M112.433089,81.1510571 C112.028797,80.1798343 110.775492,79.9774963 109.845621,79.964007 C108.969656,79.9505178 107.702875,80.1123883 107.096437,80.8273162 C107.015579,80.9352298 106.948197,81.0296542 106.894291,81.1375679 C106.813433,81.2454815 106.746051,81.3803736 106.678669,81.5287548 C106.30133,82.526956 107.042531,83.2958407 107.958926,83.5251572 C108.996608,83.7814521 110.169055,83.6870276 111.166308,83.3093299 C112.05575,82.9720998 112.850857,82.1627475 112.433089,81.1510571 Z" id="Path"></path>
                    <path d="M91.1403868,81.5962008 C90.736095,80.6249781 89.4827904,80.42264 88.5529192,80.4091508 C87.6769536,80.3956616 86.4101726,80.5575321 85.8037349,81.2724599 C85.7228766,81.3803736 85.6554946,81.474798 85.601589,81.5827116 C85.5207306,81.6906253 85.4533487,81.8255173 85.3859667,81.9738986 C85.0086277,82.9720998 85.7498293,83.7409844 86.6662241,83.9703009 C87.7039064,84.2265958 88.8763527,84.1321714 89.8736058,83.7544736 C90.7630478,83.4037543 91.558155,82.6078912 91.1403868,81.5962008 Z" id="Path"></path>
                    <path d="M30.6313793,139.532336 C30.1462291,138.156437 29.0950704,136.901941 27.6396199,136.564711 C26.8175599,136.375862 26.170693,137.630358 27.0331822,138.008056 C29.3106927,139.006257 29.7284609,141.488271 28.6233966,143.579098 C27.437474,145.818306 25.0791051,147.356075 22.9767877,148.63755 C18.5834834,151.335391 13.5163594,153.062009 8.36837699,153.480174 C5.80786219,153.682512 2.41181099,153.304814 1.56279819,150.391146 C1.27979392,149.406434 -0.216085771,149.81111 0.0264893147,150.809312 C0.686832604,153.642045 3.61121003,154.990965 6.27953597,155.152836 C9.32520094,155.355174 12.5730118,154.653735 15.4704364,153.776937 C18.3543847,152.913628 21.1439982,151.68611 23.7179894,150.121362 C26.2111222,148.610571 29.0142121,146.749061 30.2675167,144.010752 C30.8874308,142.634853 31.1434823,141.00266 30.6313793,139.532336 Z" id="Path" opacity="0.20236642"></path>
                    <path d="M206.565698,165.053912 C205.622351,164.649236 204.867673,165.849775 205.743638,166.456789 C205.945784,166.605171 205.878402,166.95589 205.743638,167.104271 C205.406729,167.481969 204.773338,167.414523 204.342093,167.306609 C203.277458,167.036825 202.253252,166.389343 201.296429,165.876753 C199.328875,164.811106 197.455656,163.583589 195.703725,162.180711 C192.240292,159.401935 189.22158,156.070101 186.836258,152.306613 C186.162438,151.240966 185.434713,150.121362 184.976516,148.947801 C184.599177,147.990068 184.491366,146.479277 185.785099,146.209493 C186.647589,146.034133 186.472396,144.536831 185.569477,144.658234 C184.28922,144.820105 183.359349,145.764349 183.103297,147.032334 C182.806816,148.529636 183.534542,149.959492 184.235314,151.227477 C185.609906,153.72298 187.267503,156.056612 189.113769,158.214885 C192.765871,162.450495 197.334369,166.011646 202.37454,168.426213 C203.749132,169.087184 205.460634,169.626752 206.781321,168.534127 C207.886385,167.643839 208.007673,165.674415 206.565698,165.053912 Z" id="Path" opacity="0.20236642"></path>
                    <path d="M77.7583279,220.386631 C77.4888,219.401919 76.5184997,218.970264 75.5751521,218.902818 C74.4161823,218.808394 73.243736,218.835372 72.0847662,218.808394 C62.4895739,218.552099 52.8809052,218.295804 43.2857129,218.039509 C33.6231387,217.783214 23.9605644,217.486452 14.2979902,217.243646 C13.0851148,217.216668 11.8722393,217.1762 10.6593639,217.149222 C10.2955013,217.135732 9.47344127,217.675301 9.37910651,217.783214 C8.7726688,218.430696 8.98829109,219.428897 9.44648848,220.143825 C9.98554422,220.980156 10.9154154,221.317386 11.8587629,221.4253 C13.0177328,221.560192 14.2036554,221.533213 15.3626253,221.58717 C20.1871742,221.76253 25.0251995,221.9244 29.8497485,222.045803 C39.5123227,222.302098 49.174897,222.477458 58.8374712,222.544904 C63.7159257,222.571882 68.5943802,222.585371 73.4593583,222.571882 C74.8474269,222.558393 78.445624,222.868644 77.7583279,220.386631 Z" id="Path"></path>
                    <path d="M137.553087,219.739149 C136.636692,219.806595 135.720297,219.847063 134.803902,219.914509 C133.698838,219.927998 132.593774,219.968465 131.488709,219.995444 C131.138323,219.995444 130.787937,220.251739 130.693602,220.602458 C130.504933,221.344364 130.760984,222.045803 131.353945,222.517925 C132.027765,223.057493 132.876778,223.044004 133.685362,222.94958 C135.720297,222.720263 137.741756,222.477458 139.776691,222.221163 C140.248365,222.167206 140.598752,221.883933 140.625704,221.371343 C140.733515,219.604257 138.779438,219.658214 137.553087,219.739149 Z" id="Path"></path>
                    <path d="M155.395832,219.739149 C154.479437,219.806595 153.563042,219.847063 152.646647,219.914509 C151.541583,219.927998 150.436519,219.968465 149.331455,219.995444 C148.981068,219.995444 148.630682,220.251739 148.536347,220.602458 C148.347678,221.344364 148.603729,222.045803 149.196691,222.517925 C149.87051,223.057493 150.719523,223.044004 151.528107,222.94958 C153.563042,222.720263 155.584501,222.477458 157.619437,222.221163 C158.09111,222.167206 158.441497,221.883933 158.468449,221.371343 C158.576261,219.604257 156.622184,219.658214 155.395832,219.739149 Z" id="Path"></path>
                    <path d="M173.238577,219.739149 C172.322182,219.806595 171.405787,219.847063 170.489393,219.914509 C169.384328,219.927998 168.279264,219.968465 167.1742,219.995444 C166.823814,219.995444 166.473427,220.251739 166.379093,220.602458 C166.190423,221.344364 166.446475,222.045803 167.039436,222.517925 C167.713256,223.057493 168.562268,223.044004 169.370852,222.94958 C171.405787,222.720263 173.427246,222.477458 175.462182,222.221163 C175.933856,222.167206 176.284242,221.883933 176.311195,221.371343 C176.405529,219.604257 174.464929,219.658214 173.238577,219.739149 Z" id="Path"></path>
                    <path d="M191.081322,219.739149 C190.164927,219.806595 189.248533,219.847063 188.332138,219.914509 C187.227074,219.927998 186.122009,219.968465 185.016945,219.995444 C184.666559,219.995444 184.316173,220.251739 184.221838,220.602458 C184.033168,221.344364 184.28922,222.045803 184.882181,222.517925 C185.556001,223.057493 186.405014,223.044004 187.213597,222.94958 C189.248533,222.720263 191.269992,222.477458 193.304927,222.221163 C193.776601,222.167206 194.126987,221.883933 194.15394,221.371343 C194.248275,219.604257 192.307674,219.658214 191.081322,219.739149 Z" id="Path"></path>
                    <path d="M208.924067,219.739149 C208.007673,219.806595 207.091278,219.847063 206.174883,219.914509 C205.069819,219.927998 203.964754,219.968465 202.85969,219.995444 C202.509304,219.995444 202.158918,220.251739 202.064583,220.602458 C201.875913,221.344364 202.131965,222.045803 202.724926,222.517925 C203.398746,223.057493 204.247759,223.044004 205.056342,222.94958 C207.091278,222.720263 209.112737,222.477458 211.147672,222.221163 C211.619346,222.167206 211.969732,221.883933 211.996685,221.371343 C212.09102,219.604257 210.150419,219.658214 208.924067,219.739149 Z" id="Path"></path>
                    <path d="M142.525876,76.1735405 C147.06742,73.8938648 150.894716,70.2517795 153.428278,65.8542987 C154.075145,64.7212054 154.641154,63.5476446 155.112827,62.3201269 C155.611454,61.0386525 156.190939,59.5413507 155.692312,58.178941 C155.274544,57.0053802 154.088622,56.1555603 152.835317,56.465812 C151.568536,56.7895529 150.571283,58.0845166 149.735746,59.0152717 C143.96785,65.4361333 141.191713,73.5296563 139.453258,81.8524957 C138.981584,80.5979997 138.280812,79.370482 137.580039,78.318324 C136.555833,76.7805547 135.22167,74.9999796 133.213688,74.8650876 C131.232658,74.7436847 129.979353,76.5242598 130.208452,78.3722809 C130.451027,80.2068127 131.812143,81.933431 133.159782,83.120481 C134.709567,84.4963799 136.609739,85.4406243 138.658151,85.8048328 C138.671627,85.8048328 138.685104,85.8048328 138.69858,85.8048328 C138.307765,88.0440408 137.970855,90.2832488 137.660898,92.4954785 C136.582786,99.968498 135.477722,107.455007 134.44004,114.941516 C134.305276,115.939717 135.828108,116.38486 135.976348,115.359681 C136.838838,109.572812 137.674374,103.772454 138.50991,97.9855849 C143.738751,94.8560893 149.102356,91.5782125 152.889223,86.7086095 C153.778665,85.5620271 154.735488,84.0782146 154.115574,82.5809128 C153.589995,81.2859491 152.121068,80.7598701 150.813858,80.9756974 C149.291025,81.2185031 147.956862,82.3111287 146.797893,83.2688623 C145.598494,84.2535742 144.520382,85.3731782 143.536605,86.5737175 C141.879009,88.5970982 140.477464,90.8093278 139.197207,93.0890035 C139.85755,88.448717 140.571799,83.8084305 141.690339,79.2490792 C141.946391,78.2104104 142.229395,77.1852308 142.525876,76.1735405 Z M147.795146,64.2895509 C148.482442,63.2239037 149.223643,62.1852349 150.032227,61.2005229 C150.840811,60.2293002 151.7033,59.1366746 152.714029,58.3677899 C153.172227,58.0170706 153.630424,57.9496245 153.98081,58.4757035 C154.358149,59.0557393 154.16948,59.824624 153.994287,60.4316383 C153.657377,61.5647315 153.185703,62.6708463 152.660124,63.7230043 C150.557806,67.918147 147.269566,71.4388295 143.253601,73.839908 C144.412571,70.5080744 145.881498,67.2706652 147.795146,64.2895509 Z M149.156261,83.5386464 C149.964845,82.985589 151.501154,82.000877 152.417549,82.9586105 C153.320467,83.9028549 151.649394,85.6294731 151.069909,86.3309118 C149.358407,88.3812709 147.323472,90.1483568 145.180725,91.7265938 C143.4827,92.9676006 141.717292,94.1006939 139.924932,95.1933195 C142.350683,90.822817 144.965103,86.411847 149.156261,83.5386464 Z M132.593774,79.9370286 C132.1221,79.1951224 131.596521,78.2104104 131.919954,77.3066337 C132.243387,76.4028569 133.213688,76.3623893 133.968366,76.7670655 C134.803902,77.2256984 135.437293,78.1024968 135.962872,78.8578922 C136.528881,79.6672445 137.027507,80.5170645 137.445275,81.4208412 C137.849567,82.2841503 138.092142,83.187927 138.429052,84.0647254 C136.919696,83.7005168 135.504675,82.985589 134.318752,81.9604094 C133.671885,81.3668844 133.078924,80.6924241 132.593774,79.9370286 Z" id="Shape" opacity="0.20236642"></path>
                    <path d="M83.6205591,114.442415 C82.623306,101.371375 79.0655381,88.4082494 73.755839,76.4568138 C73.5536931,75.9981808 73.3380708,75.5260586 73.1359249,75.0674256 C73.1224485,74.9055552 73.0550665,74.7436847 72.933779,74.6222819 C71.8556675,72.2886494 70.6832212,69.9819954 69.4568694,67.7158089 C67.9744661,65.0044787 66.3707753,62.3336162 64.2145523,60.0944081 C62.4895739,58.3003439 59.309145,55.8183302 56.9103469,58.0035814 C54.5924072,60.1078973 56.1691453,63.4801986 57.4494027,65.6654498 C60.5354968,70.9127505 65.8586723,74.7706631 71.7748091,76.0926052 C71.976955,76.5242598 72.1791009,76.9694035 72.3677704,77.4010581 C73.7693154,80.5575321 75.0360964,83.7949413 76.1546371,87.0593289 C75.9255384,86.8165232 75.6964397,86.5737175 75.467341,86.344401 C73.8771265,84.7796532 72.0173842,83.4712003 69.9689724,82.5809128 C67.9475133,81.7041145 65.1713762,80.813827 63.3790159,82.6483588 C62.6512906,83.3902651 62.3143808,84.5503367 62.6512906,85.5485379 C62.9882005,86.5467391 63.9180716,87.1537533 64.9153248,87.3695806 C67.3815048,87.9091488 70.1845947,87.1267749 72.3542941,85.8722788 C72.8798734,86.2499766 73.3785,86.6546527 73.8501737,87.0863073 C74.6587574,87.8282135 75.4134354,88.6375658 76.0603023,89.5143642 C76.7206456,90.4046517 77.2192722,91.3758744 77.7852807,92.3201188 C77.8122335,92.3605864 77.8391863,92.3875648 77.8661391,92.4280324 C78.0548086,93.0755143 78.2434781,93.7364853 78.4186712,94.3974564 C80.1975552,100.966699 81.3430486,107.657345 82.0707739,114.415437 C82.1516322,115.427127 83.7014175,115.467595 83.6205591,114.442415 Z M60.1716342,66.6366725 C59.4034797,65.6249822 58.7027073,64.5323566 58.1501751,63.3857741 C57.6111194,62.2931485 57.08554,60.9307388 57.6785014,59.757178 C58.3118919,58.5026819 59.753866,58.8264229 60.7511191,59.4064587 C61.9235654,60.0809189 62.9073421,61.1330769 63.7833077,62.1447673 C65.64305,64.3030401 67.0580713,66.8255214 68.4057107,69.3210243 C69.2277707,70.8453045 70.0094016,72.3965631 70.7640796,73.9478216 C66.5863976,72.6798364 62.8264837,70.1168874 60.1716342,66.6366725 Z M68.4326635,85.6159839 C67.3815048,85.8453004 66.1147238,86.0206601 65.0635651,85.68343 C64.0528356,85.359689 63.8911188,84.2805526 64.7670844,83.64656 C65.7778139,82.9181429 67.1793589,83.3228191 68.243994,83.7005168 C69.0930068,83.9972793 69.9150668,84.3884663 70.6966976,84.83361 C69.9824488,85.1843294 69.2277707,85.4541135 68.4326635,85.6159839 Z" id="Shape" opacity="0.20236642"></path>
                    <path d="M124.19798,47.5224691 C116.327767,48.1294833 108.605793,46.065635 102.244935,41.330924 C101.51721,40.7913558 100.560386,42.0323627 101.274635,42.5854201 C107.675922,47.5359583 116.125621,50.1258857 124.19798,49.1276845 C125.181757,48.9927924 125.235663,47.4415339 124.19798,47.5224691 Z" id="Path"></path>
                    <path d="M199.207588,12.4640254 C195.771107,12.4640254 192.981494,9.67175996 192.981494,6.23201269 C192.981494,2.79226543 195.771107,0 199.207588,0 C202.644068,0 205.433681,2.79226543 205.433681,6.23201269 C205.433681,9.67175996 202.644068,12.4640254 199.207588,12.4640254 Z M199.207588,2.77877622 C197.307416,2.77877622 195.757631,4.33003479 195.757631,6.23201269 C195.757631,8.1339906 197.307416,9.68524917 199.207588,9.68524917 C201.107759,9.68524917 202.657544,8.1339906 202.657544,6.23201269 C202.657544,4.33003479 201.107759,2.77877622 199.207588,2.77877622 Z" id="Shape" opacity="0.20236642"></path>
                </g>
                <g id="green" transform="translate(21.000000, 40.000000)" fill="#7FE3F0">
                    <path d="M113.927607,184.117928 C112.564417,180.880453 110.863804,177.791362 108.515337,175.160913 C106.193865,172.570932 103.238037,170.601468 99.9312883,169.535799 C93.4392638,167.458419 86.2723926,168.969241 81.2380368,173.569154 C78.5791411,175.997261 76.5680982,179.194268 75.6638037,182.688043 C75.5288344,183.187154 75.8932515,183.537881 76.2846626,183.591839 C76.3116564,183.618818 76.3521472,183.659286 76.392638,183.686265 C80.3877301,186.626972 85.0711656,188.272689 89.9840491,188.798778 C94.991411,189.324868 100.120245,188.771799 105.006135,187.692641 C107.853988,187.072125 110.634356,186.222287 113.347239,185.170108 C113.725153,185.008234 114.116564,184.576571 113.927607,184.117928 Z M97.2993865,186.788846 C91.3877301,187.584725 85.003681,186.100882 79.9288344,182.998301 C79.1865031,182.553149 79.8478528,181.420032 80.603681,181.838206 C83.1141104,183.241112 85.7730061,184.293292 88.5803681,184.913808 C91.3877301,185.534324 94.2355828,185.615261 97.1104294,185.466876 C97.8797546,185.426408 98.0552147,186.694419 97.2993865,186.788846 Z M103.92638,186.006456 C103.035583,186.181819 102.131288,186.330203 101.226994,186.41114 C100.471166,186.492077 100.309202,185.237555 101.051534,185.089171 C101.942331,184.913808 102.846626,184.778913 103.75092,184.684487 C104.506748,184.617039 104.655215,185.871561 103.92638,186.006456 Z" id="Shape"></path>
                    <path d="M33.2699387,115.18668 C33.0134969,113.837731 32.0822086,112.488783 30.6785276,112.192015 C29.6257669,111.976183 29.2613497,113.392579 30.2466258,113.770284 C31.1104294,114.107521 31.5828221,114.943869 31.6503067,115.834175 C31.7447853,116.980781 31.1104294,118.04645 30.3680982,118.882797 C28.6944785,120.771325 26.4944785,122.309126 24.3484663,123.604116 C19.8944785,126.288523 14.806135,127.974708 9.62331288,128.406371 C8.2601227,128.514287 6.77546012,128.676161 5.42576687,128.44684 C4.38650307,128.271476 2.7803681,127.313723 3.61717791,126.072691 C4.19754601,125.195875 2.83435583,124.467443 2.2404908,125.263322 C1.41717791,126.35597 1.78159509,127.90726 2.65889571,128.851524 C3.67116564,129.971151 5.30429448,130.160004 6.72147239,130.173493 C9.85276074,130.200472 13.0245399,129.755319 16.0343558,128.94595 C19.0711656,128.123092 22,126.909039 24.7263804,125.344259 C26.1165644,124.53489 27.4527607,123.631095 28.7214724,122.646363 C29.9226994,121.715588 31.1374233,120.730856 32.0687117,119.516803 C33,118.275771 33.5668712,116.764949 33.2699387,115.18668 Z" id="Path"></path>
                    <path d="M198.823313,140.14222 C197.51411,142.017258 194.733742,140.371541 193.343558,139.535193 C191.561963,138.456035 189.874847,137.228492 188.322699,135.839075 C185.191411,133.060242 182.397546,129.660893 180.561963,125.883838 C179.590184,123.873905 179.090798,121.202988 180.980368,119.557272 C181.76319,118.882797 180.629448,117.790149 179.846626,118.424155 C177.984049,119.934977 177.700613,122.605894 178.334969,124.79119 C179.03681,127.205807 180.561963,129.458551 182.033129,131.454994 C184.961963,135.420901 188.67362,138.806761 192.925153,141.315805 C194.180368,142.057726 195.570552,142.759179 197.068712,142.718711 C198.377914,142.678242 199.565644,142.111684 200.321472,141.032526 C200.969325,140.101751 199.457669,139.224935 198.823313,140.14222 Z" id="Path"></path>
                    <path d="M168.225767,59.8258489 C164.797546,56.3590523 159.493252,58.9085642 156.564417,61.6739079 C154.985276,63.1577508 153.676074,64.9248728 152.434356,66.7054843 C151.071166,68.6614591 149.77546,70.6713918 148.574233,72.7352824 C145.834356,77.4026429 143.512883,82.312814 141.650307,87.3983484 C141.299387,88.3695911 142.838037,88.7742755 143.202454,87.8300118 C145.105521,82.7714564 147.440491,77.8747747 150.180368,73.2209037 C151.853988,72.0338294 154.269939,70.4420706 156.388957,70.6983708 C155.67362,71.3053974 155.228221,72.2631506 155.309202,73.2209037 C155.471166,75.0689626 157.374233,76.4044213 159.169325,75.7839051 C161.08589,75.1229206 161.234356,72.8566877 160.235583,71.3323764 C159.223313,69.7945755 157.38773,69.0121856 155.579141,69.0931225 C154.337423,69.1470804 153.190184,69.5247859 152.123926,70.0643651 C152.866258,68.9177592 153.635583,67.7981323 154.431902,66.6919948 C155.903067,64.6415937 157.69816,62.4428083 159.93865,61.0938602 C159.547239,62.4023398 159.641718,63.8457143 160.24908,65.0867466 C161.08589,66.7864212 162.948466,67.8386007 164.82454,67.8251113 C168.87362,67.8251113 171.100613,62.7395769 168.225767,59.8258489 Z M159.223313,73.5851197 C159.10184,74.2730833 158.292025,74.4079781 157.73865,74.1651674 C157.117791,73.8953778 156.820859,73.1939248 157.03681,72.5464297 C157.252761,71.9124241 157.819632,71.7640398 158.4,71.6696134 C158.453988,71.7235713 158.507975,71.7775292 158.548466,71.8314872 C158.966871,72.2631506 159.344785,72.9511141 159.223313,73.5851197 Z M166.835583,65.4374731 C165.580368,66.5705895 163.50184,66.3277789 162.341104,65.1676835 C161.004908,63.8322248 161.153374,61.6739079 162.246626,60.2575123 C162.300613,60.1900649 162.327607,60.1226175 162.341104,60.0551701 C162.557055,60.0012122 162.773006,59.9472543 162.988957,59.9067858 C164.622086,59.6100172 166.53865,60.0281912 167.483436,61.5120341 C168.266258,62.7665558 167.90184,64.4797199 166.835583,65.4374731 Z" id="Shape"></path>
                    <path d="M73.7337423,84.9027944 C72.9374233,81.3685503 71.601227,78.023159 69.7116564,74.9205784 C67.8760736,71.8989346 65.5141104,68.9447382 62.6797546,66.7864212 C60.0478528,64.7764885 55.8233129,63.6163931 53.3128834,66.5031421 C52.3411043,67.622769 51.9092025,69.2549963 52.408589,70.6848813 C52.9079755,72.1417452 54.3791411,73.1669458 55.8907975,73.2748617 C59.1705521,73.5176723 61.1680982,70.0373862 60.2773006,67.2450636 C61.4245399,67.8790692 62.4503067,68.7828644 63.3276074,69.6192123 C65.3521472,71.5616975 67.1067485,73.8144409 68.5374233,76.229058 C68.5374233,76.229058 68.5374233,76.2425475 68.5509202,76.2425475 C67.7276074,75.9322894 66.8638037,75.7299472 66.0134969,75.5680734 C63.8269939,75.1498995 61.195092,75.2308364 59.8453988,77.3082165 C58.6981595,79.088828 59.4269939,81.5034452 61.5595092,82.0700034 C63.6380368,82.6230721 65.7165644,80.6670973 65.2576687,78.5492488 C65.1361963,77.9692011 64.8527607,77.4431113 64.4478528,77.0249374 C64.9607362,77.0519164 65.4601227,77.1328533 65.9055215,77.2272796 C67.4306748,77.5240482 69.0773006,77.9557116 70.0895706,79.1967439 C70.9533742,81.0987607 71.6417178,83.0817145 72.1276074,85.1051366 C72.3705521,86.0898688 73.9496933,85.9145055 73.7337423,84.9027944 Z M58.5361963,70.1183231 C58.0233129,71.1165447 56.9030675,71.8045082 55.7693252,71.575187 C54.6355828,71.3458658 53.7717791,70.3746232 53.8932515,69.2010383 C54.0147239,68.0274535 54.8920245,67.0697003 55.9852761,66.6785054 C56.6466258,66.4491842 57.3079755,66.3952263 57.9423313,66.4626737 C57.9558282,66.4896526 57.9828221,66.5166316 57.996319,66.5571 C58.7386503,67.5957901 59.1570552,68.9042698 58.5361963,70.1183231 Z M63.4760736,79.844239 C62.5447853,81.3415714 60.3312883,80.0196022 61.0871166,78.4683119 C61.1141104,78.4008645 61.1546012,78.3334171 61.195092,78.2794592 C61.7484663,77.8477958 62.4368098,77.5510272 63.0846626,78.023159 C63.6380368,78.4278435 63.8539877,79.2507018 63.4760736,79.844239 Z" id="Shape"></path>
                    <path d="M6.23558282,12.4642806 C2.79386503,12.4642806 0,9.67195799 0,6.2321403 C0,2.7923226 2.79386503,0 6.23558282,0 C9.67730061,0 12.4712141,2.7923226 12.4712141,6.2321403 C12.4846626,9.67195799 9.67730061,12.4642806 6.23558282,12.4642806 Z M6.23558282,2.77883312 C4.33251534,2.77883312 2.7803681,4.33012345 2.7803681,6.2321403 C2.7803681,8.13415714 4.33251534,9.68544747 6.23558282,9.68544747 C8.13865031,9.68544747 9.69079755,8.13415714 9.69079755,6.2321403 C9.69079755,4.33012345 8.15214724,2.77883312 6.23558282,2.77883312 Z" id="Shape"></path>
                    <path d="M213.764417,62.65864 C210.322699,62.65864 207.528834,59.8663174 207.528834,56.4264997 C207.528834,52.986682 210.322699,50.1943594 213.764417,50.1943594 C217.206135,50.1943594 220,52.986682 220,56.4264997 C220,59.8663174 217.206135,62.65864 213.764417,62.65864 Z M213.764417,52.959703 C211.86135,52.959703 210.309202,54.5109934 210.309202,56.4130102 C210.309202,58.315027 211.86135,59.8663174 213.764417,59.8663174 C215.667485,59.8663174 217.219632,58.315027 217.219632,56.4130102 C217.233129,54.5109934 215.680982,52.959703 213.764417,52.959703 Z" id="Shape"></path>
                </g>
            </g>
        </g>
    </g>
</svg>