<?xml version="1.0" encoding="UTF-8"?>
<svg width="92px" height="84px" viewBox="0 0 92 84" version="1.1" xmlns="http://www.w3.org/2000/svg" xmlns:xlink="http://www.w3.org/1999/xlink">
    <title>6B1A5055-AA17-44FC-AF26-37ECD27DC1F6</title>
    <g id="Page-1" stroke="none" stroke-width="1" fill="none" fill-rule="evenodd">
        <g id="1-Agent-Landing-Page-Copy-11" transform="translate(-225.000000, -316.000000)" fill-rule="nonzero">
            <g id="Group-7" transform="translate(225.000000, 316.000000)">
                <path d="M91.79892,60.2254987 C80.5693056,44.2858122 38.3714244,9.31569509 37.9662322,9.39344966 C37.4259758,8.77141311 36.1718092,8.84916768 35.9402708,9.89885436 C31.8690532,28.7543372 28.1451432,47.7070132 24.2861692,66.6013733 C23.2056565,71.9275612 22.1058489,77.2537492 21.0253361,82.5799371 C20.8323874,83.5129919 21.7778361,84.212783 22.6268103,83.9406421 C40.4745653,78.2451199 58.3223202,72.5495978 76.1700752,66.8735143 C81.1867414,65.2795457 86.2034077,63.685577 91.2007791,62.0721697 C91.953279,61.838906 92.2234072,60.8475353 91.79892,60.2254987 Z" id="Path" fill="#8C80F8"></path>
                <path d="M87.347431,45.2005126 C75.5900907,37.4472181 63.8520563,29.6939237 52.094716,21.9213424 C49.1409015,19.9733754 46.1870869,18.0254083 43.2332724,16.0774413 C41.7274061,15.0938144 40.2215399,14.0909007 38.7349796,13.1072738 C37.499397,12.2972281 36.2058965,11.1978804 34.7000303,11.0242991 C31.4180141,10.6385631 30.703693,14.93952 29.9314539,17.2346494 C28.8696251,20.4169718 27.8850202,23.6378678 26.9583333,26.8780505 C23.2901976,39.800208 20.7611145,53.0309543 19.4483081,66.3967082 C19.2938602,68.0360864 19.1394124,69.6754646 19.0042706,71.3341296 C18.8884347,72.7999266 21.1665401,72.7806398 21.2823759,71.3341296 C22.3248987,58.7012742 24.3906383,46.1648527 27.4989007,33.8791597 C29.0626849,27.7266698 30.8774468,21.6320403 32.9624923,15.6145581 C33.1555521,15.035954 33.3099999,14.3994895 33.6382015,13.8787459 C34.062933,13.184421 34.6035004,13.3194286 35.2599036,13.666591 C36.66924,14.4187763 37.9820465,15.4409768 39.3141589,16.3088829 C42.0556077,18.1218423 44.7777506,19.9348017 47.5191994,21.7284744 C58.6780544,29.1153196 69.8369094,36.482878 80.9957644,43.8697233 C82.3857948,44.7954898 83.7758251,45.7212563 85.1851615,46.627736 C86.4014381,47.4377817 87.7721625,48.1706802 88.7953793,49.2314543 C89.5676184,50.0415 89.9537379,50.9865533 88.8146853,51.6423046 C87.6370206,52.2980558 86.1890723,52.6452183 84.9341838,53.1081015 C79.2389204,55.1910762 73.601575,57.4862056 68.0800654,59.9742031 C57.0563523,64.9501981 46.3415347,70.7169519 36.1865906,77.2937515 C34.9123961,78.123084 33.6382015,78.9717033 32.402619,79.8396094 C31.2249543,80.6689419 32.3060891,82.6169089 33.5609776,81.8068632 C44.430243,74.8636144 55.4925681,68.3832489 67.2112964,62.9829442 C73.0610076,60.2827919 79.0265547,57.8140813 85.0886316,55.596099 C86.478662,55.0753553 87.9266103,54.6317589 89.2973347,54.0724416 C90.4943053,53.5709848 91.5754401,52.7609391 91.9036417,51.4494365 C92.5986569,48.4985558 89.3745586,46.5505888 87.347431,45.2005126 Z" id="Path" fill="#000000"></path>
                <path d="M50.8657295,47.2629274 C48.684843,42.8210531 46.1110039,38.573147 43.6354029,34.2864473 C42.4172501,32.1721927 41.1794496,30.0579381 39.9612968,27.9436835 C38.7234963,25.7906352 37.6035816,23.4630155 36.1300096,21.4651419 C35.4619903,20.5534908 33.5758181,21.0578084 34.0866564,22.3186024 C35.0297425,24.5880317 36.4050764,26.7216831 37.6035816,28.8553346 C38.8217344,31.0471765 40.0398873,33.2390184 41.2776877,35.4308604 C43.7139934,39.7951474 46.0913563,44.2370218 48.8223763,48.4461341 C49.6475767,49.7069282 51.5141012,48.6013088 50.8657295,47.2629274 Z" id="Path" fill="#000000"></path>
                <path d="M56.0537116,54.2762459 C54.979893,53.6144599 53.3984512,54.1983887 53.0665436,55.4246393 C52.9298758,55.9501752 53.0079717,56.4951755 53.2617834,56.9428543 C53.2617834,56.9623186 53.2813073,56.9817828 53.2813073,57.0012471 C53.8279786,58.1691048 55.5460883,58.3053549 56.4246671,57.4489259 C57.3227699,56.5535684 57.1470541,54.9380319 56.0537116,54.2762459 Z" id="Path" fill="#000000"></path>
                <path d="M55.8645726,0.582762697 C53.8908044,4.4467459 52.0177387,8.3501575 50.1245325,12.2338549 C49.4800368,13.5744205 51.5142264,14.7572725 52.1788627,13.3969927 C54.0922094,9.5132953 56.0256965,5.6295979 57.8786218,1.7064721 C58.502977,0.425049097 56.5493493,-0.738088704 55.8645726,0.582762697 Z" id="Path" fill="#000000"></path>
                <path d="M69.4035469,5.16838413 C65.7286196,7.36080215 62.0917744,9.62753943 58.5120524,11.968596 C57.3315058,12.7303683 58.397806,14.5697699 59.6354758,13.8265773 C63.2913621,11.6155795 66.9282072,9.34884222 70.5079292,7.00778569 C71.6503937,6.24601333 70.6031346,4.44377139 69.4035469,5.16838413 Z" id="Path" fill="#000000"></path>
                <path d="M16.2247784,21.8841055 C13.278542,20.8984616 10.3323056,19.9128178 7.34805322,19.0526196 C5.96047091,18.658362 5.44725554,20.5938081 6.75880594,21.0597488 C9.68603436,22.099155 12.6702867,23.0310365 15.6355311,23.9449971 C17.0231134,24.3571754 17.5743447,22.3321254 16.2247784,21.8841055 Z" id="Path" fill="#000000"></path>
                <path d="M14.6442634,29.0573178 C9.96531,30.4737326 5.34318601,32.1065441 0.758948284,33.759028 C-0.567070893,34.2311663 -0.0177200915,36.3754609 1.34618535,35.9426675 C6.0061956,34.4869079 10.6662059,32.9721309 15.2504436,31.2606297 C16.5575196,30.768819 16.027112,28.6245244 14.6442634,29.0573178 Z" id="Path" fill="#000000"></path>
            </g>
        </g>
    </g>
</svg>