<?xml version="1.0" encoding="UTF-8"?>
<svg width="120px" height="87px" viewBox="0 0 120 87" version="1.1" xmlns="http://www.w3.org/2000/svg" xmlns:xlink="http://www.w3.org/1999/xlink">
    <title>2925F433-C90C-46B2-8FB7-0C9197D7E7BE</title>
    <g id="Page-1" stroke="none" stroke-width="1" fill="none" fill-rule="evenodd">
        <g id="1-Agent-Landing-Page-Copy-11" transform="translate(-46.000000, -314.000000)" fill-rule="nonzero">
            <g id="06_something_wrong" transform="translate(46.000000, 314.000000)">
                <g id="Group" transform="translate(2.000000, 30.000000)" fill="#AF8EFF">
                    <path d="M104.165054,16.9998131 C103.555949,13.7742959 102.955189,10.5487787 102.354429,7.32326143 C102.062392,5.73997883 101.770356,4.14827451 101.461632,2.5649919 C101.386537,2.18601468 101.311442,1.79861575 101.24469,1.41963853 C101.177939,1.06592645 101.13622,0.686949235 100.885903,0.400610891 C100.426989,-0.129957216 99.6593504,0.0132119558 99.0419022,0.0300553878 C97.2062452,0.0890073997 95.3789322,0.147959412 93.5432753,0.21533314 C93.0843611,0.232176572 92.9091393,0.686949235 93.0176099,1.02381787 C92.775637,3.64297155 92.6337907,6.27054694 92.4502251,8.89812232 C92.2583155,11.6099149 92.0664059,14.3217074 91.8828402,17.0419217 C91.8661524,17.32826 92.1415009,17.5640681 92.4001617,17.5640681 C96.1298828,17.6061767 99.8596039,17.7240807 103.589325,17.7661893 C103.998176,17.7577675 104.231805,17.3703686 104.165054,16.9998131 Z" id="Path"></path>
                    <path d="M115.980009,51.3435709 C113.935755,43.0060721 111.866469,34.6685732 109.813871,26.3310744 C109.229798,23.9645722 108.645725,21.6064917 108.061653,19.2399896 C107.994902,18.9620729 107.727897,18.7852169 107.460892,18.7767952 C101.077813,18.5409871 94.6863889,18.3051791 88.3033092,18.069371 C87.6191098,18.0356842 87.3437613,18.7009997 87.3020418,19.1894593 C86.3174622,27.7627661 85.3495703,36.336073 84.4067102,44.9178016 C84.2815518,46.0294681 84.1647372,47.1411346 84.0395788,48.2528011 C83.9394521,49.1623465 83.7809181,50.1645307 84.2815518,50.9814371 C84.7154343,51.6888613 85.4914166,52.0257299 86.2590549,52.2278511 C87.2186028,52.4805026 88.1948386,52.674202 89.1627304,52.8594798 C93.2846146,53.6426994 97.4899377,54.0216766 101.678573,53.9458811 C106.351154,53.861664 111.007048,53.2468787 115.537783,52.1099471 C115.879882,52.0257299 116.063448,51.6635961 115.980009,51.3435709 Z" id="Path"></path>
                    <path d="M84.7654977,24.9330696 C83.9895154,21.1938277 81.5113786,17.9851539 81.0608083,14.1616948 C80.8188353,12.1236395 81.160935,10.0013671 80.2597943,8.08121587 C79.5505633,6.57372871 77.981911,5.98420859 76.3381637,5.71471368 C74.4691312,5.4115319 73.843339,4.94833752 72.7586327,6.49793327 C72.1244967,7.40747859 71.9993382,8.67915771 71.7156458,9.73187221 C71.4069217,10.894069 71.8074286,13.622705 71.4903606,14.7849018 C70.6225955,15.2144093 67.1181596,16.1071112 66.13358,15.963942 C65.7163852,15.90499 65.257471,14.8438538 64.9570908,14.540672 C64.623335,14.1953817 65.098937,13.1595106 65.0488736,12.6963162 C64.9070274,11.4751674 64.8402763,10.2371752 64.7318056,9.00760463 C64.623335,7.74434723 64.4981766,6.48951155 64.3897059,5.22625415 C64.3646742,4.92307238 64.1560769,4.65357747 63.8306649,4.66180692 C62.1785737,4.69568605 60.4513874,4.78832492 58.9077669,5.44521877 C57.3391146,6.11053433 56.2043449,7.39905688 55.8121818,9.08340008 C55.3782992,10.9277559 55.7203989,12.8394854 55.5618649,14.7091064 C55.4116748,16.5029319 54.8109144,18.2546488 53.8930859,19.7874011 C53.4174839,20.5790424 52.8584429,21.3117317 52.215963,21.9686255 C51.5150758,22.6928931 50.705718,23.2655698 49.9047041,23.8803551 C48.4278346,25.0004433 46.8925579,26.491087 46.9593091,28.5122989 C46.9843408,29.4218442 47.3180966,30.2808592 47.5517257,31.148296 C47.7770108,31.9567807 47.9105131,32.8242174 47.3180966,33.5063764 C46.7590556,34.1548486 45.9747295,34.5422475 45.4740958,35.2580934 C44.9484304,36.0076261 44.823272,36.9508583 44.8649914,37.8435602 C44.9233987,39.0310221 45.1737156,40.2100624 45.3572813,41.3806809 C45.5575347,42.65236 45.7577882,43.9156174 45.9580417,45.1872965 C46.3668926,47.781185 46.7840873,50.3666518 47.1929382,52.9605404 C47.2680332,53.4405782 47.7853547,53.4574216 48.0690472,53.1963484 C48.0940788,53.1963484 48.1191105,53.2047701 48.1441422,53.2047701 C56.8802004,53.5416388 65.6663219,53.5416388 74.40238,53.1542398 C76.8972046,53.0447575 79.3836854,52.9015884 81.8701661,52.7247323 C82.2206097,52.6994672 82.4208632,52.4720808 82.4625826,52.1267905 C82.988248,47.5622204 83.5139134,43.0060721 84.0395788,38.441502 C84.3065835,36.1423735 84.5902759,33.8432451 84.8405927,31.5441166 C85.0825657,29.3544705 85.2244119,27.114294 84.7654977,24.9330696 Z" id="Path"></path>
                    <path d="M45.6576615,53.8532423 C45.3072179,51.074076 44.9567743,48.286488 44.6063307,45.5073217 C44.3643577,43.5871705 44.1557604,41.6670192 43.8887557,39.746868 C44.0055703,39.6626508 44.0890092,39.5363251 44.0639775,39.3594691 C43.9221313,38.2983328 43.7802851,37.2371966 43.6384389,36.1760604 C43.5716877,35.6623357 43.5049365,35.1401893 43.4298415,34.6264647 C43.3964659,34.3990783 43.4048098,34.1380051 43.313027,33.9274622 C43.2129002,33.6916542 42.9709273,33.6158587 42.7790177,33.4726896 C42.1532255,33.0010735 41.7610625,32.2768059 41.3021482,31.6620206 C40.8348901,31.0303919 40.3008808,30.4914021 39.650057,30.0618946 C37.0050423,28.2849125 33.3420723,28.6217812 31.1810035,31.0135485 C30.0962972,32.2178539 29.4287856,33.7927148 29.3787222,35.4096843 C27.0007121,35.5107448 24.7144848,36.453977 22.8955157,37.9951511 C21.9443117,38.8036358 21.12661,39.7973983 20.5258495,40.9006431 C19.9250891,42.0123096 19.5162382,43.3766276 18.4815952,44.1766906 C17.4719839,44.9599102 16.1202729,44.9767536 14.9020642,44.9262233 C13.6087605,44.8672713 12.3238007,44.7072587 11.0304969,44.8420062 C8.61076735,45.0946576 6.34122789,46.0799984 4.43047591,47.5959073 C2.29443877,49.2970939 0.684067025,51.6635961 0.0165554195,54.3417018 C-0.0668835312,54.661727 0.175089426,55.0238608 0.517189124,55.0070174 C6.39129126,54.7712093 12.2403617,55.4870552 18.097776,55.8070804 C23.8967831,56.1186839 29.712478,56.0597319 35.4947973,55.579694 C38.7489164,55.3101991 41.9946915,54.9312219 45.2237789,54.4174972 C45.457408,54.3669669 45.6826932,54.0722069 45.6576615,53.8532423 Z" id="Path"></path>
                </g>
                <path d="M96.0721115,20.1504306 C95.3992278,20.7289662 94.7355616,21.3928595 94.1548538,22.0662369 C93.6847569,22.6068357 94.3852934,23.3086658 94.9199133,22.8534247 C95.592797,22.2843733 96.2564632,21.6109958 96.8463886,20.9376184 C97.3164855,20.3970196 96.6067314,19.6857054 96.0721115,20.1504306 Z" id="Path" fill="#FFFFFF"></path>
                <g id="Group" fill="#000000">
                    <path d="M45.7854397,55.8145353 C45.1327116,56.1886182 44.513033,56.5128233 43.7446316,56.571014 C42.992755,56.6292046 42.2904526,56.4712585 41.604675,56.1636793 C41.0345707,55.9142908 40.563615,56.6624564 41.1089321,57.0199134 C42.604423,57.9925287 45.0831373,57.8678345 46.3638064,56.571014 C46.7521383,56.1886182 46.2646578,55.5485209 45.7854397,55.8145353 Z" id="Path"></path>
                    <path d="M51.5856311,51.3338543 C51.3377597,52.2150272 50.9907397,52.9881317 50.3132245,53.619916 C49.6357092,54.2517004 48.8177335,54.5094019 47.9253964,54.6756609 C47.3883416,54.7754164 47.5205397,55.6316504 48.0493321,55.6233374 C50.2636502,55.5900856 52.320983,53.6614808 52.5523297,51.4585486 C52.6184287,50.9015808 51.734354,50.8101383 51.5856311,51.3338543 Z" id="Path"></path>
                    <path d="M46.9752226,57.086417 C46.7521383,57.7597661 46.529054,58.4164893 46.1985588,59.0399607 C45.8763259,59.6634321 45.4797316,60.2287128 45.0583502,60.7939935 C44.7361173,61.23458 45.4466821,61.7832348 45.8102269,61.3759002 C46.8017126,60.2702776 47.5866388,58.7988851 47.8923468,57.3441185 C48.0328073,56.737273 47.1735197,56.4961974 46.9752226,57.086417 Z" id="Path"></path>
                    <path d="M107.133618,47.3852021 C104.25831,47.4517057 101.366476,47.7842238 98.4994301,48.0086735 C97.2600729,48.1084289 96.0124534,48.2081844 94.7730963,48.3162527 C94.8309329,45.4898491 94.7648339,42.6551325 94.7565715,39.8287289 C94.7483091,36.9690734 94.7730963,34.101105 94.723522,31.2414496 C96.2024882,31.1001294 97.6897167,30.7759242 99.1604206,30.5431616 C100.75506,30.293773 102.374487,30.0859492 103.952601,29.7534312 C104.481394,29.6453628 104.373983,28.7309381 103.820403,28.7974417 C102.242289,28.9720137 100.672436,29.2795929 99.1108463,29.5372944 C99.1108463,29.5372944 99.1108463,29.5372944 99.1108463,29.5372944 C99.2099948,28.7143122 99.0447472,27.7915745 98.9786482,26.9685923 C98.9125491,26.1705489 98.8216629,25.3641926 98.7225144,24.5661492 C98.5242172,22.9451236 98.3507072,21.2492814 97.912801,19.6698205 C97.8714891,19.5285003 97.7723406,19.4370579 97.6566672,19.3788672 C97.5244691,19.1627305 97.2600729,19.0380362 97.0204639,19.2209211 C95.2605768,20.5676193 93.6081006,22.0805766 91.9143125,23.5104043 C91.6251291,23.7514799 91.7821144,24.2835088 92.1373968,24.3666383 C94.0873187,24.7989118 95.9959287,25.3641926 97.8632267,26.0541676 C97.8962763,26.4116245 97.9293258,26.7607685 97.9541129,27.1182254 C98.020212,27.9495206 97.9789001,28.8390065 98.1524101,29.6536757 C98.1524101,29.6619887 98.1524101,29.6619887 98.1606725,29.6703016 C96.8552163,29.8614995 95.5332353,30.0277586 94.2608287,30.3436507 C94.202992,30.3602767 94.1616801,30.3769026 94.1203682,30.4101544 C93.922071,30.4517191 93.7402987,30.6013523 93.7402987,30.8756797 C93.6907244,33.8600294 93.7402987,36.8443791 93.748561,39.8287289 C93.7568234,42.6800714 93.7072491,45.5397268 93.7816106,48.3910693 C92.4926791,48.4991377 91.2120101,48.6072061 89.9230787,48.7069615 C89.691732,48.6986485 89.4355982,48.8565946 89.3942863,49.1475479 C88.8654939,53.2541462 88.5680482,57.4023092 88.1714539,61.5172203 C87.7748596,65.6404445 87.3782653,69.7636686 86.9816711,73.8868928 C86.7585868,76.1978934 86.5107153,78.5005811 86.3454677,80.8198946 C86.3041558,81.451679 87.2378049,81.4267401 87.3039039,80.8198946 C87.7996468,76.7049834 88.1218796,72.5734464 88.5102115,68.4502222 C88.9068058,64.3269981 89.2951377,60.2037739 89.691732,56.0805498 C89.8982915,53.9441212 90.1296382,51.8076925 90.278361,49.6712639 C93.0214715,49.471753 95.7563196,49.2722422 98.4911677,49.0644184 C101.366476,48.8482817 104.266572,48.7235874 107.125356,48.3411916 C107.720247,48.266375 107.769821,47.3685762 107.133618,47.3852021 Z" id="Path"></path>
                    <path d="M43.9511911,63.3710086 C42.3730764,61.3260224 39.935674,59.1979068 37.1925635,59.3392269 C34.2181064,59.497173 32.7474026,62.265386 31.7228674,64.7010809 C31.7063426,64.7426457 31.6980802,64.7758975 31.6898178,64.8174622 C30.7644312,65.0668508 29.8803564,65.5323761 29.0541183,66.0062144 C26.9967855,67.1949665 25.1460121,68.7744273 23.6339964,70.6282156 C23.2208774,71.1353057 22.8242831,71.6673346 22.4607383,72.2159894 C22.0806688,72.7895831 21.6592874,73.3964286 21.4362031,74.0448388 C21.4279407,74.0780906 21.4196783,74.1113425 21.4114159,74.1445943 C20.5356036,74.0282129 19.6267417,74.0614647 18.7591917,74.1778461 C17.3297998,74.369044 15.925195,74.7597527 14.5949517,75.3084075 C12.041876,76.3641524 9.71188454,77.9602392 7.83632407,79.9969124 C6.76221455,81.1690386 5.81204074,82.4741721 5.10973836,83.9039998 C4.83707979,84.4609676 5.63853074,84.9514317 5.95250122,84.4027769 C8.57167597,79.8306534 12.8598517,76.430656 18.0403645,75.3665982 C19.742415,75.0174542 21.4031536,75.0257672 23.0308426,75.6575515 C23.5431102,75.8570624 23.8818678,75.0257672 23.4026498,74.7680657 C23.0638921,74.5851807 22.7003474,74.4521735 22.3285402,74.3441051 C22.7168721,73.8037632 23.0143178,73.1802918 23.3943874,72.631637 C23.7661945,72.0912951 24.1627888,71.5675792 24.5924326,71.0604891 C25.468245,70.0296831 26.4597307,69.0736936 27.5338402,68.2590243 C28.6244745,67.4277291 29.8142574,66.6795635 31.0701393,66.1309086 C31.7228674,65.8482683 32.4416945,65.6238186 33.1605216,65.6986351 C33.8380369,65.7734517 34.3089926,66.0976568 34.7468988,66.6047469 C35.1269683,67.0453333 35.771434,66.4800526 35.5235626,66.0062144 C35.0278197,65.0585378 33.8297745,64.6345773 32.8052393,64.6595162 C33.689314,62.6893466 34.9204088,60.4199107 37.3164992,60.370033 C38.5062821,60.3450941 39.6299659,60.8355583 40.5801397,61.5172203 C41.5964126,62.2404472 42.3565516,63.2130625 43.2488888,64.0692966 C43.7281069,64.5015701 44.3229983,63.8531598 43.9511911,63.3710086 Z" id="Path"></path>
                    <path d="M84.9904372,46.9944934 C84.6847292,45.3235901 84.2633477,43.6609997 83.899803,42.0067223 C83.5279958,40.3441319 83.1727134,38.6815415 82.7843815,37.0272641 C82.7595944,36.9025698 82.6934953,36.8194403 82.6191339,36.7612496 C82.5695596,36.686433 82.4869358,36.6199294 82.3877873,36.5700517 C81.3302025,36.1211523 80.2147811,35.821886 79.0745725,35.655627 C78.1409235,35.5143068 77.1494377,35.4145514 76.1992639,35.4976809 C76.0009668,35.3896125 75.7365706,35.3979255 75.5961101,35.5891234 C75.4143377,35.66394 75.3399763,35.8551379 75.3730258,36.0380228 C74.7533473,37.384721 74.3650154,38.8727394 74.1171439,40.327506 C73.8610101,41.8238373 73.7122873,43.4199241 73.8610101,44.9495072 C72.9438858,44.8746907 71.993712,44.982759 71.0931125,45.0742015 C70.5808449,45.1323922 70.0685773,45.1905828 69.5563097,45.2570864 C69.217552,45.2986512 68.870532,45.3235901 68.523512,45.3734678 C68.4904625,43.8189458 68.4078387,42.2727367 68.350002,40.7182147 C68.283903,39.0805632 68.2673782,37.4262858 68.1186554,35.7969472 C68.110393,35.7470695 68.1021306,35.7055047 68.0938682,35.66394 C68.0856059,35.4644291 67.9864573,35.2815442 67.7551106,35.2316665 C66.1522087,34.9074613 64.4584206,34.8742095 62.8307316,34.965652 C61.2113049,35.0570945 59.5092544,35.2566053 57.9559268,35.7553824 C57.633694,35.8551379 57.5593325,36.1627171 57.6584811,36.3954797 C57.1875254,38.42384 57.0718521,40.5935204 57.1710006,42.6717584 C57.2618868,44.7832482 57.5758573,46.9446157 58.2451102,48.95635 C58.4434073,49.5465696 59.3274821,49.305494 59.1704968,48.6986485 C58.6582292,46.711853 58.2616349,44.7250575 58.1707487,42.6717584 C58.0798625,40.6184593 58.2864221,38.6233508 58.6086549,36.5949906 C60.0380468,36.3040373 61.4343892,36.0380228 62.905093,35.9632062 C64.3344849,35.8883897 65.7390897,35.996458 67.1602192,36.1211523 C67.1684816,37.6507355 67.2758925,39.1886316 67.3337292,40.7099018 C67.3998282,42.3475533 67.4494025,43.9935178 67.5568135,45.6311693 C67.5568135,45.681047 67.5650759,45.7226117 67.5816006,45.7558636 C67.4907144,46.030191 67.655962,46.4042738 68.0112444,46.4042738 C69.0275173,46.4042738 70.0768397,46.1715111 71.0848501,46.0717557 C72.1176478,45.9720003 73.1339206,45.9886262 74.1667182,45.9470614 C74.356753,45.9387485 74.5054758,45.8140542 74.5798373,45.6561081 C74.7368225,45.5979175 74.8524958,45.4565973 74.8442335,45.2238346 C74.8111839,43.6360608 74.8029216,42.0898518 75.0755801,40.5187039 C75.3151892,39.1221279 75.7530954,37.8086815 76.2323135,36.4952351 C77.1659625,36.5118611 78.0913492,36.4952351 79.0249982,36.6531812 C79.9916968,36.8111273 80.9253458,37.0771418 81.8424701,37.4096599 C82.1894901,39.0306855 82.5530349,40.6517111 82.9165796,42.2727367 C83.2883868,43.9353271 83.6023573,45.6062304 84.0320011,47.2521949 C84.2137734,47.8673533 85.0978482,47.6013389 84.9904372,46.9944934 Z" id="Path"></path>
                    <path d="M60.1537202,60.9020619 C59.6249278,61.5255333 58.8730511,61.9578068 58.0550754,62.0159975 C57.1627383,62.0741881 56.3943368,61.7084182 55.7333464,61.1265116 C55.2789154,60.7274899 54.684024,61.3343354 55.0723559,61.7915478 C56.5595844,63.5622065 59.434893,63.3128179 60.8312354,61.583724 C61.2030425,61.1098857 60.5585768,60.4282236 60.1537202,60.9020619 Z" id="Path"></path>
                    <path d="M43.166265,70.2375069 C41.9682197,71.0937409 40.456204,71.0604891 39.2994707,70.1294385 C38.8367773,69.7553557 38.2170988,70.3372623 38.6384802,70.7944746 C39.9274116,72.1910506 42.3482892,72.1993635 43.7446316,70.9856725 C44.1494883,70.6448415 43.6124335,69.9216147 43.166265,70.2375069 Z" id="Path"></path>
                    <path d="M32.1938231,71.8335936 C31.4997831,72.3489967 30.7479064,72.6732018 29.8803564,72.6981406 C28.9797569,72.7230795 28.2857169,72.3988744 27.5173155,71.9749138 C27.0628845,71.7172123 26.5588793,72.3323707 26.9472112,72.7147665 C27.6825631,73.4379934 28.8806083,73.7206337 29.8803564,73.7040078 C30.9296788,73.679069 31.9955259,73.321612 32.7721897,72.5983852 C33.1770464,72.2243024 32.6399916,71.5010756 32.1938231,71.8335936 Z" id="Path"></path>
                    <path d="M42.191304,80.0135383 C40.7949616,80.6453226 39.1837973,80.5123154 37.9692273,79.548013 C37.4900092,79.1739302 36.812494,79.8140275 37.2834497,80.237988 C38.721104,81.5098696 40.9932588,81.8257618 42.6787845,80.8531464 C43.2241016,80.5289413 42.7448835,79.7558368 42.191304,80.0135383 Z" id="Path"></path>
                    <path d="M22.9399564,81.0609702 C21.9071588,81.1440998 20.8743612,81.1607257 19.8415636,81.0692832 C19.3458207,81.0277184 18.8500779,80.9529019 18.3625974,80.8614594 C17.833805,80.761704 17.3050126,80.578819 16.7762202,80.4956895 C16.3052645,80.4208729 15.8921455,81.1191609 16.4126755,81.3519236 C17.3876364,81.79251 18.5608945,81.9338302 19.6102169,82.0418986 C20.7173759,82.1582799 21.8410598,82.1582799 22.9399564,82.0169597 C23.5348478,81.9504561 23.5678974,81.0194055 22.9399564,81.0609702 Z" id="Path"></path>
                    <path d="M101.465625,38.9226171 C101.143392,38.083009 100.6146,36.869318 99.5239653,37.0106382 C98.5242172,37.1353324 98.1358853,38.3323975 97.9293258,39.1720057 C97.6484048,40.3025671 97.6236177,41.5578228 97.9458506,42.6800714 C98.0119496,42.8962081 98.1606725,43.0042765 98.3259201,43.0209024 C98.3920191,43.0541542 98.4663806,43.079093 98.5490044,43.079093 C99.061272,43.0957189 99.581802,43.1206578 100.09407,43.1289708 C100.589812,43.1455967 101.110342,43.1954744 101.597823,43.1206578 C101.804382,43.087406 101.911793,42.921147 101.936581,42.7299491 C102.035729,42.6551325 102.110091,42.5304382 102.118353,42.3558662 C102.184452,41.2169918 101.878744,39.9866749 101.465625,38.9226171 Z M100.09407,42.1231036 C99.6644258,42.1147906 99.2430444,42.1064777 98.8134006,42.0981647 C98.6977272,41.358312 98.6646777,40.6184593 98.7968758,39.8702936 C98.8712372,39.454646 98.9786482,39.0389984 99.1356334,38.6482897 C99.2182572,38.4404659 99.3752425,38.0331312 99.6313763,37.9998794 C100.193218,37.908437 100.589812,39.3881424 100.705486,39.7539123 C100.953357,40.5436427 101.044243,41.3250602 101.13513,42.1397295 C100.78811,42.1231036 100.432827,42.1314165 100.09407,42.1231036 Z" id="Shape"></path>
                    <path d="M105.241533,65.4409336 C105.241533,64.8424011 105.034973,64.2106168 104.836676,63.645336 C104.630117,63.0717423 104.373983,62.5064616 104.060012,61.9827456 C103.539482,61.0932598 102.746294,59.9128206 101.564773,60.0375149 C100.416302,60.1622092 99.7800991,61.3759002 99.4165544,62.3485155 C99.0034353,63.479077 98.8629748,64.8091493 99.1686829,65.9812755 C99.1934701,66.0893439 99.2513067,66.1641604 99.3256682,66.2223511 C99.3669801,66.4301749 99.5239653,66.6130598 99.7800991,66.6047469 C100.58155,66.588121 101.391263,66.4468008 102.184452,66.3553583 C102.985903,66.2639159 103.787354,66.1724734 104.588805,66.0893439 C104.762315,66.072718 104.886251,65.9812755 104.960612,65.8648942 C105.12586,65.7983906 105.241533,65.6570704 105.241533,65.4409336 Z M102.110091,65.3661171 C101.440838,65.4409336 100.746798,65.4908113 100.077545,65.5905668 C99.994921,64.7177068 100.003183,63.8780987 100.251055,63.0218646 C100.432827,62.3900803 100.878996,61.0849468 101.688709,61.0267562 C102.457111,60.9768785 103.076789,62.2404472 103.382497,62.7974149 C103.613844,63.2213755 103.795616,63.6619619 103.944339,64.1191743 C104.05175,64.4516924 104.109587,64.7925234 104.192211,65.1250415 L102.110091,65.3661171 Z" id="Shape"></path>
                    <path d="M97.0700382,74.9925154 C95.3762501,75.7822458 93.4593777,75.6326127 91.947362,74.5186771 C91.5094558,74.194472 90.9310891,74.9426376 91.360733,75.2834687 C93.0793082,76.6467928 95.6323839,76.962685 97.5409939,75.8071846 C98.0780487,75.4912925 97.6153553,74.7431268 97.0700382,74.9925154 Z" id="Path"></path>
                    <path d="M103.927814,54.5094019 C103.316398,55.0331179 102.556259,55.4072007 101.746546,55.4820173 C100.854209,55.5568338 100.09407,55.2658805 99.3256682,54.84192 C98.8794996,54.5925314 98.3259201,55.2326287 98.7555639,55.5817727 C100.449352,56.9617227 103.085051,56.7040212 104.588805,55.174438 C105.018449,54.7421645 104.382245,54.1186932 103.927814,54.5094019 Z" id="Path"></path>
                    <path d="M111.925799,73.1969177 C110.744279,74.6516843 108.711733,74.9343247 107.315391,73.6042524 C106.86096,73.1802918 106.199969,73.845328 106.637875,74.2859144 C108.356451,76.0316343 111.289596,75.8071846 112.685938,73.7788244 C112.975121,73.3382379 112.272819,72.7729572 111.925799,73.1969177 Z" id="Path"></path>
                    <path d="M80.4791773,82.3827296 C79.5290035,82.490798 78.587092,82.648744 77.6451806,82.7983772 C76.9015663,82.9147585 76.1166401,82.9729492 75.3647635,83.1225823 C75.7200458,80.3959341 75.5961101,77.5529045 75.290402,74.8262563 C75.1251544,73.3631768 74.8855454,71.9084102 74.5633125,70.4702695 C74.2658668,69.1235713 73.9766835,67.6604918 73.2330692,66.4800526 C72.6051282,65.4908113 71.6053801,64.7177068 70.4073349,64.6595162 C69.1597154,64.6013255 67.9864573,65.3245523 67.2097935,66.2639159 C66.375293,67.278096 65.854763,68.5167258 65.3755449,69.7304168 C64.8550149,71.0355503 64.4418959,72.3905614 64.1444501,73.7621985 C63.4917221,76.7798 63.3429992,79.9137829 63.7974301,82.9646362 C63.1033902,83.0560787 62.4010878,83.1558341 61.7070478,83.1890859 C60.8394978,83.2306507 59.9802102,83.1890859 59.1126602,83.1558341 C58.5508183,83.1308953 58.4103578,84.04532 58.9804621,84.1617013 C60.7238244,84.5191582 62.7398454,84.4360287 64.4171087,83.862435 C64.6980297,83.7626796 64.8054406,83.4301615 64.7228168,83.1890859 C64.7558663,83.1225823 64.7641287,83.0560787 64.7558663,82.9729492 C64.1774997,77.9768651 64.8302278,72.7230795 67.1602192,68.2257725 C67.6807492,67.2199053 68.3995763,66.1974123 69.5232601,65.8233294 C70.6304192,65.4575595 71.6549544,65.9646496 72.2911578,66.9040132 C72.9934601,67.9348192 73.2413316,69.2482656 73.5222525,70.4453307 C73.8279606,71.76709 74.0593073,73.0971623 74.2245549,74.4438605 C74.4145897,75.9651307 74.5137382,77.4947139 74.530263,79.03261 C74.5467877,80.5705061 74.4311144,82.0917763 74.356753,83.6213594 C74.3484906,83.7793055 74.422852,83.9039998 74.530263,83.9788163 C74.6046244,84.1118236 74.7368225,84.211579 74.9351197,84.211579 C75.8770311,84.1949531 76.8437296,83.9538775 77.7691163,83.8042444 C78.7192901,83.6629242 79.6777263,83.5299169 80.6279001,83.347032 C81.1401677,83.2472766 81.0244944,82.3245389 80.4791773,82.3827296 Z" id="Path"></path>
                    <path d="M84.1146249,73.5128099 C83.4288473,74.0032741 82.6521834,74.0032741 81.9250939,73.6375042 C81.9250939,73.6375042 81.9168315,73.6291912 81.9168315,73.6291912 C81.8755196,73.6042524 81.8342077,73.5793135 81.7846334,73.5626876 C81.3219401,73.3132991 80.7518358,73.9617093 81.1980044,74.3274792 C82.2225396,75.1754003 83.6849811,75.0673319 84.6847292,74.2609756 C85.1061106,73.9201446 84.5525311,73.1969177 84.1146249,73.5128099 Z" id="Path"></path>
                    <path d="M58.8400016,73.1886048 C57.4767087,73.6458171 56.2290892,73.2966732 55.1136678,72.4404391 C54.6674992,72.0996081 54.1965435,72.806209 54.5435635,73.1886048 C55.6341978,74.3939828 57.633694,74.7265009 59.0961354,74.1030295 C59.6331902,73.8785798 59.434893,72.9890939 58.8400016,73.1886048 Z" id="Path"></path>
                    <path d="M94.5913239,64.5930125 C93.5915758,64.9504695 92.5670406,64.692768 91.8482134,63.9196634 C91.4103072,63.4541381 90.7823663,64.1274872 91.1624358,64.6096384 C92.013461,65.6736963 93.6081006,66.0560921 94.8474577,65.5323761 C95.4010372,65.2996135 95.1862153,64.3851887 94.5913239,64.5930125 Z" id="Path"></path>
                    <path d="M111.248284,63.1714978 C110.636868,63.7783433 109.794105,63.7866562 109.199213,63.1548719 C108.761307,62.6893466 108.116841,63.3710086 108.513436,63.8448469 C109.380986,64.8839659 111.066511,64.9172177 111.917537,63.8365339 C112.281081,63.3793216 111.694452,62.7392243 111.248284,63.1714978 Z" id="Path"></path>
                    <path d="M81.6524354,59.9377595 C81.4376134,60.5196661 80.9253458,60.9935044 80.3139296,61.1181986 C79.6364144,61.2512059 79.0249982,60.9270008 78.5788296,60.4282236 C78.2235473,60.029202 77.5129825,60.5612309 77.826953,61.0101303 C79.107622,62.789102 81.9664058,62.3318896 82.5612973,60.187148 C82.7265449,59.5886155 81.8589949,59.3724788 81.6524354,59.9377595 Z" id="Path"></path>
                    <path d="M71.2666225,56.6873953 C71.0683254,57.2859278 70.5147458,57.768079 69.8785425,57.8179567 C69.2092897,57.8678345 68.6557101,57.4521869 68.3417397,56.8869061 C68.0360316,56.3382513 67.2841549,56.8204025 67.523764,57.3690573 C67.9203582,58.3084209 68.9944678,58.9069534 70.0024782,58.815511 C71.0518006,58.7157556 71.9110882,57.9592769 72.1920092,56.9450968 C72.3572568,56.3465643 71.4566573,56.1054887 71.2666225,56.6873953 Z" id="Path"></path>
                    <path d="M62.2854144,51.4502356 C61.8309835,51.8825091 61.2443544,52.1568365 60.6081511,52.0820199 C59.9967349,52.0155163 59.542304,51.6580594 59.1539721,51.200847 C58.8069521,50.7935124 58.1376992,51.3255413 58.4186202,51.7744407 C59.3935811,53.3372757 61.7648844,53.5118477 62.9546673,52.1152718 C63.3512616,51.6580594 62.7398454,51.0262751 62.2854144,51.4502356 Z" id="Path"></path>
                    <path d="M79.8512363,48.5240765 C78.8762754,49.0062277 77.7856411,48.8150299 77.1742249,47.8756663 C76.8354673,47.3602633 76.0257539,47.8257886 76.3479868,48.3661304 C77.1494377,49.7128287 79.0002111,50.2781094 80.3387168,49.3636847 C80.842722,49.0062277 80.4048158,48.2497491 79.8512363,48.5240765 Z" id="Path"></path>
                    <path d="M52.3044583,54.4345853 C50.9163783,55.1411862 50.0323035,56.5793269 49.6935459,58.0756583 C49.305214,59.7964393 49.5943973,61.5670981 49.9909916,63.2629402 C49.1069168,63.5123288 48.3715649,64.1773649 47.9006092,64.9837213 C47.1900445,66.2057252 47.1652573,67.6771177 47.2478811,69.0487548 C47.4461783,72.1494858 47.8592973,75.2502169 48.3963521,78.3093832 C48.7103226,80.0551031 49.024293,81.8257618 49.5282983,83.521604 C49.7018083,84.1118236 50.5445711,83.862435 50.4371602,83.2722154 C50.1810264,81.8673266 49.8422687,80.4790636 49.5696102,79.0658618 C49.305214,77.6609729 49.0656049,76.2477711 48.8673078,74.8345693 C48.6690107,73.4130545 48.503763,71.9832268 48.3798273,70.553399 C48.2558916,69.2150138 48.0575945,67.7768731 48.3880897,66.4551138 C48.6855354,65.2663616 49.5035111,64.2604945 50.7511307,64.0859225 C51.0898883,64.0360448 51.1559873,63.653649 51.0237892,63.3959475 C50.3793235,60.6692992 49.8670559,56.8952191 52.775414,55.2741935 C53.3537806,54.9749272 52.8663002,54.151945 52.3044583,54.4345853 Z" id="Path"></path>
                    <path d="M119.188432,77.1538828 C118.601803,75.2585298 118.015174,73.3631768 117.420282,71.4761367 C116.75103,69.348021 116.081777,67.2199053 115.395999,65.1001026 C115.205964,64.5265089 114.313627,64.7592716 114.487137,65.3494912 C115.544722,68.8824957 116.643619,72.4071873 117.742515,75.923566 C118.015174,76.788113 118.27957,77.6609729 118.552229,78.5255199 C118.758788,79.1822431 119.089283,79.9470347 118.948823,80.6453226 C118.8001,81.3934883 117.949075,81.4932437 117.329396,81.5929992 C116.437059,81.7426323 115.544722,81.8839525 114.652385,82.0335856 C112.603314,82.3744166 110.529457,82.648744 108.496911,83.0643916 C107.976381,83.17246 108.083792,84.0702588 108.620847,84.0120682 C110.562506,83.7793055 112.495903,83.4052227 114.429301,83.0893305 C115.404261,82.9313844 116.37096,82.7734383 117.345921,82.6154922 C118.10606,82.490798 118.940561,82.3744166 119.485878,81.7675711 C120.609561,80.5372543 119.601551,78.4839551 119.188432,77.1538828 Z" id="Path"></path>
                    <path d="M47.5205397,83.6379853 C44.8931026,84.3196474 42.2739278,84.9597447 39.588654,85.3504534 C36.9281673,85.7411621 34.2428935,85.940673 31.5576197,85.9656119 C30.0042921,85.9822378 28.4592269,85.9157341 26.9141617,85.8409176 C26.2944831,85.8076658 26.3192702,86.7387164 26.9141617,86.796907 C32.3508083,87.3039971 37.9444402,86.8301588 43.2736759,85.7245362 C44.7856916,85.4086441 46.3059697,85.0511871 47.7849359,84.5773489 C48.3633026,84.386151 48.1236935,83.4800392 47.5205397,83.6379853 Z" id="Path"></path>
                    <path d="M28.2526674,40.4023225 C24.8485664,37.3099044 21.304005,34.3754324 17.7429188,31.4658993 C14.190095,28.564679 10.5794345,25.7133365 6.92746217,22.9368106 C4.87012931,21.3656627 2.7962717,19.8111407 0.697626942,18.2981835 C0.185359324,17.9324136 -0.28559639,18.7720217 0.210146466,19.1377916 C7.47277931,24.6243398 14.6527883,30.2106435 21.6345002,36.0629616 C23.6174717,37.725552 25.5756559,39.4297072 27.5668897,41.0922975 C28.0295831,41.4996322 28.7236231,40.834596 28.2526674,40.4023225 Z" id="Path"></path>
                    <path d="M40.7453873,42.7299491 C40.2331197,41.2834954 39.5308173,39.8702936 38.7293664,38.5568472 C38.3906088,38.0081924 37.6387321,38.4820307 37.8866035,39.0556243 C39.0763864,41.8072114 40.629714,44.4590431 40.2992188,47.5764 C40.0596097,49.8874006 38.4071335,52.1485236 36.052355,52.3480344 C36.3167512,51.9988904 36.5398354,51.6081817 36.6968207,51.1675952 C37.2421378,49.7128287 37.1016773,48.0502383 36.7794445,46.5539069 C36.4241621,44.9162554 35.7466469,43.3949852 34.7799483,42.0316611 C34.4246659,41.532884 33.6066902,41.9817834 33.9454478,42.5221253 C35.184805,44.5255467 36.0771421,47.0360581 35.9201569,49.4218753 C35.8540578,50.5025591 35.4574635,51.5333651 34.6312254,52.2565919 C33.9206607,52.8717504 32.9456997,53.1959555 32.0285755,53.2707721 C29.7646831,53.4453441 27.7569245,52.1734624 26.1292355,50.7103829 C24.6585317,49.3886235 22.6094612,47.4517057 23.3943874,45.2487735 C23.7661945,44.1930286 24.7494178,43.6277479 25.8317897,44.0267696 C27.1124588,44.5006078 27.7403997,45.847306 28.3435536,46.9778675 C28.6409993,47.5431482 29.458975,47.0443711 29.1863164,46.4790904 C28.5996874,45.2487735 27.8891226,43.951953 26.6497655,43.2786039 C25.5426064,42.6800714 24.2041007,42.7050102 23.2621893,43.5861831 C22.4442136,44.3426617 22.0806688,45.5729786 22.2128669,46.6619753 C22.3698521,48.0003606 23.1547783,49.1475479 24.0388531,50.1201633 C25.815265,52.0570811 28.1204693,53.9524341 30.7974807,54.3098911 C32.3342835,54.5177148 33.9371854,54.1602579 35.1352307,53.2541462 C35.1930673,53.287398 35.2591664,53.3123368 35.3335278,53.3206498 C37.5643707,53.6032901 39.7704264,52.1152718 40.7288626,50.1367892 C41.8525464,47.8257886 41.5964126,45.1074533 40.7453873,42.7299491 Z" id="Path"></path>
                    <path d="M47.9088716,48.9480371 C47.8675597,47.8257886 47.6692626,46.6952271 47.4874902,45.5896045 C47.289193,44.3925394 47.0413216,43.2037873 46.7604007,42.0233482 C46.182034,39.6458439 45.4466821,37.3015915 44.5708697,35.0155297 C42.8109826,30.4018414 40.5305654,26.0126028 37.9196531,21.831188 C35.3087407,17.6580862 32.3838578,13.6844952 29.2689402,9.88547615 C26.3027455,6.25271617 22.9564812,2.64489505 18.635256,0.658099547 C18.1064636,0.417023942 17.5694088,0.209200145 17.0158293,0.026315203 C16.4209379,-0.16488269 16.1895912,0.741229066 16.7596955,0.957365815 C20.9900345,2.57007848 24.3115117,5.64587068 27.2363945,9.03755505 C30.2273764,12.5123689 33.0035364,16.2033196 35.5400873,20.0272775 C40.6131892,27.6585673 44.7195926,36.0879005 46.3885935,45.1822699 C46.6034154,46.3543961 46.8182373,47.5431482 46.8843364,48.7402133 C46.942173,49.7211416 46.9173859,50.8101383 46.4381678,51.6913112 C46.0167864,52.4810416 45.207073,52.9631928 44.3147359,52.7221172 C43.4554483,52.4976675 42.711834,51.7495019 42.711834,50.8267642 C42.7035716,50.1866669 41.7286107,50.1866669 41.7286107,50.8267642 C41.7203483,52.7054913 43.752894,54.2184486 45.5458307,53.6864197 C47.5370645,53.0878871 47.983233,50.7519476 47.9088716,48.9480371 Z" id="Path"></path>
                </g>
            </g>
        </g>
    </g>
</svg>