<!-- Generated by IcoMoon.io -->
<svg version="1.1" xmlns="http://www.w3.org/2000/svg" width="32" height="32" viewBox="0 0 32 32">
<title>notifiaction</title>
<path d="M16.659 5.331c4.691 0 8.494 3.804 8.494 8.496v3.914l2.682 5.364c0.095 0.191 0.149 0.406 0.149 0.634 0 0.782-0.634 1.416-1.416 1.416h-7.078c0 1.563-1.268 2.832-2.831 2.832s-2.831-1.268-2.831-2.832h-7.078c-0.782 0-1.416-0.634-1.416-1.416 0-0.171 0.030-0.335 0.086-0.486l0.063-0.147 2.682-5.364v-3.914c0-4.692 3.803-8.496 8.494-8.496zM16.667 7.852c-3.238 0-5.864 2.625-5.864 5.863 0 0.146 0.005 0.291 0.016 0.434l-0.016-0.001-0.001 4.609-0.015 0-2.097 3.775h15.938l-2.097-3.775-0.003-0 0.001-4.609-0.016 0.001c0.011-0.143 0.016-0.288 0.016-0.434 0-3.238-2.625-5.863-5.863-5.863z"></path>
</svg>
