<!-- Generated by IcoMoon.io -->
<svg version="1.1" xmlns="http://www.w3.org/2000/svg" width="32" height="32" viewBox="0 0 32 32">
<title>Person</title>
<path d="M16.008 17.333c8.303 0 13.325 3.072 13.325 8 0 0.815-0.018 1.289-0.102 1.879-0.289 2.036-1.279 3.454-3.273 3.454v0h-19.901c-2 0-2.997-1.417-3.288-3.452-0.084-0.591-0.103-1.066-0.103-1.881 0-4.93 5.025-8 13.341-8zM16.008 20c-7.033 0-10.675 2.225-10.675 5.333 0 0.694 0.015 1.075 0.076 1.504 0.126 0.884 0.322 1.163 0.648 1.163v0h19.901c0.314 0 0.508-0.278 0.633-1.161 0.043-0.307 0.063-0.589 0.071-0.978v0l0.004-0.527c0-3.108-3.639-5.333-10.659-5.333zM16 1.333c3.651 0 6.667 2.894 6.667 6.593 0 3.744-3.013 6.74-6.667 6.74-3.64 0-6.667-2.995-6.667-6.716 0-3.685 3.026-6.618 6.667-6.618zM16 4c-2.186 0-4 1.758-4 3.951 0 2.241 1.827 4.049 4 4.049 2.184 0 4-1.805 4-4.073 0-2.202-1.797-3.927-4-3.927z"></path>
</svg>
