<?xml version="1.0" encoding="UTF-8"?>
<svg width="19px" height="19px" viewBox="0 0 19 19" version="1.1" xmlns="http://www.w3.org/2000/svg" xmlns:xlink="http://www.w3.org/1999/xlink">
    <title>52A86281-7D35-4939-9877-767E262CE189</title>
    <g id="Page-1" stroke="none" stroke-width="1" fill="none" fill-rule="evenodd">
        <g id="Momotaro-home-Copy-38" transform="translate(-331.000000, -412.000000)" fill="#FFFFFF" fill-rule="nonzero">
            <g id="Pin" transform="translate(331.857883, 412.857883)">
                <path d="M16.6919114,7.94786697 L10.0967769,1.3710638 C9.49132199,0.743671388 9.33995825,1.13308737 9.33995825,1.43596646 L9.33995825,4.4647574 L4.43144836,8.09930652 L1.46904372,8.09930652 C0.625731452,8.09930652 1.29605659,9.0079438 1.16631624,8.85650425 L4.88553959,12.555956 L1.7717712,15.6929181 C1.59878407,15.8659919 1.59878407,16.1472367 1.7717712,16.3203105 C1.94475834,16.4933843 2.22586243,16.4933843 2.39884956,16.3203105 L5.51261794,13.2049827 L9.2102179,16.9260687 C9.10210094,16.8178976 9.98865999,17.4020215 9.98865999,16.6231896 L9.98865999,13.6376671 L13.6213898,8.72669893 L16.3675605,8.72669893 C16.8216517,8.70506471 17.4271067,8.70506471 16.6919114,7.94786697 Z M2.52858991,8.94304114 L4.45307176,8.94304114 L9.14534772,13.6376671 L9.14534772,15.5631128 L2.52858991,8.94304114 L2.52858991,8.94304114 Z M9.55619216,12.7722983 L5.29638403,8.51035672 L9.64268573,5.35176046 L12.7564541,8.51035672 L9.55619216,12.7722983 Z M13.4051559,7.86133009 L10.2048939,4.65946538 L10.2048939,2.73401972 L15.3296377,7.86133009 L13.4051559,7.86133009 L13.4051559,7.86133009 Z" id="Shape" transform="translate(9.035529, 9.035529) rotate(8.000000) translate(-9.035529, -9.035529) "></path>
            </g>
        </g>
    </g>
</svg>