<!-- Generated by IcoMoon.io -->
<svg version="1.1" xmlns="http://www.w3.org/2000/svg" width="32" height="32" viewBox="0 0 32 32">
<title>plus</title>
<path d="M16.667 4c1.114 0 2.017 0.903 2.017 2.017v0l-0.001 8.632 8.634 0c1.052 0 1.916 0.806 2.009 1.833l0.008 0.184c0 1.114-0.903 2.017-2.017 2.017v0l-8.634-0.001 0.001 8.634c0 1.052-0.805 1.916-1.833 2.009l-0.184 0.008c-1.114 0-2.017-0.903-2.017-2.017v0l-0-8.634-8.632 0.001c-1.052 0-1.916-0.805-2.009-1.833l-0.008-0.184c0-1.114 0.903-2.017 2.017-2.017v0l8.632-0 0-8.632c0-1.052 0.806-1.916 1.833-2.009z"></path>
</svg>
