<?xml version="1.0" encoding="UTF-8"?>
<svg width="19px" height="17px" viewBox="0 0 19 17" version="1.1" xmlns="http://www.w3.org/2000/svg" xmlns:xlink="http://www.w3.org/1999/xlink">
    <title>796A6D5B-C127-4429-9E0E-13EC34190981</title>
    <g id="Page-1" stroke="none" stroke-width="1" fill="none" fill-rule="evenodd">
        <g id="Customer-Landing-Page-Copy-30" transform="translate(-214.000000, -593.000000)" fill="#2D3142" fill-rule="nonzero">
            <g id="Group-26-Copy" transform="translate(16.000000, 233.000000)">
                <g id="Group-20" transform="translate(0.000000, 196.000000)">
                    <g id="Group-23" transform="translate(20.000000, 17.000000)">
                        <g id="Group-22" transform="translate(0.000000, 146.000000)">
                            <g id="Group" transform="translate(178.000000, 1.000000)">
                                <path d="M17.1,0 L1.9,0 C0.850658975,0 0,0.845684361 0,1.88888889 L0,3.77777778 C0.00407257638,4.44854311 0.365665382,5.06684566 0.95,5.40222222 L0.95,15.1111111 C0.95,16.1543156 1.80065898,17 2.85,17 L16.15,17 C17.199341,17 18.05,16.1543156 18.05,15.1111111 L18.05,5.40222222 C18.6343346,5.06684566 18.9959274,4.44854311 19,3.77777778 L19,1.88888889 C19,0.845684361 18.149341,0 17.1,0 Z M1.9,1.88888889 L17.1,1.88888889 L17.1,3.77777778 L1.9,3.77777778 L1.9,1.88888889 Z M2.85,15.1111111 L2.85,5.66666667 L16.15,5.66666667 L16.15,15.1111111 L2.85,15.1111111 Z" id="Shape"></path>
                                <polygon id="Path" points="5.7 7.55555556 13.3 7.55555556 13.3 9.44444444 5.7 9.44444444"></polygon>
                            </g>
                        </g>
                    </g>
                </g>
            </g>
        </g>
    </g>
</svg>