<?xml version="1.0" encoding="UTF-8"?>
<svg width="36px" height="36px" viewBox="0 0 36 36" version="1.1" xmlns="http://www.w3.org/2000/svg" xmlns:xlink="http://www.w3.org/1999/xlink">
    <title>47FC7AA3-E5B6-4013-AAA8-B6E23E410546</title>
    <g id="Page-1" stroke="none" stroke-width="1" fill="none" fill-rule="evenodd">
        <g id="1-Agent-Landing-Page-Copy-29" transform="translate(-251.000000, -690.000000)" fill="#8C80F8">
            <g id="Group-23" transform="translate(251.000000, 690.000000)">
                <path d="M11.3684211,0 L24.6315789,0 C30.9101845,0 36,5.08981548 36,11.3684211 L36,24.6315789 C36,30.9101845 30.9101845,36 24.6315789,36 L11.3684211,36 C5.08981548,36 0,30.9101845 0,24.6315789 L0,11.3684211 C0,5.08981548 5.08981548,0 11.3684211,0 Z" id="Bg" fill-opacity="0.1"></path>
                <g id="Group-22" transform="translate(10.382979, 10.000000)" fill-rule="nonzero">
                    <path d="M13.7599577,7.896 L13.7599577,16 L0.9599577,16 L0.9599577,7.896 C1.77017308,8.09232742 2.62428157,7.98414034 3.3599577,7.592 L3.3599577,11.2 L11.3599577,11.2 L11.3599577,7.6 C12.0968809,7.98871589 12.9506708,8.09401664 13.7599577,7.896 L13.7599577,7.896 Z" id="Path"></path>
                    <path d="M1.7599577,0 L4.9599577,0 L4.4239577,4.824 C4.24285072,6.16429463 3.11215845,7.1727499 1.7599577,7.2 C0.4319577,7.2 -0.3040423,6.184 0.1199577,4.92 L1.7599577,0 Z" id="Path"></path>
                    <path d="M5.7599577,0 L8.9599577,0 L9.5199577,5.04 C9.6559577,6.24 8.7919577,7.2 7.5839577,7.2 L7.1359577,7.2 C6.57779486,7.21447945 6.04140722,6.98322884 5.66874193,6.56744525 C5.29607663,6.15166166 5.12469757,5.59325521 5.1999577,5.04 L5.7599577,0 Z" id="Path"></path>
                    <path d="M9.7599577,0 L12.9599577,0 L14.5999577,4.92 C15.0239577,6.184 14.2799577,7.2 12.9599577,7.2 C11.6064369,7.17611729 10.4738696,6.16598971 10.2959577,4.824 L9.7599577,0 Z" id="Path"></path>
                </g>
            </g>
        </g>
    </g>
</svg>