<?xml version="1.0" encoding="UTF-8"?>
<svg width="28px" height="23px" viewBox="0 0 28 23" version="1.1" xmlns="http://www.w3.org/2000/svg" xmlns:xlink="http://www.w3.org/1999/xlink">
    <title>Group</title>
    <g id="Page-1" stroke="none" stroke-width="1" fill="none" fill-rule="evenodd">
        <g id="Group" transform="translate(0.416962, 0.000000)" fill="#2D3142" fill-rule="nonzero">
            <path d="M24.1933333,7.02666667 L26.2773333,4.94266667 L24.392,3.05733333 L22.1146667,5.33333333 C20.7146667,4.49333333 19.0826667,4 17.3333333,4 C12.188,4 8,8.18666667 8,13.3333333 C8,18.48 12.188,22.6666667 17.3333333,22.6666667 C22.4786667,22.6666667 26.6666667,18.48 26.6666667,13.3333333 C26.6656044,10.9946985 25.7823577,8.74253833 24.1933333,7.02666667 Z M17.3333333,20 C13.6573333,20 10.6666667,17.0093333 10.6666667,13.3333333 C10.6666667,9.65733333 13.6573333,6.66666667 17.3333333,6.66666667 C21.0093333,6.66666667 24,9.65733333 24,13.3333333 C24,17.0093333 21.0093333,20 17.3333333,20 Z" id="Shape"></path>
            <path d="M16,9.33333333 L18.6666667,9.33333333 L18.6666667,14.6666667 L16,14.6666667 L16,9.33333333 Z M14.6666667,0 L20,0 L20,2.66666667 L14.6666667,2.66666667 L14.6666667,0 Z M1.33333333,6.66666667 L6.66666667,6.66666667 L6.66666667,9.33333333 L1.33333333,9.33333333 L1.33333333,6.66666667 Z M1.33333333,17.3333333 L6.66666667,17.3333333 L6.66666667,20 L1.33333333,20 L1.33333333,17.3333333 Z M0,12 L5.32,12 L5.32,14.6666667 L0,14.6666667 L0,12 Z" id="Shape"></path>
        </g>
    </g>
</svg>