<?xml version="1.0" encoding="UTF-8"?>
<svg width="29px" height="32px" viewBox="0 0 29 32" version="1.1" xmlns="http://www.w3.org/2000/svg" xmlns:xlink="http://www.w3.org/1999/xlink">
    <title>C0395796-D947-44C0-87B7-691AF9CFB4F9</title>
    <g id="Page-1" stroke="none" stroke-width="1" fill="none" fill-rule="evenodd">
        <g id="1-Agent-Landing-Page-Copy-36" transform="translate(-173.000000, -161.000000)" fill="#7265E3" fill-rule="nonzero">
            <g id="9054813_bx_task_icon" transform="translate(173.000000, 161.000000)">
                <path d="M3.2,32 L25.6,32 C27.3648,32 28.8,30.5648 28.8,28.8 L28.8,4.8 C28.8,3.0352 27.3648,1.6 25.6,1.6 L22.4,1.6 C22.4,0.7163444 21.6836556,0 20.8,0 L8,0 C7.1163444,0 6.4,0.7163444 6.4,1.6 L3.2,1.6 C1.4352,1.6 0,3.0352 0,4.8 L0,28.8 C0,30.5648 1.4352,32 3.2,32 Z M3.2,4.8 L6.4,4.8 L6.4,8 L22.4,8 L22.4,4.8 L25.6,4.8 L25.6,28.8 L3.2,28.8 L3.2,4.8 Z" id="Shape"></path>
                <polygon id="Path" points="12.8 18.5376 9.9312 15.6688 7.6688 17.9312 12.8 23.0624 21.1312 14.7312 18.8688 12.4688"></polygon>
            </g>
        </g>
    </g>
</svg>