<?xml version="1.0" encoding="UTF-8"?>
<svg width="48px" height="48px" viewBox="0 0 48 48" version="1.1" xmlns="http://www.w3.org/2000/svg" xmlns:xlink="http://www.w3.org/1999/xlink">
    <title>1C57363F-EE4E-4F7A-A1E6-231955B99372</title>
    <g id="Page-1" stroke="none" stroke-width="1" fill="none" fill-rule="evenodd">
        <g id="1-Agent-Landing-Page-Copy-8" transform="translate(-299.000000, -128.000000)">
            <g id="Group-3" transform="translate(299.000000, 128.000000)">
                <g id="Notification" fill="#C1C4F7" opacity="0.4">
                    <g id="Avatar/Image">
                        <path d="M15.1578947,0 L32.8421053,0 C41.2135794,0 48,6.78642063 48,15.1578947 L48,32.8421053 C48,41.2135794 41.2135794,48 32.8421053,48 L15.1578947,48 C6.78642063,48 0,41.2135794 0,32.8421053 L0,15.1578947 C0,6.78642063 6.78642063,0 15.1578947,0 Z" id="Avatar"></path>
                    </g>
                </g>
                <g id="icon4" transform="translate(14.000000, 14.000000)" fill="#FFFFFF">
                    <path d="M33.9823101,32.3 C33.9823101,33.2388841 33.2219862,34 32.2840791,34 L1.71592092,34 C0.778013828,34 0.0176899063,33.2388841 0.0176899063,32.3 C-0.359694762,24.3666667 5.30107527,20.4 17,20.4 C28.6989247,20.4 34.3596948,24.3666667 33.9823101,32.3 Z M17,17 C12.3055796,17 8.5,13.1944204 8.5,8.5 C8.5,3.80557963 12.3055796,0 17,0 C21.6944204,0 25.5,3.80557963 25.5,8.5 C25.5,13.1944204 21.6944204,17 17,17 Z" id="Shape"></path>
                </g>
            </g>
        </g>
    </g>
</svg>