<!-- Generated by IcoMoon.io -->
<svg version="1.1" xmlns="http://www.w3.org/2000/svg" width="32" height="32" viewBox="0 0 32 32">
<title>walk</title>
<path d="M22.119 5.932c-1.638 0-2.966-1.328-2.966-2.966s1.328-2.966 2.966-2.966c1.638 0 2.966 1.328 2.966 2.966s-1.328 2.966-2.966 2.966zM3.473 28.431c3.535-5.276 7.577-12.148 8.256-13.308 0.062-0.21 0.143-0.424 0.255-0.639 0.807-1.574 1.652-3.129 2.513-4.674-0.913 0.071-1.829 0.142-2.742 0.213-0.628 1.237-1.252 2.474-1.879 3.711-1.009 1.992-3.994 0.239-2.988-1.747 0.807-1.596 1.764-5.185 3.849-5.346 2.218-0.172 4.435-0.345 6.652-0.516 0.054-0.004 0.1 0.003 0.152 0.003 1.676-0.449 3.641 0.734 3.997 2.443 1.134 2.455 2.761 4.372 5.492 5.172 2.138 0.625 1.227 3.965-0.92 3.337-2.7-0.79-4.639-2.337-6.109-4.374-0.89 1.588-1.76 3.185-2.593 4.805 1.832 1.263 3.433 2.791 4.835 4.554 0.391 0.492 0.458 0.998 0.327 1.442 0.005 0.166-0.006 0.338-0.053 0.526-0.54 2.137-1.079 4.27-1.619 6.404-0.573 2.274-4.174 1.628-3.596-0.661 0.514-2.034 1.028-4.068 1.542-6.103-1.289-1.519-2.808-2.841-4.544-3.828-0.409-0.233-0.666-0.553-0.809-0.906-2.375 3.639-4.75 8.674-7.124 11.726-1.449 1.862-4.346-0.367-2.896-2.233z"></path>
</svg>
